<?xml version="1.0" encoding="UTF-8" standalone="no"?><svg xmlns="http://www.w3.org/2000/svg" xmlns:xlink="http://www.w3.org/1999/xlink" contentScriptType="application/ecmascript" contentStyleType="text/css" height="138px" preserveAspectRatio="none" style="width:335px;height:138px;" version="1.1" viewBox="0 0 335 138" width="335px" zoomAndPan="magnify"><defs><filter height="300%" id="fnesu3cvkixsm" width="300%" x="-1" y="-1"><feGaussianBlur result="blurOut" stdDeviation="2.0"/><feColorMatrix in="blurOut" result="blurOut2" type="matrix" values="0 0 0 0 0 0 0 0 0 0 0 0 0 0 0 0 0 0 .4 0"/><feOffset dx="4.0" dy="4.0" in="blurOut2" result="blurOut3"/><feBlend in="SourceGraphic" in2="blurOut3" mode="normal"/></filter></defs><g><!--class edu.guyi.bbtan.clock.GameUpdater--><a href="GameUpdater.html" target="_top" xlink:actuate="onRequest" xlink:show="new" xlink:title="GameUpdater.html" xlink:type="simple"><rect fill="#FEFECE" filter="url(#fnesu3cvkixsm)" height="95.8462" id="edu.guyi.bbtan.clock.GameUpdater" style="stroke: #A80036; stroke-width: 1.5;" width="318" x="6" y="8"/><ellipse cx="112.75" cy="29.3887" fill="#ADD1B2" rx="11" ry="11" style="stroke: #A80036; stroke-width: 1.0;"/><path d="M112.1719,35.248 Q110.1406,35.248 108.9531,33.748 Q107.7813,32.248 107.7813,29.1387 Q107.7813,26.498 109.0313,24.7324 Q110.2813,22.9512 112.4375,22.9512 Q112.9531,22.9512 113.4844,23.0918 Q113.9219,23.2793 114.1719,23.2793 Q114.3594,23.2793 114.4531,23.248 Q114.5469,23.2012 115.0938,22.4824 L115.9063,26.4512 L114.8594,26.7637 Q114.4063,25.2637 113.8125,24.6855 Q113.2344,24.0918 112.3125,24.0918 Q111.1406,24.0918 110.4375,25.498 Q109.7344,26.8887 109.7344,29.0605 Q109.7344,31.4512 110.3281,32.7168 Q110.9375,33.9668 112.25,33.9668 Q113.1719,33.9668 113.8438,33.2949 Q114.5156,32.6074 114.8438,31.0293 L115.8906,31.5293 Q115.4844,33.2949 114.5,34.2793 Q113.5156,35.248 112.1719,35.248 Z "/><text fill="#000000" font-family="sans-serif" font-size="14" lengthAdjust="spacingAndGlyphs" textLength="90" x="136.25" y="29.0439">GameUpdater</text><text fill="#000000" font-family="sans-serif" font-size="10" lengthAdjust="spacingAndGlyphs" textLength="96" x="133.25" y="43.5801">edu.guyi.bbtan.clock</text><line style="stroke: #A80036; stroke-width: 1.5;" x1="7" x2="323" y1="50.7773" y2="50.7773"/><ellipse cx="17" cy="63.7888" fill="#84BE84" rx="3" ry="3" style="stroke: #038048; stroke-width: 1.0;"/><text fill="#000000" font-family="sans-serif" font-size="11" lengthAdjust="spacingAndGlyphs" textLength="292" x="26" y="67.3833">GameUpdater(GameData, BlockingQueue&lt;BufferStrategy&gt;)</text><ellipse cx="17" cy="78.8118" fill="#84BE84" rx="3" ry="3" style="stroke: #038048; stroke-width: 1.0;"/><text fill="#000000" font-family="sans-serif" font-size="11" lengthAdjust="spacingAndGlyphs" textLength="200" x="26" y="82.4063">setComponentToDraw(Component): void</text><ellipse cx="17" cy="93.8347" fill="#84BE84" rx="3" ry="3" style="stroke: #038048; stroke-width: 1.0;"/><text fill="#000000" font-family="sans-serif" font-size="11" lengthAdjust="spacingAndGlyphs" textLength="91" x="26" y="97.4292">updateLoop(): void</text></a><text fill="#888888" font-family="sans-serif" font-size="10" lengthAdjust="spacingAndGlyphs" textLength="185" x="78.5" y="125.46">UMLDoclet 2.0.10, PlantUML 1.2019.08</text><!--
@startuml
    set namespaceSeparator none
    hide empty fields
    hide empty methods

    class "<size:14>GameUpdater\n<size:10>edu.guyi.bbtan.clock" as edu.guyi.bbtan.clock.GameUpdater [[GameUpdater.html]] {
        +GameUpdater(GameData, BlockingQueue<BufferStrategy>)
        +setComponentToDraw(Component): void
        +updateLoop(): void
    }

    center footer UMLDoclet 2.0.10, PlantUML 1.2019.08
@enduml

PlantUML version 1.2019.08(Sun Jul 14 03:25:14 CST 2019)
(APACHE source distribution)
Java Runtime: OpenJDK Runtime Environment
JVM: OpenJDK 64-Bit Server VM
Java Version: 9+181
Operating System: Windows 10
OS Version: 10.0
Default Encoding: GBK
Language: zh
Country: CN
--></g></svg>