<?xml version="1.0" encoding="UTF-8" standalone="no"?><svg xmlns="http://www.w3.org/2000/svg" xmlns:xlink="http://www.w3.org/1999/xlink" contentScriptType="application/ecmascript" contentStyleType="text/css" height="221px" preserveAspectRatio="none" style="width:394px;height:221px;" version="1.1" viewBox="0 0 394 221" width="394px" zoomAndPan="magnify"><defs><filter height="300%" id="f1txll7at2lpyq" width="300%" x="-1" y="-1"><feGaussianBlur result="blurOut" stdDeviation="2.0"/><feColorMatrix in="blurOut" result="blurOut2" type="matrix" values="0 0 0 0 0 0 0 0 0 0 0 0 0 0 0 0 0 0 .4 0"/><feOffset dx="4.0" dy="4.0" in="blurOut2" result="blurOut3"/><feBlend in="SourceGraphic" in2="blurOut3" mode="normal"/></filter></defs><g><!--cluster edu.guyi.bbtan.clock--><polygon fill="#FFFFFF" filter="url(#f1txll7at2lpyq)" points="22,24,173,24,180,49.1201,372,49.1201,372,171,22,171,22,24" style="stroke: #000000; stroke-width: 1.5;"/><line style="stroke: #000000; stroke-width: 1.5;" x1="22" x2="180" y1="49.1201" y2="49.1201"/><text fill="#000000" font-family="sans-serif" font-size="14" font-weight="bold" lengthAdjust="spacingAndGlyphs" textLength="145" x="26" y="42.0439">edu.guyi.bbtan.clock</text><!--class edu.guyi.bbtan.clock.GameUpdater--><a href="GameUpdater.html" target="_top" xlink:actuate="onRequest" xlink:show="new" xlink:title="GameUpdater.html" xlink:type="simple"><rect fill="#FEFECE" filter="url(#f1txll7at2lpyq)" height="93.0688" id="edu.guyi.bbtan.clock.GameUpdater" style="stroke: #A80036; stroke-width: 1.5;" width="318" x="38" y="62"/><ellipse cx="154.25" cy="78" fill="#ADD1B2" rx="11" ry="11" style="stroke: #A80036; stroke-width: 1.0;"/><path d="M153.6719,83.8594 Q151.6406,83.8594 150.4531,82.3594 Q149.2813,80.8594 149.2813,77.75 Q149.2813,75.1094 150.5313,73.3438 Q151.7813,71.5625 153.9375,71.5625 Q154.4531,71.5625 154.9844,71.7031 Q155.4219,71.8906 155.6719,71.8906 Q155.8594,71.8906 155.9531,71.8594 Q156.0469,71.8125 156.5938,71.0938 L157.4063,75.0625 L156.3594,75.375 Q155.9063,73.875 155.3125,73.2969 Q154.7344,72.7031 153.8125,72.7031 Q152.6406,72.7031 151.9375,74.1094 Q151.2344,75.5 151.2344,77.6719 Q151.2344,80.0625 151.8281,81.3281 Q152.4375,82.5781 153.75,82.5781 Q154.6719,82.5781 155.3438,81.9063 Q156.0156,81.2188 156.3438,79.6406 L157.3906,80.1406 Q156.9844,81.9063 156,82.8906 Q155.0156,83.8594 153.6719,83.8594 Z "/><text fill="#000000" font-family="sans-serif" font-size="12" lengthAdjust="spacingAndGlyphs" textLength="77" x="174.75" y="83.5576">GameUpdater</text><line style="stroke: #A80036; stroke-width: 1.5;" x1="39" x2="355" y1="94" y2="94"/><line style="stroke: #A80036; stroke-width: 1.5;" x1="39" x2="355" y1="102" y2="102"/><ellipse cx="49" cy="115.0115" fill="#84BE84" rx="3" ry="3" style="stroke: #038048; stroke-width: 1.0;"/><text fill="#000000" font-family="sans-serif" font-size="11" lengthAdjust="spacingAndGlyphs" textLength="292" x="58" y="118.606">GameUpdater(GameData, BlockingQueue&lt;BufferStrategy&gt;)</text><ellipse cx="49" cy="130.0344" fill="#84BE84" rx="3" ry="3" style="stroke: #038048; stroke-width: 1.0;"/><text fill="#000000" font-family="sans-serif" font-size="11" lengthAdjust="spacingAndGlyphs" textLength="200" x="58" y="133.6289">setComponentToDraw(Component): void</text><ellipse cx="49" cy="145.0574" fill="#84BE84" rx="3" ry="3" style="stroke: #038048; stroke-width: 1.0;"/><text fill="#000000" font-family="sans-serif" font-size="11" lengthAdjust="spacingAndGlyphs" textLength="91" x="58" y="148.6519">updateLoop(): void</text></a><text fill="#888888" font-family="sans-serif" font-size="10" lengthAdjust="spacingAndGlyphs" textLength="185" x="110.5" y="208.46">UMLDoclet 2.0.10, PlantUML 1.2019.08</text><!--
@startuml
    namespace edu.guyi.bbtan.clock {

        class GameUpdater [[GameUpdater.html]] {
            +GameUpdater(GameData, BlockingQueue<BufferStrategy>)
            +setComponentToDraw(Component): void
            +updateLoop(): void
        }

    }

    center footer UMLDoclet 2.0.10, PlantUML 1.2019.08
@enduml

PlantUML version 1.2019.08(Sun Jul 14 03:25:14 CST 2019)
(APACHE source distribution)
Java Runtime: OpenJDK Runtime Environment
JVM: OpenJDK 64-Bit Server VM
Java Version: 9+181
Operating System: Windows 10
OS Version: 10.0
Default Encoding: GBK
Language: zh
Country: CN
--></g></svg>