<?xml version="1.0" encoding="UTF-8" standalone="no"?><svg xmlns="http://www.w3.org/2000/svg" xmlns:xlink="http://www.w3.org/1999/xlink" contentScriptType="application/ecmascript" contentStyleType="text/css" height="236px" preserveAspectRatio="none" style="width:228px;height:236px;" version="1.1" viewBox="0 0 228 236" width="228px" zoomAndPan="magnify"><defs><filter height="300%" id="f1b8fmowtcpmms" width="300%" x="-1" y="-1"><feGaussianBlur result="blurOut" stdDeviation="2.0"/><feColorMatrix in="blurOut" result="blurOut2" type="matrix" values="0 0 0 0 0 0 0 0 0 0 0 0 0 0 0 0 0 0 .4 0"/><feOffset dx="4.0" dy="4.0" in="blurOut2" result="blurOut3"/><feBlend in="SourceGraphic" in2="blurOut3" mode="normal"/></filter></defs><g><!--cluster edu.guyi.bbtan.utilities--><polygon fill="#FFFFFF" filter="url(#f1b8fmowtcpmms)" points="22,24,187,24,194,49.1201,206,49.1201,206,186,22,186,22,24" style="stroke: #000000; stroke-width: 1.5;"/><line style="stroke: #000000; stroke-width: 1.5;" x1="22" x2="194" y1="49.1201" y2="49.1201"/><text fill="#000000" font-family="sans-serif" font-size="14" font-weight="bold" lengthAdjust="spacingAndGlyphs" textLength="159" x="26" y="42.0439">edu.guyi.bbtan.utilities</text><!--class edu.guyi.bbtan.utilities.Utilities--><a href="Utilities.html" target="_top" xlink:actuate="onRequest" xlink:show="new" xlink:title="Utilities.html" xlink:type="simple"><rect fill="#FEFECE" filter="url(#f1b8fmowtcpmms)" height="108.0918" id="edu.guyi.bbtan.utilities.Utilities" style="stroke: #A80036; stroke-width: 1.5;" width="152" x="38" y="62"/><ellipse cx="89.75" cy="78" fill="#ADD1B2" rx="11" ry="11" style="stroke: #A80036; stroke-width: 1.0;"/><path d="M89.1719,83.8594 Q87.1406,83.8594 85.9531,82.3594 Q84.7813,80.8594 84.7813,77.75 Q84.7813,75.1094 86.0313,73.3438 Q87.2813,71.5625 89.4375,71.5625 Q89.9531,71.5625 90.4844,71.7031 Q90.9219,71.8906 91.1719,71.8906 Q91.3594,71.8906 91.4531,71.8594 Q91.5469,71.8125 92.0938,71.0938 L92.9063,75.0625 L91.8594,75.375 Q91.4063,73.875 90.8125,73.2969 Q90.2344,72.7031 89.3125,72.7031 Q88.1406,72.7031 87.4375,74.1094 Q86.7344,75.5 86.7344,77.6719 Q86.7344,80.0625 87.3281,81.3281 Q87.9375,82.5781 89.25,82.5781 Q90.1719,82.5781 90.8438,81.9063 Q91.5156,81.2188 91.8438,79.6406 L92.8906,80.1406 Q92.4844,81.9063 91.5,82.8906 Q90.5156,83.8594 89.1719,83.8594 Z "/><text fill="#000000" font-family="sans-serif" font-size="12" lengthAdjust="spacingAndGlyphs" textLength="40" x="110.25" y="83.5576">Utilities</text><line style="stroke: #A80036; stroke-width: 1.5;" x1="39" x2="189" y1="94" y2="94"/><ellipse cx="49" cy="107.0115" fill="none" rx="3" ry="3" style="stroke: #038048; stroke-width: 1.0;"/><text fill="#000000" font-family="sans-serif" font-size="11" lengthAdjust="spacingAndGlyphs" text-decoration="underline" textLength="112" x="58" y="110.606">MonospaceBasic: Font</text><ellipse cx="49" cy="122.0344" fill="none" rx="3" ry="3" style="stroke: #038048; stroke-width: 1.0;"/><text fill="#000000" font-family="sans-serif" font-size="11" lengthAdjust="spacingAndGlyphs" text-decoration="underline" textLength="105" x="58" y="125.6289">GameOverFont: Font</text><ellipse cx="49" cy="137.0574" fill="none" rx="3" ry="3" style="stroke: #038048; stroke-width: 1.0;"/><text fill="#000000" font-family="sans-serif" font-size="11" lengthAdjust="spacingAndGlyphs" text-decoration="underline" textLength="69" x="58" y="140.6519">rand: Random</text><line style="stroke: #A80036; stroke-width: 1.5;" x1="39" x2="189" y1="147.0688" y2="147.0688"/><ellipse cx="49" cy="160.0803" fill="#84BE84" rx="3" ry="3" style="stroke: #038048; stroke-width: 1.0;"/><text fill="#000000" font-family="sans-serif" font-size="11" lengthAdjust="spacingAndGlyphs" text-decoration="underline" textLength="126" x="58" y="163.6748">Property(double): boolean</text></a><text fill="#888888" font-family="sans-serif" font-size="10" lengthAdjust="spacingAndGlyphs" textLength="185" x="27.5" y="223.46">UMLDoclet 2.0.10, PlantUML 1.2019.08</text><!--
@startuml
    namespace edu.guyi.bbtan.utilities {

        class Utilities [[Utilities.html]] {
            {static} +MonospaceBasic: Font
            {static} +GameOverFont: Font
            {static} +rand: Random
            {static} +Property(double): boolean
        }

    }

    center footer UMLDoclet 2.0.10, PlantUML 1.2019.08
@enduml

PlantUML version 1.2019.08(Sun Jul 14 03:25:14 CST 2019)
(APACHE source distribution)
Java Runtime: OpenJDK Runtime Environment
JVM: OpenJDK 64-Bit Server VM
Java Version: 9+181
Operating System: Windows 10
OS Version: 10.0
Default Encoding: GBK
Language: zh
Country: CN
--></g></svg>