<?xml version="1.0" encoding="UTF-8" standalone="no"?><svg xmlns="http://www.w3.org/2000/svg" xmlns:xlink="http://www.w3.org/1999/xlink" contentScriptType="application/ecmascript" contentStyleType="text/css" height="161px" preserveAspectRatio="none" style="width:197px;height:161px;" version="1.1" viewBox="0 0 197 161" width="197px" zoomAndPan="magnify"><defs><filter height="300%" id="ftb9z2ixdahz5" width="300%" x="-1" y="-1"><feGaussianBlur result="blurOut" stdDeviation="2.0"/><feColorMatrix in="blurOut" result="blurOut2" type="matrix" values="0 0 0 0 0 0 0 0 0 0 0 0 0 0 0 0 0 0 .4 0"/><feOffset dx="4.0" dy="4.0" in="blurOut2" result="blurOut3"/><feBlend in="SourceGraphic" in2="blurOut3" mode="normal"/></filter></defs><g><!--class edu.guyi.bbtan.utilities.Utilities--><a href="Utilities.html" target="_top" xlink:actuate="onRequest" xlink:show="new" xlink:title="Utilities.html" xlink:type="simple"><rect fill="#FEFECE" filter="url(#ftb9z2ixdahz5)" height="118.8691" id="edu.guyi.bbtan.utilities.Utilities" style="stroke: #A80036; stroke-width: 1.5;" width="152" x="10.5" y="8"/><ellipse cx="32.7" cy="29.3887" fill="#ADD1B2" rx="11" ry="11" style="stroke: #A80036; stroke-width: 1.0;"/><path d="M32.1219,35.248 Q30.0906,35.248 28.9031,33.748 Q27.7313,32.248 27.7313,29.1387 Q27.7313,26.498 28.9813,24.7324 Q30.2313,22.9512 32.3875,22.9512 Q32.9031,22.9512 33.4344,23.0918 Q33.8719,23.2793 34.1219,23.2793 Q34.3094,23.2793 34.4031,23.248 Q34.4969,23.2012 35.0438,22.4824 L35.8563,26.4512 L34.8094,26.7637 Q34.3563,25.2637 33.7625,24.6855 Q33.1844,24.0918 32.2625,24.0918 Q31.0906,24.0918 30.3875,25.498 Q29.6844,26.8887 29.6844,29.0605 Q29.6844,31.4512 30.2781,32.7168 Q30.8875,33.9668 32.2,33.9668 Q33.1219,33.9668 33.7938,33.2949 Q34.4656,32.6074 34.7938,31.0293 L35.8406,31.5293 Q35.4344,33.2949 34.45,34.2793 Q33.4656,35.248 32.1219,35.248 Z "/><text fill="#000000" font-family="sans-serif" font-size="14" lengthAdjust="spacingAndGlyphs" textLength="45" x="77.8" y="29.0439">Utilities</text><text fill="#000000" font-family="sans-serif" font-size="10" lengthAdjust="spacingAndGlyphs" textLength="104" x="48.3" y="43.5801">edu.guyi.bbtan.utilities</text><line style="stroke: #A80036; stroke-width: 1.5;" x1="11.5" x2="161.5" y1="50.7773" y2="50.7773"/><ellipse cx="21.5" cy="63.7888" fill="none" rx="3" ry="3" style="stroke: #038048; stroke-width: 1.0;"/><text fill="#000000" font-family="sans-serif" font-size="11" lengthAdjust="spacingAndGlyphs" text-decoration="underline" textLength="112" x="30.5" y="67.3833">MonospaceBasic: Font</text><ellipse cx="21.5" cy="78.8118" fill="none" rx="3" ry="3" style="stroke: #038048; stroke-width: 1.0;"/><text fill="#000000" font-family="sans-serif" font-size="11" lengthAdjust="spacingAndGlyphs" text-decoration="underline" textLength="105" x="30.5" y="82.4063">GameOverFont: Font</text><ellipse cx="21.5" cy="93.8347" fill="none" rx="3" ry="3" style="stroke: #038048; stroke-width: 1.0;"/><text fill="#000000" font-family="sans-serif" font-size="11" lengthAdjust="spacingAndGlyphs" text-decoration="underline" textLength="69" x="30.5" y="97.4292">rand: Random</text><line style="stroke: #A80036; stroke-width: 1.5;" x1="11.5" x2="161.5" y1="103.8462" y2="103.8462"/><ellipse cx="21.5" cy="116.8577" fill="#84BE84" rx="3" ry="3" style="stroke: #038048; stroke-width: 1.0;"/><text fill="#000000" font-family="sans-serif" font-size="11" lengthAdjust="spacingAndGlyphs" text-decoration="underline" textLength="126" x="30.5" y="120.4521">Property(double): boolean</text></a><text fill="#888888" font-family="sans-serif" font-size="10" lengthAdjust="spacingAndGlyphs" textLength="185" x="0" y="148.46">UMLDoclet 2.0.10, PlantUML 1.2019.08</text><!--
@startuml
    set namespaceSeparator none
    hide empty fields
    hide empty methods

    class "<size:14>Utilities\n<size:10>edu.guyi.bbtan.utilities" as edu.guyi.bbtan.utilities.Utilities [[Utilities.html]] {
        {static} +MonospaceBasic: Font
        {static} +GameOverFont: Font
        {static} +rand: Random
        {static} +Property(double): boolean
    }

    center footer UMLDoclet 2.0.10, PlantUML 1.2019.08
@enduml

PlantUML version 1.2019.08(Sun Jul 14 03:25:14 CST 2019)
(APACHE source distribution)
Java Runtime: OpenJDK Runtime Environment
JVM: OpenJDK 64-Bit Server VM
Java Version: 9+181
Operating System: Windows 10
OS Version: 10.0
Default Encoding: GBK
Language: zh
Country: CN
--></g></svg>