<?xml version="1.0" encoding="UTF-8" standalone="no"?><svg xmlns="http://www.w3.org/2000/svg" xmlns:xlink="http://www.w3.org/1999/xlink" contentScriptType="application/ecmascript" contentStyleType="text/css" height="108px" preserveAspectRatio="none" style="width:197px;height:108px;" version="1.1" viewBox="0 0 197 108" width="197px" zoomAndPan="magnify"><defs><filter height="300%" id="fxok5dqzm7juu" width="300%" x="-1" y="-1"><feGaussianBlur result="blurOut" stdDeviation="2.0"/><feColorMatrix in="blurOut" result="blurOut2" type="matrix" values="0 0 0 0 0 0 0 0 0 0 0 0 0 0 0 0 0 0 .4 0"/><feOffset dx="4.0" dy="4.0" in="blurOut2" result="blurOut3"/><feBlend in="SourceGraphic" in2="blurOut3" mode="normal"/></filter></defs><g><!--class edu.guyi.bbtan.main.Main--><a href="Main.html" target="_top" xlink:actuate="onRequest" xlink:show="new" xlink:title="Main.html" xlink:type="simple"><rect fill="#FEFECE" filter="url(#fxok5dqzm7juu)" height="65.8003" id="edu.guyi.bbtan.main.Main" style="stroke: #A80036; stroke-width: 1.5;" width="127" x="23" y="8"/><ellipse cx="38" cy="29.3887" fill="#ADD1B2" rx="11" ry="11" style="stroke: #A80036; stroke-width: 1.0;"/><path d="M37.4219,35.248 Q35.3906,35.248 34.2031,33.748 Q33.0313,32.248 33.0313,29.1387 Q33.0313,26.498 34.2813,24.7324 Q35.5313,22.9512 37.6875,22.9512 Q38.2031,22.9512 38.7344,23.0918 Q39.1719,23.2793 39.4219,23.2793 Q39.6094,23.2793 39.7031,23.248 Q39.7969,23.2012 40.3438,22.4824 L41.1563,26.4512 L40.1094,26.7637 Q39.6563,25.2637 39.0625,24.6855 Q38.4844,24.0918 37.5625,24.0918 Q36.3906,24.0918 35.6875,25.498 Q34.9844,26.8887 34.9844,29.0605 Q34.9844,31.4512 35.5781,32.7168 Q36.1875,33.9668 37.5,33.9668 Q38.4219,33.9668 39.0938,33.2949 Q39.7656,32.6074 40.0938,31.0293 L41.1406,31.5293 Q40.7344,33.2949 39.75,34.2793 Q38.7656,35.248 37.4219,35.248 Z "/><text fill="#000000" font-family="sans-serif" font-size="14" lengthAdjust="spacingAndGlyphs" textLength="31" x="84" y="29.0439">Main</text><text fill="#000000" font-family="sans-serif" font-size="10" lengthAdjust="spacingAndGlyphs" textLength="95" x="52" y="43.5801">edu.guyi.bbtan.main</text><line style="stroke: #A80036; stroke-width: 1.5;" x1="24" x2="149" y1="50.7773" y2="50.7773"/><ellipse cx="34" cy="63.7888" fill="#84BE84" rx="3" ry="3" style="stroke: #038048; stroke-width: 1.0;"/><text fill="#000000" font-family="sans-serif" font-size="11" lengthAdjust="spacingAndGlyphs" text-decoration="underline" textLength="91" x="43" y="67.3833">main(String[]): void</text></a><text fill="#888888" font-family="sans-serif" font-size="10" lengthAdjust="spacingAndGlyphs" textLength="185" x="0" y="95.46">UMLDoclet 2.0.10, PlantUML 1.2019.08</text><!--
@startuml
    set namespaceSeparator none
    hide empty fields
    hide empty methods

    class "<size:14>Main\n<size:10>edu.guyi.bbtan.main" as edu.guyi.bbtan.main.Main [[Main.html]] {
        {static} +main(String[]): void
    }

    center footer UMLDoclet 2.0.10, PlantUML 1.2019.08
@enduml

PlantUML version 1.2019.08(Sun Jul 14 03:25:14 CST 2019)
(APACHE source distribution)
Java Runtime: OpenJDK Runtime Environment
JVM: OpenJDK 64-Bit Server VM
Java Version: 9+181
Operating System: Windows 10
OS Version: 10.0
Default Encoding: GBK
Language: zh
Country: CN
--></g></svg>