<?xml version="1.0" encoding="UTF-8" standalone="no"?><svg xmlns="http://www.w3.org/2000/svg" xmlns:xlink="http://www.w3.org/1999/xlink" contentScriptType="application/ecmascript" contentStyleType="text/css" height="191px" preserveAspectRatio="none" style="width:211px;height:191px;" version="1.1" viewBox="0 0 211 191" width="211px" zoomAndPan="magnify"><defs><filter height="300%" id="f1n68bc7fsu5wz" width="300%" x="-1" y="-1"><feGaussianBlur result="blurOut" stdDeviation="2.0"/><feColorMatrix in="blurOut" result="blurOut2" type="matrix" values="0 0 0 0 0 0 0 0 0 0 0 0 0 0 0 0 0 0 .4 0"/><feOffset dx="4.0" dy="4.0" in="blurOut2" result="blurOut3"/><feBlend in="SourceGraphic" in2="blurOut3" mode="normal"/></filter></defs><g><!--cluster edu.guyi.bbtan.main--><polygon fill="#FFFFFF" filter="url(#f1n68bc7fsu5wz)" points="22,24,169,24,176,49.1201,179,49.1201,179,141,22,141,22,24" style="stroke: #000000; stroke-width: 1.5;"/><line style="stroke: #000000; stroke-width: 1.5;" x1="22" x2="176" y1="49.1201" y2="49.1201"/><text fill="#000000" font-family="sans-serif" font-size="14" font-weight="bold" lengthAdjust="spacingAndGlyphs" textLength="141" x="26" y="42.0439">edu.guyi.bbtan.main</text><!--class edu.guyi.bbtan.main.Main--><a href="Main.html" target="_top" xlink:actuate="onRequest" xlink:show="new" xlink:title="Main.html" xlink:type="simple"><rect fill="#FEFECE" filter="url(#f1n68bc7fsu5wz)" height="63.0229" id="edu.guyi.bbtan.main.Main" style="stroke: #A80036; stroke-width: 1.5;" width="117" x="41.5" y="62"/><ellipse cx="82.6" cy="78" fill="#ADD1B2" rx="11" ry="11" style="stroke: #A80036; stroke-width: 1.0;"/><path d="M82.0219,83.8594 Q79.9906,83.8594 78.8031,82.3594 Q77.6313,80.8594 77.6313,77.75 Q77.6313,75.1094 78.8813,73.3438 Q80.1313,71.5625 82.2875,71.5625 Q82.8031,71.5625 83.3344,71.7031 Q83.7719,71.8906 84.0219,71.8906 Q84.2094,71.8906 84.3031,71.8594 Q84.3969,71.8125 84.9438,71.0938 L85.7563,75.0625 L84.7094,75.375 Q84.2563,73.875 83.6625,73.2969 Q83.0844,72.7031 82.1625,72.7031 Q80.9906,72.7031 80.2875,74.1094 Q79.5844,75.5 79.5844,77.6719 Q79.5844,80.0625 80.1781,81.3281 Q80.7875,82.5781 82.1,82.5781 Q83.0219,82.5781 83.6938,81.9063 Q84.3656,81.2188 84.6938,79.6406 L85.7406,80.1406 Q85.3344,81.9063 84.35,82.8906 Q83.3656,83.8594 82.0219,83.8594 Z "/><text fill="#000000" font-family="sans-serif" font-size="12" lengthAdjust="spacingAndGlyphs" textLength="27" x="102.4" y="83.5576">Main</text><line style="stroke: #A80036; stroke-width: 1.5;" x1="42.5" x2="157.5" y1="94" y2="94"/><line style="stroke: #A80036; stroke-width: 1.5;" x1="42.5" x2="157.5" y1="102" y2="102"/><ellipse cx="52.5" cy="115.0115" fill="#84BE84" rx="3" ry="3" style="stroke: #038048; stroke-width: 1.0;"/><text fill="#000000" font-family="sans-serif" font-size="11" lengthAdjust="spacingAndGlyphs" text-decoration="underline" textLength="91" x="61.5" y="118.606">main(String[]): void</text></a><text fill="#888888" font-family="sans-serif" font-size="10" lengthAdjust="spacingAndGlyphs" textLength="185" x="14" y="178.46">UMLDoclet 2.0.10, PlantUML 1.2019.08</text><!--
@startuml
    namespace edu.guyi.bbtan.main {

        class Main [[Main.html]] {
            {static} +main(String[]): void
        }

    }

    center footer UMLDoclet 2.0.10, PlantUML 1.2019.08
@enduml

PlantUML version 1.2019.08(Sun Jul 14 03:25:14 CST 2019)
(APACHE source distribution)
Java Runtime: OpenJDK Runtime Environment
JVM: OpenJDK 64-Bit Server VM
Java Version: 9+181
Operating System: Windows 10
OS Version: 10.0
Default Encoding: GBK
Language: zh
Country: CN
--></g></svg>