<?xml version="1.0" encoding="UTF-8" standalone="no"?><svg xmlns="http://www.w3.org/2000/svg" xmlns:xlink="http://www.w3.org/1999/xlink" contentScriptType="application/ecmascript" contentStyleType="text/css" height="191px" preserveAspectRatio="none" style="width:209px;height:191px;" version="1.1" viewBox="0 0 209 191" width="209px" zoomAndPan="magnify"><defs><filter height="300%" id="fatv0ipzbq7uv" width="300%" x="-1" y="-1"><feGaussianBlur result="blurOut" stdDeviation="2.0"/><feColorMatrix in="blurOut" result="blurOut2" type="matrix" values="0 0 0 0 0 0 0 0 0 0 0 0 0 0 0 0 0 0 .4 0"/><feOffset dx="4.0" dy="4.0" in="blurOut2" result="blurOut3"/><feBlend in="SourceGraphic" in2="blurOut3" mode="normal"/></filter></defs><g><!--cluster edu.guyi.bbtan.bgm--><polygon fill="#FFFFFF" filter="url(#fatv0ipzbq7uv)" points="22,24,166,24,173,49.1201,176,49.1201,176,141,22,141,22,24" style="stroke: #000000; stroke-width: 1.5;"/><line style="stroke: #000000; stroke-width: 1.5;" x1="22" x2="173" y1="49.1201" y2="49.1201"/><text fill="#000000" font-family="sans-serif" font-size="14" font-weight="bold" lengthAdjust="spacingAndGlyphs" textLength="138" x="26" y="42.0439">edu.guyi.bbtan.bgm</text><!--class edu.guyi.bbtan.bgm.Music--><a href="Music.html" target="_top" xlink:actuate="onRequest" xlink:show="new" xlink:title="Music.html" xlink:type="simple"><rect fill="#FEFECE" filter="url(#fatv0ipzbq7uv)" height="63.0229" id="edu.guyi.bbtan.bgm.Music" style="stroke: #A80036; stroke-width: 1.5;" width="109" x="44.5" y="62"/><ellipse cx="79.75" cy="78" fill="#ADD1B2" rx="11" ry="11" style="stroke: #A80036; stroke-width: 1.0;"/><path d="M79.1719,83.8594 Q77.1406,83.8594 75.9531,82.3594 Q74.7813,80.8594 74.7813,77.75 Q74.7813,75.1094 76.0313,73.3438 Q77.2813,71.5625 79.4375,71.5625 Q79.9531,71.5625 80.4844,71.7031 Q80.9219,71.8906 81.1719,71.8906 Q81.3594,71.8906 81.4531,71.8594 Q81.5469,71.8125 82.0938,71.0938 L82.9063,75.0625 L81.8594,75.375 Q81.4063,73.875 80.8125,73.2969 Q80.2344,72.7031 79.3125,72.7031 Q78.1406,72.7031 77.4375,74.1094 Q76.7344,75.5 76.7344,77.6719 Q76.7344,80.0625 77.3281,81.3281 Q77.9375,82.5781 79.25,82.5781 Q80.1719,82.5781 80.8438,81.9063 Q81.5156,81.2188 81.8438,79.6406 L82.8906,80.1406 Q82.4844,81.9063 81.5,82.8906 Q80.5156,83.8594 79.1719,83.8594 Z "/><text fill="#000000" font-family="sans-serif" font-size="12" lengthAdjust="spacingAndGlyphs" textLength="32" x="98.25" y="83.5576">Music</text><line style="stroke: #A80036; stroke-width: 1.5;" x1="45.5" x2="152.5" y1="94" y2="94"/><line style="stroke: #A80036; stroke-width: 1.5;" x1="45.5" x2="152.5" y1="102" y2="102"/><ellipse cx="55.5" cy="115.0115" fill="#84BE84" rx="3" ry="3" style="stroke: #038048; stroke-width: 1.0;"/><text fill="#000000" font-family="sans-serif" font-size="11" lengthAdjust="spacingAndGlyphs" textLength="83" x="64.5" y="118.606">playMusic(): void</text></a><text fill="#888888" font-family="sans-serif" font-size="10" lengthAdjust="spacingAndGlyphs" textLength="185" x="12.5" y="178.46">UMLDoclet 2.0.10, PlantUML 1.2019.08</text><!--
@startuml
    namespace edu.guyi.bbtan.bgm {

        class Music [[Music.html]] {
            +playMusic(): void
        }

    }

    center footer UMLDoclet 2.0.10, PlantUML 1.2019.08
@enduml

PlantUML version 1.2019.08(Sun Jul 14 03:25:14 CST 2019)
(APACHE source distribution)
Java Runtime: OpenJDK Runtime Environment
JVM: OpenJDK 64-Bit Server VM
Java Version: 9+181
Operating System: Windows 10
OS Version: 10.0
Default Encoding: GBK
Language: zh
Country: CN
--></g></svg>