<?xml version="1.0" encoding="UTF-8" standalone="no"?><svg xmlns="http://www.w3.org/2000/svg" xmlns:xlink="http://www.w3.org/1999/xlink" contentScriptType="application/ecmascript" contentStyleType="text/css" height="341px" preserveAspectRatio="none" style="width:257px;height:341px;" version="1.1" viewBox="0 0 257 341" width="257px" zoomAndPan="magnify"><defs><filter height="300%" id="fetyqy0qkwm7" width="300%" x="-1" y="-1"><feGaussianBlur result="blurOut" stdDeviation="2.0"/><feColorMatrix in="blurOut" result="blurOut2" type="matrix" values="0 0 0 0 0 0 0 0 0 0 0 0 0 0 0 0 0 0 .4 0"/><feOffset dx="4.0" dy="4.0" in="blurOut2" result="blurOut3"/><feBlend in="SourceGraphic" in2="blurOut3" mode="normal"/></filter></defs><g><!--class edu.guyi.bbtan.gamedata.GameData--><a href="GameData.html" target="_top" xlink:actuate="onRequest" xlink:show="new" xlink:title="GameData.html" xlink:type="simple"><rect fill="#FEFECE" filter="url(#fetyqy0qkwm7)" height="299.1445" id="edu.guyi.bbtan.gamedata.GameData" style="stroke: #A80036; stroke-width: 1.5;" width="240" x="6" y="8"/><ellipse cx="61.75" cy="29.3887" fill="#ADD1B2" rx="11" ry="11" style="stroke: #A80036; stroke-width: 1.0;"/><path d="M61.1719,35.248 Q59.1406,35.248 57.9531,33.748 Q56.7813,32.248 56.7813,29.1387 Q56.7813,26.498 58.0313,24.7324 Q59.2813,22.9512 61.4375,22.9512 Q61.9531,22.9512 62.4844,23.0918 Q62.9219,23.2793 63.1719,23.2793 Q63.3594,23.2793 63.4531,23.248 Q63.5469,23.2012 64.0938,22.4824 L64.9063,26.4512 L63.8594,26.7637 Q63.4063,25.2637 62.8125,24.6855 Q62.2344,24.0918 61.3125,24.0918 Q60.1406,24.0918 59.4375,25.498 Q58.7344,26.8887 58.7344,29.0605 Q58.7344,31.4512 59.3281,32.7168 Q59.9375,33.9668 61.25,33.9668 Q62.1719,33.9668 62.8438,33.2949 Q63.5156,32.6074 63.8438,31.0293 L64.8906,31.5293 Q64.4844,33.2949 63.5,34.2793 Q62.5156,35.248 61.1719,35.248 Z "/><text fill="#000000" font-family="sans-serif" font-size="14" lengthAdjust="spacingAndGlyphs" textLength="69" x="107.75" y="29.0439">GameData</text><text fill="#000000" font-family="sans-serif" font-size="10" lengthAdjust="spacingAndGlyphs" textLength="120" x="82.25" y="43.5801">edu.guyi.bbtan.gamedata</text><line style="stroke: #A80036; stroke-width: 1.5;" x1="7" x2="245" y1="50.7773" y2="50.7773"/><ellipse cx="17" cy="63.7888" fill="none" rx="3" ry="3" style="stroke: #038048; stroke-width: 1.0;"/><text fill="#000000" font-family="sans-serif" font-size="11" lengthAdjust="spacingAndGlyphs" textLength="108" x="26" y="67.3833">IsGameOver: boolean</text><ellipse cx="17" cy="78.8118" fill="none" rx="3" ry="3" style="stroke: #038048; stroke-width: 1.0;"/><text fill="#000000" font-family="sans-serif" font-size="11" lengthAdjust="spacingAndGlyphs" text-decoration="underline" textLength="59" x="26" y="82.4063">xCoord: int[]</text><ellipse cx="17" cy="93.8347" fill="none" rx="3" ry="3" style="stroke: #038048; stroke-width: 1.0;"/><text fill="#000000" font-family="sans-serif" font-size="11" lengthAdjust="spacingAndGlyphs" text-decoration="underline" textLength="59" x="26" y="97.4292">yCoord: int[]</text><ellipse cx="17" cy="108.8577" fill="none" rx="3" ry="3" style="stroke: #038048; stroke-width: 1.0;"/><text fill="#000000" font-family="sans-serif" font-size="11" lengthAdjust="spacingAndGlyphs" textLength="91" x="26" y="112.4521">showTool: boolean</text><line style="stroke: #A80036; stroke-width: 1.5;" x1="7" x2="245" y1="118.8691" y2="118.8691"/><ellipse cx="17" cy="131.8806" fill="#84BE84" rx="3" ry="3" style="stroke: #038048; stroke-width: 1.0;"/><text fill="#000000" font-family="sans-serif" font-size="11" lengthAdjust="spacingAndGlyphs" textLength="116" x="26" y="135.4751">genBoundingBox(): void</text><ellipse cx="17" cy="146.9036" fill="#84BE84" rx="3" ry="3" style="stroke: #038048; stroke-width: 1.0;"/><text fill="#000000" font-family="sans-serif" font-size="11" lengthAdjust="spacingAndGlyphs" textLength="59" x="26" y="150.498">reset(): void</text><ellipse cx="17" cy="161.9265" fill="#84BE84" rx="3" ry="3" style="stroke: #038048; stroke-width: 1.0;"/><text fill="#000000" font-family="sans-serif" font-size="11" lengthAdjust="spacingAndGlyphs" textLength="61" x="26" y="165.521">boom(): void</text><ellipse cx="17" cy="176.9495" fill="#84BE84" rx="3" ry="3" style="stroke: #038048; stroke-width: 1.0;"/><text fill="#000000" font-family="sans-serif" font-size="11" lengthAdjust="spacingAndGlyphs" textLength="69" x="26" y="180.5439">addBall(): void</text><ellipse cx="17" cy="191.9724" fill="#84BE84" rx="3" ry="3" style="stroke: #038048; stroke-width: 1.0;"/><text fill="#000000" font-family="sans-serif" font-size="11" lengthAdjust="spacingAndGlyphs" textLength="94" x="26" y="195.5669">EnhanceBall(): void</text><ellipse cx="17" cy="206.9954" fill="#84BE84" rx="3" ry="3" style="stroke: #038048; stroke-width: 1.0;"/><text fill="#000000" font-family="sans-serif" font-size="11" lengthAdjust="spacingAndGlyphs" textLength="138" x="26" y="210.5898">ActivateTimeMachine(): void</text><ellipse cx="17" cy="222.0183" fill="#84BE84" rx="3" ry="3" style="stroke: #038048; stroke-width: 1.0;"/><text fill="#000000" font-family="sans-serif" font-size="11" lengthAdjust="spacingAndGlyphs" textLength="101" x="26" y="225.6128">startBall(int, int): void</text><ellipse cx="17" cy="237.0413" fill="#84BE84" rx="3" ry="3" style="stroke: #038048; stroke-width: 1.0;"/><text fill="#000000" font-family="sans-serif" font-size="11" lengthAdjust="spacingAndGlyphs" textLength="151" x="26" y="240.6357">resetTimeOfLastUpdate(): void</text><ellipse cx="17" cy="252.0642" fill="#84BE84" rx="3" ry="3" style="stroke: #038048; stroke-width: 1.0;"/><text fill="#000000" font-family="sans-serif" font-size="11" lengthAdjust="spacingAndGlyphs" textLength="214" x="26" y="255.6587">getCurrentWaitTimeBetweenUpdates(): long</text><ellipse cx="17" cy="267.0872" fill="#84BE84" rx="3" ry="3" style="stroke: #038048; stroke-width: 1.0;"/><text fill="#000000" font-family="sans-serif" font-size="11" lengthAdjust="spacingAndGlyphs" textLength="90" x="26" y="270.6816">updateData(): void</text><ellipse cx="17" cy="282.1101" fill="#84BE84" rx="3" ry="3" style="stroke: #038048; stroke-width: 1.0;"/><text fill="#000000" font-family="sans-serif" font-size="11" lengthAdjust="spacingAndGlyphs" textLength="84" x="26" y="285.7046">IsValid(): boolean</text><ellipse cx="17" cy="297.1331" fill="#84BE84" rx="3" ry="3" style="stroke: #038048; stroke-width: 1.0;"/><text fill="#000000" font-family="sans-serif" font-size="11" lengthAdjust="spacingAndGlyphs" textLength="204" x="26" y="300.7275">drawGameData(Graphics2D, int, int): void</text></a><text fill="#888888" font-family="sans-serif" font-size="10" lengthAdjust="spacingAndGlyphs" textLength="185" x="39.5" y="328.46">UMLDoclet 2.0.10, PlantUML 1.2019.08</text><!--
@startuml
    set namespaceSeparator none
    hide empty fields
    hide empty methods

    class "<size:14>GameData\n<size:10>edu.guyi.bbtan.gamedata" as edu.guyi.bbtan.gamedata.GameData [[GameData.html]] {
        +IsGameOver: boolean
        {static} +xCoord: int[]
        {static} +yCoord: int[]
        +showTool: boolean
        +genBoundingBox(): void
        +reset(): void
        +boom(): void
        +addBall(): void
        +EnhanceBall(): void
        +ActivateTimeMachine(): void
        +startBall(int, int): void
        +resetTimeOfLastUpdate(): void
        +getCurrentWaitTimeBetweenUpdates(): long
        +updateData(): void
        +IsValid(): boolean
        +drawGameData(Graphics2D, int, int): void
    }

    center footer UMLDoclet 2.0.10, PlantUML 1.2019.08
@enduml

PlantUML version 1.2019.08(Sun Jul 14 03:25:14 CST 2019)
(APACHE source distribution)
Java Runtime: OpenJDK Runtime Environment
JVM: OpenJDK 64-Bit Server VM
Java Version: 9+181
Operating System: Windows 10
OS Version: 10.0
Default Encoding: GBK
Language: zh
Country: CN
--></g></svg>