<?xml version="1.0" encoding="UTF-8" standalone="no"?><svg xmlns="http://www.w3.org/2000/svg" xmlns:xlink="http://www.w3.org/1999/xlink" contentScriptType="application/ecmascript" contentStyleType="text/css" height="416px" preserveAspectRatio="none" style="width:316px;height:416px;" version="1.1" viewBox="0 0 316 416" width="316px" zoomAndPan="magnify"><defs><filter height="300%" id="f9e6ji1mrj1sy" width="300%" x="-1" y="-1"><feGaussianBlur result="blurOut" stdDeviation="2.0"/><feColorMatrix in="blurOut" result="blurOut2" type="matrix" values="0 0 0 0 0 0 0 0 0 0 0 0 0 0 0 0 0 0 .4 0"/><feOffset dx="4.0" dy="4.0" in="blurOut2" result="blurOut3"/><feBlend in="SourceGraphic" in2="blurOut3" mode="normal"/></filter></defs><g><!--cluster edu.guyi.bbtan.gamedata--><polygon fill="#FFFFFF" filter="url(#f9e6ji1mrj1sy)" points="22,24,203,24,210,49.1201,294,49.1201,294,366,22,366,22,24" style="stroke: #000000; stroke-width: 1.5;"/><line style="stroke: #000000; stroke-width: 1.5;" x1="22" x2="210" y1="49.1201" y2="49.1201"/><text fill="#000000" font-family="sans-serif" font-size="14" font-weight="bold" lengthAdjust="spacingAndGlyphs" textLength="175" x="26" y="42.0439">edu.guyi.bbtan.gamedata</text><!--class edu.guyi.bbtan.gamedata.GameData--><a href="GameData.html" target="_top" xlink:actuate="onRequest" xlink:show="new" xlink:title="GameData.html" xlink:type="simple"><rect fill="#FEFECE" filter="url(#f9e6ji1mrj1sy)" height="288.3672" id="edu.guyi.bbtan.gamedata.GameData" style="stroke: #A80036; stroke-width: 1.5;" width="240" x="38" y="62"/><ellipse cx="124.25" cy="78" fill="#ADD1B2" rx="11" ry="11" style="stroke: #A80036; stroke-width: 1.0;"/><path d="M123.6719,83.8594 Q121.6406,83.8594 120.4531,82.3594 Q119.2813,80.8594 119.2813,77.75 Q119.2813,75.1094 120.5313,73.3438 Q121.7813,71.5625 123.9375,71.5625 Q124.4531,71.5625 124.9844,71.7031 Q125.4219,71.8906 125.6719,71.8906 Q125.8594,71.8906 125.9531,71.8594 Q126.0469,71.8125 126.5938,71.0938 L127.4063,75.0625 L126.3594,75.375 Q125.9063,73.875 125.3125,73.2969 Q124.7344,72.7031 123.8125,72.7031 Q122.6406,72.7031 121.9375,74.1094 Q121.2344,75.5 121.2344,77.6719 Q121.2344,80.0625 121.8281,81.3281 Q122.4375,82.5781 123.75,82.5781 Q124.6719,82.5781 125.3438,81.9063 Q126.0156,81.2188 126.3438,79.6406 L127.3906,80.1406 Q126.9844,81.9063 126,82.8906 Q125.0156,83.8594 123.6719,83.8594 Z "/><text fill="#000000" font-family="sans-serif" font-size="12" lengthAdjust="spacingAndGlyphs" textLength="59" x="144.75" y="83.5576">GameData</text><line style="stroke: #A80036; stroke-width: 1.5;" x1="39" x2="277" y1="94" y2="94"/><ellipse cx="49" cy="107.0115" fill="none" rx="3" ry="3" style="stroke: #038048; stroke-width: 1.0;"/><text fill="#000000" font-family="sans-serif" font-size="11" lengthAdjust="spacingAndGlyphs" textLength="108" x="58" y="110.606">IsGameOver: boolean</text><ellipse cx="49" cy="122.0344" fill="none" rx="3" ry="3" style="stroke: #038048; stroke-width: 1.0;"/><text fill="#000000" font-family="sans-serif" font-size="11" lengthAdjust="spacingAndGlyphs" text-decoration="underline" textLength="59" x="58" y="125.6289">xCoord: int[]</text><ellipse cx="49" cy="137.0574" fill="none" rx="3" ry="3" style="stroke: #038048; stroke-width: 1.0;"/><text fill="#000000" font-family="sans-serif" font-size="11" lengthAdjust="spacingAndGlyphs" text-decoration="underline" textLength="59" x="58" y="140.6519">yCoord: int[]</text><ellipse cx="49" cy="152.0803" fill="none" rx="3" ry="3" style="stroke: #038048; stroke-width: 1.0;"/><text fill="#000000" font-family="sans-serif" font-size="11" lengthAdjust="spacingAndGlyphs" textLength="91" x="58" y="155.6748">showTool: boolean</text><line style="stroke: #A80036; stroke-width: 1.5;" x1="39" x2="277" y1="162.0918" y2="162.0918"/><ellipse cx="49" cy="175.1033" fill="#84BE84" rx="3" ry="3" style="stroke: #038048; stroke-width: 1.0;"/><text fill="#000000" font-family="sans-serif" font-size="11" lengthAdjust="spacingAndGlyphs" textLength="116" x="58" y="178.6978">genBoundingBox(): void</text><ellipse cx="49" cy="190.1262" fill="#84BE84" rx="3" ry="3" style="stroke: #038048; stroke-width: 1.0;"/><text fill="#000000" font-family="sans-serif" font-size="11" lengthAdjust="spacingAndGlyphs" textLength="59" x="58" y="193.7207">reset(): void</text><ellipse cx="49" cy="205.1492" fill="#84BE84" rx="3" ry="3" style="stroke: #038048; stroke-width: 1.0;"/><text fill="#000000" font-family="sans-serif" font-size="11" lengthAdjust="spacingAndGlyphs" textLength="61" x="58" y="208.7437">boom(): void</text><ellipse cx="49" cy="220.1721" fill="#84BE84" rx="3" ry="3" style="stroke: #038048; stroke-width: 1.0;"/><text fill="#000000" font-family="sans-serif" font-size="11" lengthAdjust="spacingAndGlyphs" textLength="69" x="58" y="223.7666">addBall(): void</text><ellipse cx="49" cy="235.1951" fill="#84BE84" rx="3" ry="3" style="stroke: #038048; stroke-width: 1.0;"/><text fill="#000000" font-family="sans-serif" font-size="11" lengthAdjust="spacingAndGlyphs" textLength="94" x="58" y="238.7896">EnhanceBall(): void</text><ellipse cx="49" cy="250.218" fill="#84BE84" rx="3" ry="3" style="stroke: #038048; stroke-width: 1.0;"/><text fill="#000000" font-family="sans-serif" font-size="11" lengthAdjust="spacingAndGlyphs" textLength="138" x="58" y="253.8125">ActivateTimeMachine(): void</text><ellipse cx="49" cy="265.241" fill="#84BE84" rx="3" ry="3" style="stroke: #038048; stroke-width: 1.0;"/><text fill="#000000" font-family="sans-serif" font-size="11" lengthAdjust="spacingAndGlyphs" textLength="101" x="58" y="268.8354">startBall(int, int): void</text><ellipse cx="49" cy="280.2639" fill="#84BE84" rx="3" ry="3" style="stroke: #038048; stroke-width: 1.0;"/><text fill="#000000" font-family="sans-serif" font-size="11" lengthAdjust="spacingAndGlyphs" textLength="151" x="58" y="283.8584">resetTimeOfLastUpdate(): void</text><ellipse cx="49" cy="295.2869" fill="#84BE84" rx="3" ry="3" style="stroke: #038048; stroke-width: 1.0;"/><text fill="#000000" font-family="sans-serif" font-size="11" lengthAdjust="spacingAndGlyphs" textLength="214" x="58" y="298.8813">getCurrentWaitTimeBetweenUpdates(): long</text><ellipse cx="49" cy="310.3098" fill="#84BE84" rx="3" ry="3" style="stroke: #038048; stroke-width: 1.0;"/><text fill="#000000" font-family="sans-serif" font-size="11" lengthAdjust="spacingAndGlyphs" textLength="90" x="58" y="313.9043">updateData(): void</text><ellipse cx="49" cy="325.3328" fill="#84BE84" rx="3" ry="3" style="stroke: #038048; stroke-width: 1.0;"/><text fill="#000000" font-family="sans-serif" font-size="11" lengthAdjust="spacingAndGlyphs" textLength="84" x="58" y="328.9272">IsValid(): boolean</text><ellipse cx="49" cy="340.3557" fill="#84BE84" rx="3" ry="3" style="stroke: #038048; stroke-width: 1.0;"/><text fill="#000000" font-family="sans-serif" font-size="11" lengthAdjust="spacingAndGlyphs" textLength="204" x="58" y="343.9502">drawGameData(Graphics2D, int, int): void</text></a><text fill="#888888" font-family="sans-serif" font-size="10" lengthAdjust="spacingAndGlyphs" textLength="185" x="71.5" y="403.46">UMLDoclet 2.0.10, PlantUML 1.2019.08</text><!--
@startuml
    namespace edu.guyi.bbtan.gamedata {

        class GameData [[GameData.html]] {
            +IsGameOver: boolean
            {static} +xCoord: int[]
            {static} +yCoord: int[]
            +showTool: boolean
            +genBoundingBox(): void
            +reset(): void
            +boom(): void
            +addBall(): void
            +EnhanceBall(): void
            +ActivateTimeMachine(): void
            +startBall(int, int): void
            +resetTimeOfLastUpdate(): void
            +getCurrentWaitTimeBetweenUpdates(): long
            +updateData(): void
            +IsValid(): boolean
            +drawGameData(Graphics2D, int, int): void
        }

    }

    center footer UMLDoclet 2.0.10, PlantUML 1.2019.08
@enduml

PlantUML version 1.2019.08(Sun Jul 14 03:25:14 CST 2019)
(APACHE source distribution)
Java Runtime: OpenJDK Runtime Environment
JVM: OpenJDK 64-Bit Server VM
Java Version: 9+181
Operating System: Windows 10
OS Version: 10.0
Default Encoding: GBK
Language: zh
Country: CN
--></g></svg>