<?xml version="1.0" encoding="UTF-8" standalone="no"?><svg xmlns="http://www.w3.org/2000/svg" xmlns:xlink="http://www.w3.org/1999/xlink" contentScriptType="application/ecmascript" contentStyleType="text/css" height="211px" preserveAspectRatio="none" style="width:197px;height:211px;" version="1.1" viewBox="0 0 197 211" width="197px" zoomAndPan="magnify"><defs><filter height="300%" id="f3vw291ifptk9" width="300%" x="-1" y="-1"><feGaussianBlur result="blurOut" stdDeviation="2.0"/><feColorMatrix in="blurOut" result="blurOut2" type="matrix" values="0 0 0 0 0 0 0 0 0 0 0 0 0 0 0 0 0 0 .4 0"/><feOffset dx="4.0" dy="4.0" in="blurOut2" result="blurOut3"/><feBlend in="SourceGraphic" in2="blurOut3" mode="normal"/></filter></defs><g><!--class edu.guyi.bbtan.view.GamePanel--><a href="GamePanel.html" target="_top" xlink:actuate="onRequest" xlink:show="new" xlink:title="GamePanel.html" xlink:type="simple"><rect fill="#FEFECE" filter="url(#f3vw291ifptk9)" height="65.8003" id="edu.guyi.bbtan.view.GamePanel" style="stroke: #A80036; stroke-width: 1.5;" width="144" x="14.5" y="111"/><ellipse cx="38.05" cy="132.3887" fill="#ADD1B2" rx="11" ry="11" style="stroke: #A80036; stroke-width: 1.0;"/><path d="M37.4719,138.248 Q35.4406,138.248 34.2531,136.748 Q33.0813,135.248 33.0813,132.1387 Q33.0813,129.498 34.3313,127.7324 Q35.5813,125.9512 37.7375,125.9512 Q38.2531,125.9512 38.7844,126.0918 Q39.2219,126.2793 39.4719,126.2793 Q39.6594,126.2793 39.7531,126.248 Q39.8469,126.2012 40.3938,125.4824 L41.2063,129.4512 L40.1594,129.7637 Q39.7063,128.2637 39.1125,127.6855 Q38.5344,127.0918 37.6125,127.0918 Q36.4406,127.0918 35.7375,128.498 Q35.0344,129.8887 35.0344,132.0605 Q35.0344,134.4512 35.6281,135.7168 Q36.2375,136.9668 37.55,136.9668 Q38.4719,136.9668 39.1438,136.2949 Q39.8156,135.6074 40.1438,134.0293 L41.1906,134.5293 Q40.7844,136.2949 39.8,137.2793 Q38.8156,138.248 37.4719,138.248 Z "/><text fill="#000000" font-family="sans-serif" font-size="14" lengthAdjust="spacingAndGlyphs" textLength="75" x="62.95" y="132.0439">GamePanel</text><text fill="#000000" font-family="sans-serif" font-size="10" lengthAdjust="spacingAndGlyphs" textLength="93" x="53.95" y="146.5801">edu.guyi.bbtan.view</text><line style="stroke: #A80036; stroke-width: 1.5;" x1="15.5" x2="157.5" y1="153.7773" y2="153.7773"/><ellipse cx="25.5" cy="166.7888" fill="#84BE84" rx="3" ry="3" style="stroke: #038048; stroke-width: 1.0;"/><text fill="#000000" font-family="sans-serif" font-size="11" lengthAdjust="spacingAndGlyphs" textLength="118" x="34.5" y="170.3833">GamePanel(GameData)</text></a><!--class javax.swing.JPanel--><rect fill="#FEFECE" filter="url(#f3vw291ifptk9)" height="42.7773" id="javax.swing.JPanel" style="stroke: #A80036; stroke-width: 1.5;" width="85" x="44" y="8"/><ellipse cx="59" cy="29.3887" fill="#ADD1B2" rx="11" ry="11" style="stroke: #A80036; stroke-width: 1.0;"/><path d="M58.4219,35.248 Q56.3906,35.248 55.2031,33.748 Q54.0313,32.248 54.0313,29.1387 Q54.0313,26.498 55.2813,24.7324 Q56.5313,22.9512 58.6875,22.9512 Q59.2031,22.9512 59.7344,23.0918 Q60.1719,23.2793 60.4219,23.2793 Q60.6094,23.2793 60.7031,23.248 Q60.7969,23.2012 61.3438,22.4824 L62.1563,26.4512 L61.1094,26.7637 Q60.6563,25.2637 60.0625,24.6855 Q59.4844,24.0918 58.5625,24.0918 Q57.3906,24.0918 56.6875,25.498 Q55.9844,26.8887 55.9844,29.0605 Q55.9844,31.4512 56.5781,32.7168 Q57.1875,33.9668 58.5,33.9668 Q59.4219,33.9668 60.0938,33.2949 Q60.7656,32.6074 61.0938,31.0293 L62.1406,31.5293 Q61.7344,33.2949 60.75,34.2793 Q59.7656,35.248 58.4219,35.248 Z "/><text fill="#000000" font-family="sans-serif" font-size="14" lengthAdjust="spacingAndGlyphs" textLength="43" x="78" y="29.0439">JPanel</text><text fill="#000000" font-family="sans-serif" font-size="10" lengthAdjust="spacingAndGlyphs" textLength="53" x="73" y="43.5801">javax.swing</text><!--link javax.swing.JPanel to edu.guyi.bbtan.view.GamePanel--><path d="M86.5,71.25 C86.5,84.18 86.5,98.3 86.5,110.57 " fill="none" id="javax.swing.JPanel-edu.guyi.bbtan.view.GamePanel" style="stroke: #A80036; stroke-width: 1.0;"/><polygon fill="none" points="79.5,71.13,86.5,51.13,93.5,71.13,79.5,71.13" style="stroke: #A80036; stroke-width: 1.0;"/><text fill="#888888" font-family="sans-serif" font-size="10" lengthAdjust="spacingAndGlyphs" textLength="185" x="0" y="198.46">UMLDoclet 2.0.10, PlantUML 1.2019.08</text><!--
@startuml
    set namespaceSeparator none
    hide empty fields
    hide empty methods

    class "<size:14>GamePanel\n<size:10>edu.guyi.bbtan.view" as edu.guyi.bbtan.view.GamePanel [[GamePanel.html]] {
        +GamePanel(GameData)
    }

    class "<size:14>JPanel\n<size:10>javax.swing" as javax.swing.JPanel

    javax.swing.JPanel <|- - edu.guyi.bbtan.view.GamePanel

    center footer UMLDoclet 2.0.10, PlantUML 1.2019.08
@enduml

PlantUML version 1.2019.08(Sun Jul 14 03:25:14 CST 2019)
(APACHE source distribution)
Java Runtime: OpenJDK Runtime Environment
JVM: OpenJDK 64-Bit Server VM
Java Version: 9+181
Operating System: Windows 10
OS Version: 10.0
Default Encoding: GBK
Language: zh
Country: CN
--></g></svg>