<?xml version="1.0" encoding="UTF-8" standalone="no"?><svg xmlns="http://www.w3.org/2000/svg" xmlns:xlink="http://www.w3.org/1999/xlink" contentScriptType="application/ecmascript" contentStyleType="text/css" height="332px" preserveAspectRatio="none" style="width:335px;height:332px;" version="1.1" viewBox="0 0 335 332" width="335px" zoomAndPan="magnify"><defs><filter height="300%" id="fzafhwmq7wm4j" width="300%" x="-1" y="-1"><feGaussianBlur result="blurOut" stdDeviation="2.0"/><feColorMatrix in="blurOut" result="blurOut2" type="matrix" values="0 0 0 0 0 0 0 0 0 0 0 0 0 0 0 0 0 0 .4 0"/><feOffset dx="4.0" dy="4.0" in="blurOut2" result="blurOut3"/><feBlend in="SourceGraphic" in2="blurOut3" mode="normal"/></filter></defs><g><!--class edu.guyi.bbtan.view.MainWindowView--><a href="MainWindowView.html" target="_top" xlink:actuate="onRequest" xlink:show="new" xlink:title="MainWindowView.html" xlink:type="simple"><rect fill="#FEFECE" filter="url(#fzafhwmq7wm4j)" height="163.938" id="edu.guyi.bbtan.view.MainWindowView" style="stroke: #A80036; stroke-width: 1.5;" width="198" x="37.5" y="134"/><ellipse cx="77.25" cy="155.3887" fill="#ADD1B2" rx="11" ry="11" style="stroke: #A80036; stroke-width: 1.0;"/><path d="M76.6719,161.248 Q74.6406,161.248 73.4531,159.748 Q72.2813,158.248 72.2813,155.1387 Q72.2813,152.498 73.5313,150.7324 Q74.7813,148.9512 76.9375,148.9512 Q77.4531,148.9512 77.9844,149.0918 Q78.4219,149.2793 78.6719,149.2793 Q78.8594,149.2793 78.9531,149.248 Q79.0469,149.2012 79.5938,148.4824 L80.4063,152.4512 L79.3594,152.7637 Q78.9063,151.2637 78.3125,150.6855 Q77.7344,150.0918 76.8125,150.0918 Q75.6406,150.0918 74.9375,151.498 Q74.2344,152.8887 74.2344,155.0605 Q74.2344,157.4512 74.8281,158.7168 Q75.4375,159.9668 76.75,159.9668 Q77.6719,159.9668 78.3438,159.2949 Q79.0156,158.6074 79.3438,157.0293 L80.3906,157.5293 Q79.9844,159.2949 79,160.2793 Q78.0156,161.248 76.6719,161.248 Z "/><text fill="#000000" font-family="sans-serif" font-size="14" lengthAdjust="spacingAndGlyphs" textLength="111" x="96.75" y="155.0439">MainWindowView</text><text fill="#000000" font-family="sans-serif" font-size="10" lengthAdjust="spacingAndGlyphs" textLength="93" x="105.75" y="169.5801">edu.guyi.bbtan.view</text><line style="stroke: #A80036; stroke-width: 1.5;" x1="38.5" x2="234.5" y1="176.7773" y2="176.7773"/><ellipse cx="48.5" cy="189.7888" fill="none" rx="3" ry="3" style="stroke: #038048; stroke-width: 1.0;"/><text fill="#000000" font-family="sans-serif" font-size="11" lengthAdjust="spacingAndGlyphs" textLength="95" x="57.5" y="193.3833">startGame: JButton</text><ellipse cx="48.5" cy="204.8118" fill="none" rx="3" ry="3" style="stroke: #038048; stroke-width: 1.0;"/><text fill="#000000" font-family="sans-serif" font-size="11" lengthAdjust="spacingAndGlyphs" textLength="100" x="57.5" y="208.4063">contentPane: JPanel</text><ellipse cx="48.5" cy="219.8347" fill="none" rx="3" ry="3" style="stroke: #038048; stroke-width: 1.0;"/><text fill="#000000" font-family="sans-serif" font-size="11" lengthAdjust="spacingAndGlyphs" textLength="89" x="57.5" y="223.4292">mainPanel: JPanel</text><ellipse cx="48.5" cy="234.8577" fill="none" rx="3" ry="3" style="stroke: #038048; stroke-width: 1.0;"/><text fill="#000000" font-family="sans-serif" font-size="11" lengthAdjust="spacingAndGlyphs" textLength="128" x="57.5" y="238.4521">gameControlPanel: JPanel</text><ellipse cx="48.5" cy="249.8806" fill="none" rx="3" ry="3" style="stroke: #038048; stroke-width: 1.0;"/><text fill="#000000" font-family="sans-serif" font-size="11" lengthAdjust="spacingAndGlyphs" textLength="93" x="57.5" y="253.4751">gamePanel: JPanel</text><line style="stroke: #A80036; stroke-width: 1.5;" x1="38.5" x2="234.5" y1="259.8921" y2="259.8921"/><ellipse cx="48.5" cy="272.9036" fill="#84BE84" rx="3" ry="3" style="stroke: #038048; stroke-width: 1.0;"/><text fill="#000000" font-family="sans-serif" font-size="11" lengthAdjust="spacingAndGlyphs" textLength="172" x="57.5" y="276.498">actionPerformed(ActionEvent): void</text><ellipse cx="48.5" cy="287.9265" fill="#84BE84" rx="3" ry="3" style="stroke: #038048; stroke-width: 1.0;"/><text fill="#000000" font-family="sans-serif" font-size="11" lengthAdjust="spacingAndGlyphs" textLength="56" x="57.5" y="291.521">start(): void</text></a><!--class javax.swing.JFrame--><rect fill="#FEFECE" filter="url(#fzafhwmq7wm4j)" height="42.7773" id="javax.swing.JFrame" style="stroke: #A80036; stroke-width: 1.5;" width="85" x="6" y="19.5"/><ellipse cx="21" cy="40.8887" fill="#ADD1B2" rx="11" ry="11" style="stroke: #A80036; stroke-width: 1.0;"/><path d="M20.4219,46.748 Q18.3906,46.748 17.2031,45.248 Q16.0313,43.748 16.0313,40.6387 Q16.0313,37.998 17.2813,36.2324 Q18.5313,34.4512 20.6875,34.4512 Q21.2031,34.4512 21.7344,34.5918 Q22.1719,34.7793 22.4219,34.7793 Q22.6094,34.7793 22.7031,34.748 Q22.7969,34.7012 23.3438,33.9824 L24.1563,37.9512 L23.1094,38.2637 Q22.6563,36.7637 22.0625,36.1855 Q21.4844,35.5918 20.5625,35.5918 Q19.3906,35.5918 18.6875,36.998 Q17.9844,38.3887 17.9844,40.5605 Q17.9844,42.9512 18.5781,44.2168 Q19.1875,45.4668 20.5,45.4668 Q21.4219,45.4668 22.0938,44.7949 Q22.7656,44.1074 23.0938,42.5293 L24.1406,43.0293 Q23.7344,44.7949 22.75,45.7793 Q21.7656,46.748 20.4219,46.748 Z "/><text fill="#000000" font-family="sans-serif" font-size="14" lengthAdjust="spacingAndGlyphs" textLength="49" x="37" y="40.5439">JFrame</text><text fill="#000000" font-family="sans-serif" font-size="10" lengthAdjust="spacingAndGlyphs" textLength="53" x="35" y="55.0801">javax.swing</text><!--class java.awt.event.ActionListener--><rect fill="#FEFECE" filter="url(#fzafhwmq7wm4j)" height="65.8003" id="java.awt.event.ActionListener" style="stroke: #A80036; stroke-width: 1.5;" width="198" x="126.5" y="8"/><ellipse cx="176.25" cy="29.3887" fill="#B4A7E5" rx="11" ry="11" style="stroke: #A80036; stroke-width: 1.0;"/><path d="M172.8438,24.1699 L172.8438,23.0762 L178.8438,23.0762 L178.8438,24.1699 L176.9688,24.1699 Q176.8281,24.1699 176.7656,24.2168 Q176.7188,24.248 176.7188,24.3574 L176.7188,33.8418 Q176.7188,33.9512 176.7656,33.998 Q176.8281,34.0293 176.9688,34.0293 L178.8438,34.0293 L178.8438,35.123 L172.8438,35.123 L172.8438,34.0293 L174.7188,34.0293 Q174.9063,34.0293 174.9375,33.998 Q174.9688,33.9668 174.9688,33.8418 L174.9688,24.3574 Q174.9688,24.2324 174.9375,24.2012 Q174.9063,24.1699 174.7188,24.1699 L172.8438,24.1699 Z "/><text fill="#000000" font-family="sans-serif" font-size="14" font-style="italic" lengthAdjust="spacingAndGlyphs" textLength="90" x="196.75" y="29.0439">ActionListener</text><text fill="#000000" font-family="sans-serif" font-size="10" font-style="italic" lengthAdjust="spacingAndGlyphs" textLength="67" x="208.25" y="43.5801">java.awt.event</text><line style="stroke: #A80036; stroke-width: 1.5;" x1="127.5" x2="323.5" y1="50.7773" y2="50.7773"/><ellipse cx="137.5" cy="63.7888" fill="#84BE84" rx="3" ry="3" style="stroke: #038048; stroke-width: 1.0;"/><text fill="#000000" font-family="sans-serif" font-size="11" font-style="italic" lengthAdjust="spacingAndGlyphs" textLength="172" x="146.5" y="67.3833">actionPerformed(ActionEvent): void</text><!--link javax.swing.JFrame to edu.guyi.bbtan.view.MainWindowView--><path d="M68.11,80.56 C76.13,96.31 85.71,115.16 95.14,133.69 " fill="none" id="javax.swing.JFrame-edu.guyi.bbtan.view.MainWindowView" style="stroke: #A80036; stroke-width: 1.0;"/><polygon fill="none" points="61.77,83.52,58.94,62.52,74.25,77.18,61.77,83.52" style="stroke: #A80036; stroke-width: 1.0;"/><!--link java.awt.event.ActionListener to edu.guyi.bbtan.view.MainWindowView--><path d="M199.73,92.1 C193.01,105.15 185.61,119.54 178.3,133.75 " fill="none" id="java.awt.event.ActionListener-edu.guyi.bbtan.view.MainWindowView" style="stroke: #A80036; stroke-width: 1.0; stroke-dasharray: 7.0,7.0;"/><polygon fill="none" points="193.59,88.72,208.97,74.13,206.04,95.12,193.59,88.72" style="stroke: #A80036; stroke-width: 1.0;"/><text fill="#888888" font-family="sans-serif" font-size="10" lengthAdjust="spacingAndGlyphs" textLength="185" x="79" y="319.46">UMLDoclet 2.0.10, PlantUML 1.2019.08</text><!--
@startuml
    set namespaceSeparator none
    hide empty fields
    hide empty methods

    class "<size:14>MainWindowView\n<size:10>edu.guyi.bbtan.view" as edu.guyi.bbtan.view.MainWindowView [[MainWindowView.html]] {
        +startGame: JButton
        +contentPane: JPanel
        +mainPanel: JPanel
        +gameControlPanel: JPanel
        +gamePanel: JPanel
        +actionPerformed(ActionEvent): void
        +start(): void
    }

    class "<size:14>JFrame\n<size:10>javax.swing" as javax.swing.JFrame
    interface "<size:14>ActionListener\n<size:10>java.awt.event" as java.awt.event.ActionListener {
        {abstract} +actionPerformed(ActionEvent): void
    }

    javax.swing.JFrame <|- - edu.guyi.bbtan.view.MainWindowView
    java.awt.event.ActionListener <|.. edu.guyi.bbtan.view.MainWindowView

    center footer UMLDoclet 2.0.10, PlantUML 1.2019.08
@enduml

PlantUML version 1.2019.08(Sun Jul 14 03:25:14 CST 2019)
(APACHE source distribution)
Java Runtime: OpenJDK Runtime Environment
JVM: OpenJDK 64-Bit Server VM
Java Version: 9+181
Operating System: Windows 10
OS Version: 10.0
Default Encoding: GBK
Language: zh
Country: CN
--></g></svg>