<?xml version="1.0" encoding="UTF-8" standalone="no"?><svg xmlns="http://www.w3.org/2000/svg" xmlns:xlink="http://www.w3.org/1999/xlink" contentScriptType="application/ecmascript" contentStyleType="text/css" height="452px" preserveAspectRatio="none" style="width:686px;height:452px;" version="1.1" viewBox="0 0 686 452" width="686px" zoomAndPan="magnify"><defs><filter height="300%" id="f5x7vezi85hc8" width="300%" x="-1" y="-1"><feGaussianBlur result="blurOut" stdDeviation="2.0"/><feColorMatrix in="blurOut" result="blurOut2" type="matrix" values="0 0 0 0 0 0 0 0 0 0 0 0 0 0 0 0 0 0 .4 0"/><feOffset dx="4.0" dy="4.0" in="blurOut2" result="blurOut3"/><feBlend in="SourceGraphic" in2="blurOut3" mode="normal"/></filter></defs><g><!--cluster edu.guyi.bbtan.view--><polygon fill="#FFFFFF" filter="url(#f5x7vezi85hc8)" points="22,195,167,195,174,220.1201,431,220.1201,431,402,22,402,22,195" style="stroke: #000000; stroke-width: 1.5;"/><line style="stroke: #000000; stroke-width: 1.5;" x1="22" x2="174" y1="220.1201" y2="220.1201"/><text fill="#000000" font-family="sans-serif" font-size="14" font-weight="bold" lengthAdjust="spacingAndGlyphs" textLength="139" x="26" y="213.0439">edu.guyi.bbtan.view</text><!--cluster javax.swing--><polygon fill="#FFFFFF" filter="url(#f5x7vezi85hc8)" points="59,24,146,24,153,49.1201,410,49.1201,410,171,59,171,59,24" style="stroke: #000000; stroke-width: 1.5;"/><line style="stroke: #000000; stroke-width: 1.5;" x1="59" x2="153" y1="49.1201" y2="49.1201"/><text fill="#000000" font-family="sans-serif" font-size="14" font-weight="bold" lengthAdjust="spacingAndGlyphs" textLength="81" x="63" y="42.0439">javax.swing</text><!--cluster java.awt.event--><polygon fill="#FFFFFF" filter="url(#f5x7vezi85hc8)" points="434,39,538,39,545,64.1201,664,64.1201,664,156,434,156,434,39" style="stroke: #000000; stroke-width: 1.5;"/><line style="stroke: #000000; stroke-width: 1.5;" x1="434" x2="545" y1="64.1201" y2="64.1201"/><text fill="#000000" font-family="sans-serif" font-size="14" font-weight="bold" lengthAdjust="spacingAndGlyphs" textLength="98" x="438" y="57.0439">java.awt.event</text><!--class edu.guyi.bbtan.view.GamePanel--><a href="GamePanel.html" target="_top" xlink:actuate="onRequest" xlink:show="new" xlink:title="GamePanel.html" xlink:type="simple"><rect fill="#FEFECE" filter="url(#f5x7vezi85hc8)" height="63.0229" id="edu.guyi.bbtan.view.GamePanel" style="stroke: #A80036; stroke-width: 1.5;" width="144" x="38" y="278"/><ellipse cx="74.15" cy="294" fill="#ADD1B2" rx="11" ry="11" style="stroke: #A80036; stroke-width: 1.0;"/><path d="M73.5719,299.8594 Q71.5406,299.8594 70.3531,298.3594 Q69.1813,296.8594 69.1813,293.75 Q69.1813,291.1094 70.4313,289.3438 Q71.6813,287.5625 73.8375,287.5625 Q74.3531,287.5625 74.8844,287.7031 Q75.3219,287.8906 75.5719,287.8906 Q75.7594,287.8906 75.8531,287.8594 Q75.9469,287.8125 76.4938,287.0938 L77.3063,291.0625 L76.2594,291.375 Q75.8063,289.875 75.2125,289.2969 Q74.6344,288.7031 73.7125,288.7031 Q72.5406,288.7031 71.8375,290.1094 Q71.1344,291.5 71.1344,293.6719 Q71.1344,296.0625 71.7281,297.3281 Q72.3375,298.5781 73.65,298.5781 Q74.5719,298.5781 75.2438,297.9063 Q75.9156,297.2188 76.2438,295.6406 L77.2906,296.1406 Q76.8844,297.9063 75.9,298.8906 Q74.9156,299.8594 73.5719,299.8594 Z "/><text fill="#000000" font-family="sans-serif" font-size="12" lengthAdjust="spacingAndGlyphs" textLength="65" x="92.85" y="299.5576">GamePanel</text><line style="stroke: #A80036; stroke-width: 1.5;" x1="39" x2="181" y1="310" y2="310"/><line style="stroke: #A80036; stroke-width: 1.5;" x1="39" x2="181" y1="318" y2="318"/><ellipse cx="49" cy="331.0115" fill="#84BE84" rx="3" ry="3" style="stroke: #038048; stroke-width: 1.0;"/><text fill="#000000" font-family="sans-serif" font-size="11" lengthAdjust="spacingAndGlyphs" textLength="118" x="58" y="334.606">GamePanel(GameData)</text></a><!--class edu.guyi.bbtan.view.MainWindowView--><a href="MainWindowView.html" target="_top" xlink:actuate="onRequest" xlink:show="new" xlink:title="MainWindowView.html" xlink:type="simple"><rect fill="#FEFECE" filter="url(#f5x7vezi85hc8)" height="153.1606" id="edu.guyi.bbtan.view.MainWindowView" style="stroke: #A80036; stroke-width: 1.5;" width="198" x="217" y="233"/><ellipse cx="262.75" cy="249" fill="#ADD1B2" rx="11" ry="11" style="stroke: #A80036; stroke-width: 1.0;"/><path d="M262.1719,254.8594 Q260.1406,254.8594 258.9531,253.3594 Q257.7813,251.8594 257.7813,248.75 Q257.7813,246.1094 259.0313,244.3438 Q260.2813,242.5625 262.4375,242.5625 Q262.9531,242.5625 263.4844,242.7031 Q263.9219,242.8906 264.1719,242.8906 Q264.3594,242.8906 264.4531,242.8594 Q264.5469,242.8125 265.0938,242.0938 L265.9063,246.0625 L264.8594,246.375 Q264.4063,244.875 263.8125,244.2969 Q263.2344,243.7031 262.3125,243.7031 Q261.1406,243.7031 260.4375,245.1094 Q259.7344,246.5 259.7344,248.6719 Q259.7344,251.0625 260.3281,252.3281 Q260.9375,253.5781 262.25,253.5781 Q263.1719,253.5781 263.8438,252.9063 Q264.5156,252.2188 264.8438,250.6406 L265.8906,251.1406 Q265.4844,252.9063 264.5,253.8906 Q263.5156,254.8594 262.1719,254.8594 Z "/><text fill="#000000" font-family="sans-serif" font-size="12" lengthAdjust="spacingAndGlyphs" textLength="98" x="283.25" y="254.5576">MainWindowView</text><line style="stroke: #A80036; stroke-width: 1.5;" x1="218" x2="414" y1="265" y2="265"/><ellipse cx="228" cy="278.0115" fill="none" rx="3" ry="3" style="stroke: #038048; stroke-width: 1.0;"/><text fill="#000000" font-family="sans-serif" font-size="11" lengthAdjust="spacingAndGlyphs" textLength="95" x="237" y="281.606">startGame: JButton</text><ellipse cx="228" cy="293.0344" fill="none" rx="3" ry="3" style="stroke: #038048; stroke-width: 1.0;"/><text fill="#000000" font-family="sans-serif" font-size="11" lengthAdjust="spacingAndGlyphs" textLength="100" x="237" y="296.6289">contentPane: JPanel</text><ellipse cx="228" cy="308.0574" fill="none" rx="3" ry="3" style="stroke: #038048; stroke-width: 1.0;"/><text fill="#000000" font-family="sans-serif" font-size="11" lengthAdjust="spacingAndGlyphs" textLength="89" x="237" y="311.6519">mainPanel: JPanel</text><ellipse cx="228" cy="323.0803" fill="none" rx="3" ry="3" style="stroke: #038048; stroke-width: 1.0;"/><text fill="#000000" font-family="sans-serif" font-size="11" lengthAdjust="spacingAndGlyphs" textLength="128" x="237" y="326.6748">gameControlPanel: JPanel</text><ellipse cx="228" cy="338.1033" fill="none" rx="3" ry="3" style="stroke: #038048; stroke-width: 1.0;"/><text fill="#000000" font-family="sans-serif" font-size="11" lengthAdjust="spacingAndGlyphs" textLength="93" x="237" y="341.6978">gamePanel: JPanel</text><line style="stroke: #A80036; stroke-width: 1.5;" x1="218" x2="414" y1="348.1147" y2="348.1147"/><ellipse cx="228" cy="361.1262" fill="#84BE84" rx="3" ry="3" style="stroke: #038048; stroke-width: 1.0;"/><text fill="#000000" font-family="sans-serif" font-size="11" lengthAdjust="spacingAndGlyphs" textLength="172" x="237" y="364.7207">actionPerformed(ActionEvent): void</text><ellipse cx="228" cy="376.1492" fill="#84BE84" rx="3" ry="3" style="stroke: #038048; stroke-width: 1.0;"/><text fill="#000000" font-family="sans-serif" font-size="11" lengthAdjust="spacingAndGlyphs" textLength="56" x="237" y="379.7437">start(): void</text></a><!--class javax.swing.JPanel--><rect fill="#FEFECE" filter="url(#f5x7vezi85hc8)" height="48" id="javax.swing.JPanel" style="stroke: #A80036; stroke-width: 1.5;" width="70" x="75" y="84.5"/><ellipse cx="90" cy="100.5" fill="#ADD1B2" rx="11" ry="11" style="stroke: #A80036; stroke-width: 1.0;"/><path d="M89.4219,106.3594 Q87.3906,106.3594 86.2031,104.8594 Q85.0313,103.3594 85.0313,100.25 Q85.0313,97.6094 86.2813,95.8438 Q87.5313,94.0625 89.6875,94.0625 Q90.2031,94.0625 90.7344,94.2031 Q91.1719,94.3906 91.4219,94.3906 Q91.6094,94.3906 91.7031,94.3594 Q91.7969,94.3125 92.3438,93.5938 L93.1563,97.5625 L92.1094,97.875 Q91.6563,96.375 91.0625,95.7969 Q90.4844,95.2031 89.5625,95.2031 Q88.3906,95.2031 87.6875,96.6094 Q86.9844,98 86.9844,100.1719 Q86.9844,102.5625 87.5781,103.8281 Q88.1875,105.0781 89.5,105.0781 Q90.4219,105.0781 91.0938,104.4063 Q91.7656,103.7188 92.0938,102.1406 L93.1406,102.6406 Q92.7344,104.4063 91.75,105.3906 Q90.7656,106.3594 89.4219,106.3594 Z "/><text fill="#000000" font-family="sans-serif" font-size="12" lengthAdjust="spacingAndGlyphs" textLength="38" x="104" y="106.0576">JPanel</text><line style="stroke: #A80036; stroke-width: 1.5;" x1="76" x2="144" y1="116.5" y2="116.5"/><line style="stroke: #A80036; stroke-width: 1.5;" x1="76" x2="144" y1="124.5" y2="124.5"/><!--class javax.swing.JFrame--><rect fill="#FEFECE" filter="url(#f5x7vezi85hc8)" height="93.0688" id="javax.swing.JFrame" style="stroke: #A80036; stroke-width: 1.5;" width="213" x="180.5" y="62"/><ellipse cx="262.25" cy="78" fill="#ADD1B2" rx="11" ry="11" style="stroke: #A80036; stroke-width: 1.0;"/><path d="M261.6719,83.8594 Q259.6406,83.8594 258.4531,82.3594 Q257.2813,80.8594 257.2813,77.75 Q257.2813,75.1094 258.5313,73.3438 Q259.7813,71.5625 261.9375,71.5625 Q262.4531,71.5625 262.9844,71.7031 Q263.4219,71.8906 263.6719,71.8906 Q263.8594,71.8906 263.9531,71.8594 Q264.0469,71.8125 264.5938,71.0938 L265.4063,75.0625 L264.3594,75.375 Q263.9063,73.875 263.3125,73.2969 Q262.7344,72.7031 261.8125,72.7031 Q260.6406,72.7031 259.9375,74.1094 Q259.2344,75.5 259.2344,77.6719 Q259.2344,80.0625 259.8281,81.3281 Q260.4375,82.5781 261.75,82.5781 Q262.6719,82.5781 263.3438,81.9063 Q264.0156,81.2188 264.3438,79.6406 L265.3906,80.1406 Q264.9844,81.9063 264,82.8906 Q263.0156,83.8594 261.6719,83.8594 Z "/><text fill="#000000" font-family="sans-serif" font-size="12" lengthAdjust="spacingAndGlyphs" textLength="41" x="282.75" y="83.5576">JFrame</text><line style="stroke: #A80036; stroke-width: 1.5;" x1="181.5" x2="392.5" y1="94" y2="94"/><polygon fill="none" points="191.5,102.0115,195.5,106.0115,191.5,110.0115,187.5,106.0115" style="stroke: #B38D22; stroke-width: 1.0;"/><text fill="#000000" font-family="sans-serif" font-size="11" lengthAdjust="spacingAndGlyphs" textLength="104" x="200.5" y="110.606">rootPane: JRootPane</text><polygon fill="none" points="191.5,117.0344,195.5,121.0344,191.5,125.0344,187.5,121.0344" style="stroke: #B38D22; stroke-width: 1.0;"/><text fill="#000000" font-family="sans-serif" font-size="11" lengthAdjust="spacingAndGlyphs" textLength="173" x="200.5" y="125.6289">rootPaneCheckingEnabled: boolean</text><polygon fill="none" points="191.5,132.0574,195.5,136.0574,191.5,140.0574,187.5,136.0574" style="stroke: #B38D22; stroke-width: 1.0;"/><text fill="#000000" font-family="sans-serif" font-size="11" lengthAdjust="spacingAndGlyphs" textLength="187" x="200.5" y="140.6519">accessibleContext: AccessibleContext</text><line style="stroke: #A80036; stroke-width: 1.5;" x1="181.5" x2="392.5" y1="147.0688" y2="147.0688"/><!--class java.awt.event.ActionListener--><rect fill="#FEFECE" filter="url(#f5x7vezi85hc8)" height="63.0229" id="java.awt.event.ActionListener" style="stroke: #A80036; stroke-width: 1.5;" width="198" x="450" y="77"/><ellipse cx="505.75" cy="93" fill="#B4A7E5" rx="11" ry="11" style="stroke: #A80036; stroke-width: 1.0;"/><path d="M502.3438,87.7813 L502.3438,86.6875 L508.3438,86.6875 L508.3438,87.7813 L506.4688,87.7813 Q506.3281,87.7813 506.2656,87.8281 Q506.2188,87.8594 506.2188,87.9688 L506.2188,97.4531 Q506.2188,97.5625 506.2656,97.6094 Q506.3281,97.6406 506.4688,97.6406 L508.3438,97.6406 L508.3438,98.7344 L502.3438,98.7344 L502.3438,97.6406 L504.2188,97.6406 Q504.4063,97.6406 504.4375,97.6094 Q504.4688,97.5781 504.4688,97.4531 L504.4688,87.9688 Q504.4688,87.8438 504.4375,87.8125 Q504.4063,87.7813 504.2188,87.7813 L502.3438,87.7813 Z "/><text fill="#000000" font-family="sans-serif" font-size="12" font-style="italic" lengthAdjust="spacingAndGlyphs" textLength="78" x="526.25" y="98.5576">ActionListener</text><line style="stroke: #A80036; stroke-width: 1.5;" x1="451" x2="647" y1="109" y2="109"/><line style="stroke: #A80036; stroke-width: 1.5;" x1="451" x2="647" y1="117" y2="117"/><ellipse cx="461" cy="130.0115" fill="#84BE84" rx="3" ry="3" style="stroke: #038048; stroke-width: 1.0;"/><text fill="#000000" font-family="sans-serif" font-size="11" font-style="italic" lengthAdjust="spacingAndGlyphs" textLength="172" x="470" y="133.606">actionPerformed(ActionEvent): void</text><!--link javax.swing.JPanel to edu.guyi.bbtan.view.GamePanel--><path d="M110,152.84 C110,190.64 110,244.53 110,277.96 " fill="none" id="javax.swing.JPanel-edu.guyi.bbtan.view.GamePanel" style="stroke: #A80036; stroke-width: 1.0;"/><polygon fill="none" points="103,152.72,110,132.72,117,152.72,103,152.72" style="stroke: #A80036; stroke-width: 1.0;"/><!--link javax.swing.JFrame to edu.guyi.bbtan.view.MainWindowView--><path d="M296.55,175.05 C299.24,193.47 302.18,213.66 304.94,232.64 " fill="none" id="javax.swing.JFrame-edu.guyi.bbtan.view.MainWindowView" style="stroke: #A80036; stroke-width: 1.0;"/><polygon fill="none" points="289.61,175.96,293.65,155.15,303.46,173.94,289.61,175.96" style="stroke: #A80036; stroke-width: 1.0;"/><!--link java.awt.event.ActionListener to edu.guyi.bbtan.view.MainWindowView--><path d="M497.55,153.44 C470.33,176.69 436.14,205.89 404.79,232.67 " fill="none" id="java.awt.event.ActionListener-edu.guyi.bbtan.view.MainWindowView" style="stroke: #A80036; stroke-width: 1.0; stroke-dasharray: 7.0,7.0;"/><polygon fill="none" points="493.35,147.82,513.1,140.16,502.44,158.47,493.35,147.82" style="stroke: #A80036; stroke-width: 1.0;"/><text fill="#888888" font-family="sans-serif" font-size="10" lengthAdjust="spacingAndGlyphs" textLength="185" x="256.5" y="439.46">UMLDoclet 2.0.10, PlantUML 1.2019.08</text><!--
@startuml
    namespace edu.guyi.bbtan.view {

        class GamePanel [[GamePanel.html]] {
            +GamePanel(GameData)
        }

        class MainWindowView [[MainWindowView.html]] {
            +startGame: JButton
            +contentPane: JPanel
            +mainPanel: JPanel
            +gameControlPanel: JPanel
            +gamePanel: JPanel
            +actionPerformed(ActionEvent): void
            +start(): void
        }

        javax.swing.JPanel <|- - GamePanel
        javax.swing.JFrame <|- - MainWindowView
        java.awt.event.ActionListener <|.. MainWindowView
    }

    namespace javax.swing {
        class JPanel {
        }
        class JFrame {
            #rootPane: JRootPane
            #rootPaneCheckingEnabled: boolean
            #accessibleContext: AccessibleContext
        }
    }

    namespace java.awt.event {
        interface ActionListener {
            {abstract} +actionPerformed(ActionEvent): void
        }
    }

    center footer UMLDoclet 2.0.10, PlantUML 1.2019.08
@enduml

PlantUML version 1.2019.08(Sun Jul 14 03:25:14 CST 2019)
(APACHE source distribution)
Java Runtime: OpenJDK Runtime Environment
JVM: OpenJDK 64-Bit Server VM
Java Version: 9+181
Operating System: Windows 10
OS Version: 10.0
Default Encoding: GBK
Language: zh
Country: CN
--></g></svg>