<?xml version="1.0" encoding="UTF-8" standalone="no"?><svg xmlns="http://www.w3.org/2000/svg" xmlns:xlink="http://www.w3.org/1999/xlink" contentScriptType="application/ecmascript" contentStyleType="text/css" height="226px" preserveAspectRatio="none" style="width:216px;height:226px;" version="1.1" viewBox="0 0 216 226" width="216px" zoomAndPan="magnify"><defs><filter height="300%" id="fws0hdv4va4l3" width="300%" x="-1" y="-1"><feGaussianBlur result="blurOut" stdDeviation="2.0"/><feColorMatrix in="blurOut" result="blurOut2" type="matrix" values="0 0 0 0 0 0 0 0 0 0 0 0 0 0 0 0 0 0 .4 0"/><feOffset dx="4.0" dy="4.0" in="blurOut2" result="blurOut3"/><feBlend in="SourceGraphic" in2="blurOut3" mode="normal"/></filter></defs><g><!--class edu.guyi.bbtan.geometryobject.AddBallTool--><a href="AddBallTool.html" target="_top" xlink:actuate="onRequest" xlink:show="new" xlink:title="AddBallTool.html" xlink:type="simple"><rect fill="#FEFECE" filter="url(#fws0hdv4va4l3)" height="80.8232" id="edu.guyi.bbtan.geometryobject.AddBallTool" style="stroke: #A80036; stroke-width: 1.5;" width="199" x="6" y="111"/><ellipse cx="31.35" cy="132.3887" fill="#ADD1B2" rx="11" ry="11" style="stroke: #A80036; stroke-width: 1.0;"/><path d="M30.7719,138.248 Q28.7406,138.248 27.5531,136.748 Q26.3813,135.248 26.3813,132.1387 Q26.3813,129.498 27.6313,127.7324 Q28.8813,125.9512 31.0375,125.9512 Q31.5531,125.9512 32.0844,126.0918 Q32.5219,126.2793 32.7719,126.2793 Q32.9594,126.2793 33.0531,126.248 Q33.1469,126.2012 33.6938,125.4824 L34.5063,129.4512 L33.4594,129.7637 Q33.0063,128.2637 32.4125,127.6855 Q31.8344,127.0918 30.9125,127.0918 Q29.7406,127.0918 29.0375,128.498 Q28.3344,129.8887 28.3344,132.0605 Q28.3344,134.4512 28.9281,135.7168 Q29.5375,136.9668 30.85,136.9668 Q31.7719,136.9668 32.4438,136.2949 Q33.1156,135.6074 33.4438,134.0293 L34.4906,134.5293 Q34.0844,136.2949 33.1,137.2793 Q32.1156,138.248 30.7719,138.248 Z "/><text fill="#000000" font-family="sans-serif" font-size="14" lengthAdjust="spacingAndGlyphs" textLength="76" x="81.65" y="132.0439">AddBallTool</text><text fill="#000000" font-family="sans-serif" font-size="10" lengthAdjust="spacingAndGlyphs" textLength="144" x="47.65" y="146.5801">edu.guyi.bbtan.geometryobject</text><line style="stroke: #A80036; stroke-width: 1.5;" x1="7" x2="204" y1="153.7773" y2="153.7773"/><ellipse cx="17" cy="166.7888" fill="#84BE84" rx="3" ry="3" style="stroke: #038048; stroke-width: 1.0;"/><text fill="#000000" font-family="sans-serif" font-size="11" lengthAdjust="spacingAndGlyphs" textLength="173" x="26" y="170.3833">AddBallTool(double, double, double)</text><ellipse cx="17" cy="181.8118" fill="#84BE84" rx="3" ry="3" style="stroke: #038048; stroke-width: 1.0;"/><text fill="#000000" font-family="sans-serif" font-size="11" lengthAdjust="spacingAndGlyphs" textLength="103" x="26" y="185.4063">draw(Graphics): void</text></a><!--class edu.guyi.bbtan.geometryobject.ToolBox--><a href="ToolBox.html" target="_top" xlink:actuate="onRequest" xlink:show="new" xlink:title="ToolBox.html" xlink:type="simple"><rect fill="#FEFECE" filter="url(#fws0hdv4va4l3)" height="42.7773" id="edu.guyi.bbtan.geometryobject.ToolBox" style="stroke: #A80036; stroke-width: 1.5;" width="176" x="17.5" y="8"/><ellipse cx="32.5" cy="29.3887" fill="#A9DCDF" rx="11" ry="11" style="stroke: #A80036; stroke-width: 1.0;"/><path d="M32.9375,29.873 L30.5,29.873 L29.9844,32.1074 Q29.9219,32.4199 29.9219,32.5762 Q29.9219,32.7793 29.9688,32.9043 Q30.0156,33.0293 30.2344,33.0293 L30.7813,33.0293 L30.7813,34.123 L27.6406,34.123 L27.6406,33.0293 L28.1719,33.0293 Q28.3125,33.0293 28.4219,32.9512 Q28.5313,32.8574 28.5625,32.5918 L31.2188,22.2168 L32.75,21.7168 L35.3438,32.5605 Q35.4531,32.8418 35.5625,32.9355 Q35.6719,33.0293 35.8125,33.0293 L36.3594,33.0293 L36.3594,34.123 L32.8125,34.123 L32.8125,33.0293 L33.4219,33.0293 Q33.5938,33.0293 33.5938,33.0137 Q33.6094,32.9824 33.6094,32.9199 Q33.6094,32.7012 33.5625,32.5449 L32.9375,29.873 Z M28.3594,33.7168 L28.3594,33.7168 Z M29.0313,33.7168 L29.0313,33.7168 Z M33.75,33.7168 L33.75,33.7168 Z M34.875,33.7168 L34.875,33.7168 Z M31.7656,23.7012 L31.8281,23.7012 L30.8125,28.7793 L32.7188,28.7793 L31.7656,23.7012 Z "/><text fill="#000000" font-family="sans-serif" font-size="14" font-style="italic" lengthAdjust="spacingAndGlyphs" textLength="52" x="92.5" y="29.0439">ToolBox</text><text fill="#000000" font-family="sans-serif" font-size="10" font-style="italic" lengthAdjust="spacingAndGlyphs" textLength="144" x="46.5" y="43.5801">edu.guyi.bbtan.geometryobject</text></a><!--link edu.guyi.bbtan.geometryobject.ToolBox to edu.guyi.bbtan.geometryobject.AddBallTool--><path d="M105.5,71.45 C105.5,84.16 105.5,98.14 105.5,110.76 " fill="none" id="edu.guyi.bbtan.geometryobject.ToolBox-edu.guyi.bbtan.geometryobject.AddBallTool" style="stroke: #A80036; stroke-width: 1.0;"/><polygon fill="none" points="98.5,71.13,105.5,51.13,112.5,71.13,98.5,71.13" style="stroke: #A80036; stroke-width: 1.0;"/><text fill="#888888" font-family="sans-serif" font-size="10" lengthAdjust="spacingAndGlyphs" textLength="185" x="19" y="213.46">UMLDoclet 2.0.10, PlantUML 1.2019.08</text><!--
@startuml
    set namespaceSeparator none
    hide empty fields
    hide empty methods

    class "<size:14>AddBallTool\n<size:10>edu.guyi.bbtan.geometryobject" as edu.guyi.bbtan.geometryobject.AddBallTool [[AddBallTool.html]] {
        +AddBallTool(double, double, double)
        +draw(Graphics): void
    }

    abstract class "<size:14>ToolBox\n<size:10>edu.guyi.bbtan.geometryobject" as edu.guyi.bbtan.geometryobject.ToolBox [[ToolBox.html]]

    edu.guyi.bbtan.geometryobject.ToolBox <|- - edu.guyi.bbtan.geometryobject.AddBallTool

    center footer UMLDoclet 2.0.10, PlantUML 1.2019.08
@enduml

PlantUML version 1.2019.08(Sun Jul 14 03:25:14 CST 2019)
(APACHE source distribution)
Java Runtime: OpenJDK Runtime Environment
JVM: OpenJDK 64-Bit Server VM
Java Version: 9+181
Operating System: Windows 10
OS Version: 10.0
Default Encoding: GBK
Language: zh
Country: CN
--></g></svg>