<?xml version="1.0" encoding="UTF-8" standalone="no"?><svg xmlns="http://www.w3.org/2000/svg" xmlns:xlink="http://www.w3.org/1999/xlink" contentScriptType="application/ecmascript" contentStyleType="text/css" height="251px" preserveAspectRatio="none" style="width:264px;height:251px;" version="1.1" viewBox="0 0 264 251" width="264px" zoomAndPan="magnify"><defs><filter height="300%" id="fxp8lcdpr4f1l" width="300%" x="-1" y="-1"><feGaussianBlur result="blurOut" stdDeviation="2.0"/><feColorMatrix in="blurOut" result="blurOut2" type="matrix" values="0 0 0 0 0 0 0 0 0 0 0 0 0 0 0 0 0 0 .4 0"/><feOffset dx="4.0" dy="4.0" in="blurOut2" result="blurOut3"/><feBlend in="SourceGraphic" in2="blurOut3" mode="normal"/></filter></defs><g><!--class edu.guyi.bbtan.geometryobject.Ball--><a href="Ball.html" target="_top" xlink:actuate="onRequest" xlink:show="new" xlink:title="Ball.html" xlink:type="simple"><rect fill="#FEFECE" filter="url(#fxp8lcdpr4f1l)" height="209.0068" id="edu.guyi.bbtan.geometryobject.Ball" style="stroke: #A80036; stroke-width: 1.5;" width="247" x="6" y="8"/><ellipse cx="53.25" cy="29.3887" fill="#ADD1B2" rx="11" ry="11" style="stroke: #A80036; stroke-width: 1.0;"/><path d="M52.6719,35.248 Q50.6406,35.248 49.4531,33.748 Q48.2813,32.248 48.2813,29.1387 Q48.2813,26.498 49.5313,24.7324 Q50.7813,22.9512 52.9375,22.9512 Q53.4531,22.9512 53.9844,23.0918 Q54.4219,23.2793 54.6719,23.2793 Q54.8594,23.2793 54.9531,23.248 Q55.0469,23.2012 55.5938,22.4824 L56.4063,26.4512 L55.3594,26.7637 Q54.9063,25.2637 54.3125,24.6855 Q53.7344,24.0918 52.8125,24.0918 Q51.6406,24.0918 50.9375,25.498 Q50.2344,26.8887 50.2344,29.0605 Q50.2344,31.4512 50.8281,32.7168 Q51.4375,33.9668 52.75,33.9668 Q53.6719,33.9668 54.3438,33.2949 Q55.0156,32.6074 55.3438,31.0293 L56.3906,31.5293 Q55.9844,33.2949 55,34.2793 Q54.0156,35.248 52.6719,35.248 Z "/><text fill="#000000" font-family="sans-serif" font-size="14" lengthAdjust="spacingAndGlyphs" textLength="23" x="134.25" y="29.0439">Ball</text><text fill="#000000" font-family="sans-serif" font-size="10" lengthAdjust="spacingAndGlyphs" textLength="144" x="73.75" y="43.5801">edu.guyi.bbtan.geometryobject</text><line style="stroke: #A80036; stroke-width: 1.5;" x1="7" x2="252" y1="50.7773" y2="50.7773"/><ellipse cx="17" cy="63.7888" fill="none" rx="3" ry="3" style="stroke: #038048; stroke-width: 1.0;"/><text fill="#000000" font-family="sans-serif" font-size="11" lengthAdjust="spacingAndGlyphs" textLength="44" x="26" y="67.3833">x: double</text><ellipse cx="17" cy="78.8118" fill="none" rx="3" ry="3" style="stroke: #038048; stroke-width: 1.0;"/><text fill="#000000" font-family="sans-serif" font-size="11" lengthAdjust="spacingAndGlyphs" textLength="44" x="26" y="82.4063">y: double</text><ellipse cx="17" cy="93.8347" fill="none" rx="3" ry="3" style="stroke: #038048; stroke-width: 1.0;"/><text fill="#000000" font-family="sans-serif" font-size="11" lengthAdjust="spacingAndGlyphs" textLength="80" x="26" y="97.4292">speed_x: double</text><ellipse cx="17" cy="108.8577" fill="none" rx="3" ry="3" style="stroke: #038048; stroke-width: 1.0;"/><text fill="#000000" font-family="sans-serif" font-size="11" lengthAdjust="spacingAndGlyphs" textLength="80" x="26" y="112.4521">speed_y: double</text><line style="stroke: #A80036; stroke-width: 1.5;" x1="7" x2="252" y1="118.8691" y2="118.8691"/><ellipse cx="17" cy="131.8806" fill="#84BE84" rx="3" ry="3" style="stroke: #038048; stroke-width: 1.0;"/><text fill="#000000" font-family="sans-serif" font-size="11" lengthAdjust="spacingAndGlyphs" textLength="188" x="26" y="135.4751">Ball(double, double, int, double, double)</text><ellipse cx="17" cy="146.9036" fill="#84BE84" rx="3" ry="3" style="stroke: #038048; stroke-width: 1.0;"/><text fill="#000000" font-family="sans-serif" font-size="11" lengthAdjust="spacingAndGlyphs" textLength="221" x="26" y="150.498">update(ArrayList&lt;GeometryObject&gt;, long): int</text><ellipse cx="17" cy="161.9265" fill="#84BE84" rx="3" ry="3" style="stroke: #038048; stroke-width: 1.0;"/><text fill="#000000" font-family="sans-serif" font-size="11" lengthAdjust="spacingAndGlyphs" textLength="103" x="26" y="165.521">draw(Graphics): void</text><ellipse cx="17" cy="176.9495" fill="#84BE84" rx="3" ry="3" style="stroke: #038048; stroke-width: 1.0;"/><text fill="#000000" font-family="sans-serif" font-size="11" lengthAdjust="spacingAndGlyphs" textLength="84" x="26" y="180.5439">IsValid(): boolean</text><ellipse cx="17" cy="191.9724" fill="#84BE84" rx="3" ry="3" style="stroke: #038048; stroke-width: 1.0;"/><text fill="#000000" font-family="sans-serif" font-size="11" lengthAdjust="spacingAndGlyphs" textLength="110" x="26" y="195.5669">setValid(boolean): void</text><ellipse cx="17" cy="206.9954" fill="#84BE84" rx="3" ry="3" style="stroke: #038048; stroke-width: 1.0;"/><text fill="#000000" font-family="sans-serif" font-size="11" lengthAdjust="spacingAndGlyphs" textLength="125" x="26" y="210.5898">setHanced(boolean): void</text></a><text fill="#888888" font-family="sans-serif" font-size="10" lengthAdjust="spacingAndGlyphs" textLength="185" x="43" y="238.46">UMLDoclet 2.0.10, PlantUML 1.2019.08</text><!--
@startuml
    set namespaceSeparator none
    hide empty fields
    hide empty methods

    class "<size:14>Ball\n<size:10>edu.guyi.bbtan.geometryobject" as edu.guyi.bbtan.geometryobject.Ball [[Ball.html]] {
        +x: double
        +y: double
        +speed_x: double
        +speed_y: double
        +Ball(double, double, int, double, double)
        +update(ArrayList<GeometryObject>, long): int
        +draw(Graphics): void
        +IsValid(): boolean
        +setValid(boolean): void
        +setHanced(boolean): void
    }

    center footer UMLDoclet 2.0.10, PlantUML 1.2019.08
@enduml

PlantUML version 1.2019.08(Sun Jul 14 03:25:14 CST 2019)
(APACHE source distribution)
Java Runtime: OpenJDK Runtime Environment
JVM: OpenJDK 64-Bit Server VM
Java Version: 9+181
Operating System: Windows 10
OS Version: 10.0
Default Encoding: GBK
Language: zh
Country: CN
--></g></svg>