<?xml version="1.0" encoding="UTF-8" standalone="no"?><svg xmlns="http://www.w3.org/2000/svg" xmlns:xlink="http://www.w3.org/1999/xlink" contentScriptType="application/ecmascript" contentStyleType="text/css" height="226px" preserveAspectRatio="none" style="width:204px;height:226px;" version="1.1" viewBox="0 0 204 226" width="204px" zoomAndPan="magnify"><defs><filter height="300%" id="frg5wrafz4sho" width="300%" x="-1" y="-1"><feGaussianBlur result="blurOut" stdDeviation="2.0"/><feColorMatrix in="blurOut" result="blurOut2" type="matrix" values="0 0 0 0 0 0 0 0 0 0 0 0 0 0 0 0 0 0 .4 0"/><feOffset dx="4.0" dy="4.0" in="blurOut2" result="blurOut3"/><feBlend in="SourceGraphic" in2="blurOut3" mode="normal"/></filter></defs><g><!--class edu.guyi.bbtan.geometryobject.Boom--><a href="Boom.html" target="_top" xlink:actuate="onRequest" xlink:show="new" xlink:title="Boom.html" xlink:type="simple"><rect fill="#FEFECE" filter="url(#frg5wrafz4sho)" height="80.8232" id="edu.guyi.bbtan.geometryobject.Boom" style="stroke: #A80036; stroke-width: 1.5;" width="176" x="6" y="111"/><ellipse cx="21" cy="132.3887" fill="#ADD1B2" rx="11" ry="11" style="stroke: #A80036; stroke-width: 1.0;"/><path d="M20.4219,138.248 Q18.3906,138.248 17.2031,136.748 Q16.0313,135.248 16.0313,132.1387 Q16.0313,129.498 17.2813,127.7324 Q18.5313,125.9512 20.6875,125.9512 Q21.2031,125.9512 21.7344,126.0918 Q22.1719,126.2793 22.4219,126.2793 Q22.6094,126.2793 22.7031,126.248 Q22.7969,126.2012 23.3438,125.4824 L24.1563,129.4512 L23.1094,129.7637 Q22.6563,128.2637 22.0625,127.6855 Q21.4844,127.0918 20.5625,127.0918 Q19.3906,127.0918 18.6875,128.498 Q17.9844,129.8887 17.9844,132.0605 Q17.9844,134.4512 18.5781,135.7168 Q19.1875,136.9668 20.5,136.9668 Q21.4219,136.9668 22.0938,136.2949 Q22.7656,135.6074 23.0938,134.0293 L24.1406,134.5293 Q23.7344,136.2949 22.75,137.2793 Q21.7656,138.248 20.4219,138.248 Z "/><text fill="#000000" font-family="sans-serif" font-size="14" lengthAdjust="spacingAndGlyphs" textLength="37" x="88.5" y="132.0439">Boom</text><text fill="#000000" font-family="sans-serif" font-size="10" lengthAdjust="spacingAndGlyphs" textLength="144" x="35" y="146.5801">edu.guyi.bbtan.geometryobject</text><line style="stroke: #A80036; stroke-width: 1.5;" x1="7" x2="181" y1="153.7773" y2="153.7773"/><ellipse cx="17" cy="166.7888" fill="#84BE84" rx="3" ry="3" style="stroke: #038048; stroke-width: 1.0;"/><text fill="#000000" font-family="sans-serif" font-size="11" lengthAdjust="spacingAndGlyphs" textLength="144" x="26" y="170.3833">Boom(double, double, double)</text><ellipse cx="17" cy="181.8118" fill="#84BE84" rx="3" ry="3" style="stroke: #038048; stroke-width: 1.0;"/><text fill="#000000" font-family="sans-serif" font-size="11" lengthAdjust="spacingAndGlyphs" textLength="103" x="26" y="185.4063">draw(Graphics): void</text></a><!--class edu.guyi.bbtan.geometryobject.ToolBox--><a href="ToolBox.html" target="_top" xlink:actuate="onRequest" xlink:show="new" xlink:title="ToolBox.html" xlink:type="simple"><rect fill="#FEFECE" filter="url(#frg5wrafz4sho)" height="42.7773" id="edu.guyi.bbtan.geometryobject.ToolBox" style="stroke: #A80036; stroke-width: 1.5;" width="176" x="6" y="8"/><ellipse cx="21" cy="29.3887" fill="#A9DCDF" rx="11" ry="11" style="stroke: #A80036; stroke-width: 1.0;"/><path d="M21.4375,29.873 L19,29.873 L18.4844,32.1074 Q18.4219,32.4199 18.4219,32.5762 Q18.4219,32.7793 18.4688,32.9043 Q18.5156,33.0293 18.7344,33.0293 L19.2813,33.0293 L19.2813,34.123 L16.1406,34.123 L16.1406,33.0293 L16.6719,33.0293 Q16.8125,33.0293 16.9219,32.9512 Q17.0313,32.8574 17.0625,32.5918 L19.7188,22.2168 L21.25,21.7168 L23.8438,32.5605 Q23.9531,32.8418 24.0625,32.9355 Q24.1719,33.0293 24.3125,33.0293 L24.8594,33.0293 L24.8594,34.123 L21.3125,34.123 L21.3125,33.0293 L21.9219,33.0293 Q22.0938,33.0293 22.0938,33.0137 Q22.1094,32.9824 22.1094,32.9199 Q22.1094,32.7012 22.0625,32.5449 L21.4375,29.873 Z M16.8594,33.7168 L16.8594,33.7168 Z M17.5313,33.7168 L17.5313,33.7168 Z M22.25,33.7168 L22.25,33.7168 Z M23.375,33.7168 L23.375,33.7168 Z M20.2656,23.7012 L20.3281,23.7012 L19.3125,28.7793 L21.2188,28.7793 L20.2656,23.7012 Z "/><text fill="#000000" font-family="sans-serif" font-size="14" font-style="italic" lengthAdjust="spacingAndGlyphs" textLength="52" x="81" y="29.0439">ToolBox</text><text fill="#000000" font-family="sans-serif" font-size="10" font-style="italic" lengthAdjust="spacingAndGlyphs" textLength="144" x="35" y="43.5801">edu.guyi.bbtan.geometryobject</text></a><!--link edu.guyi.bbtan.geometryobject.ToolBox to edu.guyi.bbtan.geometryobject.Boom--><path d="M94,71.45 C94,84.16 94,98.14 94,110.76 " fill="none" id="edu.guyi.bbtan.geometryobject.ToolBox-edu.guyi.bbtan.geometryobject.Boom" style="stroke: #A80036; stroke-width: 1.0;"/><polygon fill="none" points="87,71.13,94,51.13,101,71.13,87,71.13" style="stroke: #A80036; stroke-width: 1.0;"/><text fill="#888888" font-family="sans-serif" font-size="10" lengthAdjust="spacingAndGlyphs" textLength="185" x="7.5" y="213.46">UMLDoclet 2.0.10, PlantUML 1.2019.08</text><!--
@startuml
    set namespaceSeparator none
    hide empty fields
    hide empty methods

    class "<size:14>Boom\n<size:10>edu.guyi.bbtan.geometryobject" as edu.guyi.bbtan.geometryobject.Boom [[Boom.html]] {
        +Boom(double, double, double)
        +draw(Graphics): void
    }

    abstract class "<size:14>ToolBox\n<size:10>edu.guyi.bbtan.geometryobject" as edu.guyi.bbtan.geometryobject.ToolBox [[ToolBox.html]]

    edu.guyi.bbtan.geometryobject.ToolBox <|- - edu.guyi.bbtan.geometryobject.Boom

    center footer UMLDoclet 2.0.10, PlantUML 1.2019.08
@enduml

PlantUML version 1.2019.08(Sun Jul 14 03:25:14 CST 2019)
(APACHE source distribution)
Java Runtime: OpenJDK Runtime Environment
JVM: OpenJDK 64-Bit Server VM
Java Version: 9+181
Operating System: Windows 10
OS Version: 10.0
Default Encoding: GBK
Language: zh
Country: CN
--></g></svg>