<?xml version="1.0" encoding="UTF-8" standalone="no"?><svg xmlns="http://www.w3.org/2000/svg" xmlns:xlink="http://www.w3.org/1999/xlink" contentScriptType="application/ecmascript" contentStyleType="text/css" height="354px" preserveAspectRatio="none" style="width:242px;height:354px;" version="1.1" viewBox="0 0 242 354" width="242px" zoomAndPan="magnify"><defs><filter height="300%" id="f3of4ku9s0jm7" width="300%" x="-1" y="-1"><feGaussianBlur result="blurOut" stdDeviation="2.0"/><feColorMatrix in="blurOut" result="blurOut2" type="matrix" values="0 0 0 0 0 0 0 0 0 0 0 0 0 0 0 0 0 0 .4 0"/><feOffset dx="4.0" dy="4.0" in="blurOut2" result="blurOut3"/><feBlend in="SourceGraphic" in2="blurOut3" mode="normal"/></filter></defs><g><!--class edu.guyi.bbtan.geometryobject.Border--><a href="Border.html" target="_top" xlink:actuate="onRequest" xlink:show="new" xlink:title="Border.html" xlink:type="simple"><rect fill="#FEFECE" filter="url(#f3of4ku9s0jm7)" height="155.938" id="edu.guyi.bbtan.geometryobject.Border" style="stroke: #A80036; stroke-width: 1.5;" width="225" x="6" y="164"/><ellipse cx="43.05" cy="185.3887" fill="#ADD1B2" rx="11" ry="11" style="stroke: #A80036; stroke-width: 1.0;"/><path d="M42.4719,191.248 Q40.4406,191.248 39.2531,189.748 Q38.0813,188.248 38.0813,185.1387 Q38.0813,182.498 39.3313,180.7324 Q40.5813,178.9512 42.7375,178.9512 Q43.2531,178.9512 43.7844,179.0918 Q44.2219,179.2793 44.4719,179.2793 Q44.6594,179.2793 44.7531,179.248 Q44.8469,179.2012 45.3938,178.4824 L46.2063,182.4512 L45.1594,182.7637 Q44.7063,181.2637 44.1125,180.6855 Q43.5344,180.0918 42.6125,180.0918 Q41.4406,180.0918 40.7375,181.498 Q40.0344,182.8887 40.0344,185.0605 Q40.0344,187.4512 40.6281,188.7168 Q41.2375,189.9668 42.55,189.9668 Q43.4719,189.9668 44.1438,189.2949 Q44.8156,188.6074 45.1438,187.0293 L46.1906,187.5293 Q45.7844,189.2949 44.8,190.2793 Q43.8156,191.248 42.4719,191.248 Z "/><text fill="#000000" font-family="sans-serif" font-size="14" lengthAdjust="spacingAndGlyphs" textLength="43" x="112.45" y="185.0439">Border</text><text fill="#000000" font-family="sans-serif" font-size="10" lengthAdjust="spacingAndGlyphs" textLength="144" x="61.95" y="199.5801">edu.guyi.bbtan.geometryobject</text><line style="stroke: #A80036; stroke-width: 1.5;" x1="7" x2="230" y1="206.7773" y2="206.7773"/><ellipse cx="17" cy="219.7888" fill="#84BE84" rx="3" ry="3" style="stroke: #038048; stroke-width: 1.0;"/><text fill="#000000" font-family="sans-serif" font-size="11" lengthAdjust="spacingAndGlyphs" textLength="199" x="26" y="223.3833">Border(boolean, boolean, double, double)</text><ellipse cx="17" cy="234.8118" fill="#84BE84" rx="3" ry="3" style="stroke: #038048; stroke-width: 1.0;"/><text fill="#000000" font-family="sans-serif" font-size="11" lengthAdjust="spacingAndGlyphs" textLength="65" x="26" y="238.4063">Hit(): boolean</text><ellipse cx="17" cy="249.8347" fill="#84BE84" rx="3" ry="3" style="stroke: #038048; stroke-width: 1.0;"/><text fill="#000000" font-family="sans-serif" font-size="11" lengthAdjust="spacingAndGlyphs" textLength="99" x="26" y="253.4292">update(double): void</text><ellipse cx="17" cy="264.8577" fill="#84BE84" rx="3" ry="3" style="stroke: #038048; stroke-width: 1.0;"/><text fill="#000000" font-family="sans-serif" font-size="11" lengthAdjust="spacingAndGlyphs" textLength="84" x="26" y="268.4521">IsValid(): boolean</text><ellipse cx="17" cy="279.8806" fill="#84BE84" rx="3" ry="3" style="stroke: #038048; stroke-width: 1.0;"/><text fill="#000000" font-family="sans-serif" font-size="11" lengthAdjust="spacingAndGlyphs" textLength="161" x="26" y="283.4751">Reflect(Ball, double, double): void</text><ellipse cx="17" cy="294.9036" fill="#84BE84" rx="3" ry="3" style="stroke: #038048; stroke-width: 1.0;"/><text fill="#000000" font-family="sans-serif" font-size="11" lengthAdjust="spacingAndGlyphs" textLength="140" x="26" y="298.498">IsIn(double, double): boolean</text><ellipse cx="17" cy="309.9265" fill="#84BE84" rx="3" ry="3" style="stroke: #038048; stroke-width: 1.0;"/><text fill="#000000" font-family="sans-serif" font-size="11" lengthAdjust="spacingAndGlyphs" textLength="103" x="26" y="313.521">draw(Graphics): void</text></a><!--class edu.guyi.bbtan.geometryobject.GeometryObject--><a href="GeometryObject.html" target="_top" xlink:actuate="onRequest" xlink:show="new" xlink:title="GeometryObject.html" xlink:type="simple"><rect fill="#FEFECE" filter="url(#f3of4ku9s0jm7)" height="95.8462" id="edu.guyi.bbtan.geometryobject.GeometryObject" style="stroke: #A80036; stroke-width: 1.5;" width="187" x="25" y="8"/><ellipse cx="44.95" cy="29.3887" fill="#A9DCDF" rx="11" ry="11" style="stroke: #A80036; stroke-width: 1.0;"/><path d="M45.3875,29.873 L42.95,29.873 L42.4344,32.1074 Q42.3719,32.4199 42.3719,32.5762 Q42.3719,32.7793 42.4188,32.9043 Q42.4656,33.0293 42.6844,33.0293 L43.2313,33.0293 L43.2313,34.123 L40.0906,34.123 L40.0906,33.0293 L40.6219,33.0293 Q40.7625,33.0293 40.8719,32.9512 Q40.9813,32.8574 41.0125,32.5918 L43.6688,22.2168 L45.2,21.7168 L47.7938,32.5605 Q47.9031,32.8418 48.0125,32.9355 Q48.1219,33.0293 48.2625,33.0293 L48.8094,33.0293 L48.8094,34.123 L45.2625,34.123 L45.2625,33.0293 L45.8719,33.0293 Q46.0438,33.0293 46.0438,33.0137 Q46.0594,32.9824 46.0594,32.9199 Q46.0594,32.7012 46.0125,32.5449 L45.3875,29.873 Z M40.8094,33.7168 L40.8094,33.7168 Z M41.4813,33.7168 L41.4813,33.7168 Z M46.2,33.7168 L46.2,33.7168 Z M47.325,33.7168 L47.325,33.7168 Z M44.2156,23.7012 L44.2781,23.7012 L43.2625,28.7793 L45.1688,28.7793 L44.2156,23.7012 Z "/><text fill="#000000" font-family="sans-serif" font-size="14" font-style="italic" lengthAdjust="spacingAndGlyphs" textLength="104" x="80.05" y="29.0439">GeometryObject</text><text fill="#000000" font-family="sans-serif" font-size="10" font-style="italic" lengthAdjust="spacingAndGlyphs" textLength="144" x="60.05" y="43.5801">edu.guyi.bbtan.geometryobject</text><line style="stroke: #A80036; stroke-width: 1.5;" x1="26" x2="211" y1="50.7773" y2="50.7773"/><ellipse cx="36" cy="63.7888" fill="#84BE84" rx="3" ry="3" style="stroke: #038048; stroke-width: 1.0;"/><text fill="#000000" font-family="sans-serif" font-size="11" font-style="italic" lengthAdjust="spacingAndGlyphs" textLength="161" x="45" y="67.3833">Reflect(Ball, double, double): void</text><ellipse cx="36" cy="78.8118" fill="#84BE84" rx="3" ry="3" style="stroke: #038048; stroke-width: 1.0;"/><text fill="#000000" font-family="sans-serif" font-size="11" font-style="italic" lengthAdjust="spacingAndGlyphs" textLength="140" x="45" y="82.4063">IsIn(double, double): boolean</text><ellipse cx="36" cy="93.8347" fill="#84BE84" rx="3" ry="3" style="stroke: #038048; stroke-width: 1.0;"/><text fill="#000000" font-family="sans-serif" font-size="11" font-style="italic" lengthAdjust="spacingAndGlyphs" textLength="103" x="45" y="97.4292">draw(Graphics): void</text></a><!--link edu.guyi.bbtan.geometryobject.GeometryObject to edu.guyi.bbtan.geometryobject.Border--><path d="M118.5,124.43 C118.5,137.23 118.5,150.72 118.5,163.8 " fill="none" id="edu.guyi.bbtan.geometryobject.GeometryObject-edu.guyi.bbtan.geometryobject.Border" style="stroke: #A80036; stroke-width: 1.0;"/><polygon fill="none" points="111.5,124.38,118.5,104.38,125.5,124.38,111.5,124.38" style="stroke: #A80036; stroke-width: 1.0;"/><text fill="#888888" font-family="sans-serif" font-size="10" lengthAdjust="spacingAndGlyphs" textLength="185" x="32" y="341.46">UMLDoclet 2.0.10, PlantUML 1.2019.08</text><!--
@startuml
    set namespaceSeparator none
    hide empty fields
    hide empty methods

    class "<size:14>Border\n<size:10>edu.guyi.bbtan.geometryobject" as edu.guyi.bbtan.geometryobject.Border [[Border.html]] {
        +Border(boolean, boolean, double, double)
        +Hit(): boolean
        +update(double): void
        +IsValid(): boolean
        +Reflect(Ball, double, double): void
        +IsIn(double, double): boolean
        +draw(Graphics): void
    }

    abstract class "<size:14>GeometryObject\n<size:10>edu.guyi.bbtan.geometryobject" as edu.guyi.bbtan.geometryobject.GeometryObject [[GeometryObject.html]] {
        {abstract} +Reflect(Ball, double, double): void
        {abstract} +IsIn(double, double): boolean
        {abstract} +draw(Graphics): void
    }

    edu.guyi.bbtan.geometryobject.GeometryObject <|- - edu.guyi.bbtan.geometryobject.Border

    center footer UMLDoclet 2.0.10, PlantUML 1.2019.08
@enduml

PlantUML version 1.2019.08(Sun Jul 14 03:25:14 CST 2019)
(APACHE source distribution)
Java Runtime: OpenJDK Runtime Environment
JVM: OpenJDK 64-Bit Server VM
Java Version: 9+181
Operating System: Windows 10
OS Version: 10.0
Default Encoding: GBK
Language: zh
Country: CN
--></g></svg>