<?xml version="1.0" encoding="UTF-8" standalone="no"?><svg xmlns="http://www.w3.org/2000/svg" xmlns:xlink="http://www.w3.org/1999/xlink" contentScriptType="application/ecmascript" contentStyleType="text/css" height="309px" preserveAspectRatio="none" style="width:210px;height:309px;" version="1.1" viewBox="0 0 210 309" width="210px" zoomAndPan="magnify"><defs><filter height="300%" id="f1cocrkd1l5v1s" width="300%" x="-1" y="-1"><feGaussianBlur result="blurOut" stdDeviation="2.0"/><feColorMatrix in="blurOut" result="blurOut2" type="matrix" values="0 0 0 0 0 0 0 0 0 0 0 0 0 0 0 0 0 0 .4 0"/><feOffset dx="4.0" dy="4.0" in="blurOut2" result="blurOut3"/><feBlend in="SourceGraphic" in2="blurOut3" mode="normal"/></filter></defs><g><!--class edu.guyi.bbtan.geometryobject.Circle--><a href="Circle.html" target="_top" xlink:actuate="onRequest" xlink:show="new" xlink:title="Circle.html" xlink:type="simple"><rect fill="#FEFECE" filter="url(#f1cocrkd1l5v1s)" height="110.8691" id="edu.guyi.bbtan.geometryobject.Circle" style="stroke: #A80036; stroke-width: 1.5;" width="187" x="6" y="164"/><ellipse cx="25.95" cy="185.3887" fill="#ADD1B2" rx="11" ry="11" style="stroke: #A80036; stroke-width: 1.0;"/><path d="M25.3719,191.248 Q23.3406,191.248 22.1531,189.748 Q20.9813,188.248 20.9813,185.1387 Q20.9813,182.498 22.2313,180.7324 Q23.4813,178.9512 25.6375,178.9512 Q26.1531,178.9512 26.6844,179.0918 Q27.1219,179.2793 27.3719,179.2793 Q27.5594,179.2793 27.6531,179.248 Q27.7469,179.2012 28.2938,178.4824 L29.1063,182.4512 L28.0594,182.7637 Q27.6063,181.2637 27.0125,180.6855 Q26.4344,180.0918 25.5125,180.0918 Q24.3406,180.0918 23.6375,181.498 Q22.9344,182.8887 22.9344,185.0605 Q22.9344,187.4512 23.5281,188.7168 Q24.1375,189.9668 25.45,189.9668 Q26.3719,189.9668 27.0438,189.2949 Q27.7156,188.6074 28.0438,187.0293 L29.0906,187.5293 Q28.6844,189.2949 27.7,190.2793 Q26.7156,191.248 25.3719,191.248 Z "/><text fill="#000000" font-family="sans-serif" font-size="14" lengthAdjust="spacingAndGlyphs" textLength="36" x="95.05" y="185.0439">Circle</text><text fill="#000000" font-family="sans-serif" font-size="10" lengthAdjust="spacingAndGlyphs" textLength="144" x="41.05" y="199.5801">edu.guyi.bbtan.geometryobject</text><line style="stroke: #A80036; stroke-width: 1.5;" x1="7" x2="192" y1="206.7773" y2="206.7773"/><ellipse cx="17" cy="219.7888" fill="#84BE84" rx="3" ry="3" style="stroke: #038048; stroke-width: 1.0;"/><text fill="#000000" font-family="sans-serif" font-size="11" lengthAdjust="spacingAndGlyphs" textLength="157" x="26" y="223.3833">Circle(int, double, double, int, int)</text><ellipse cx="17" cy="234.8118" fill="#84BE84" rx="3" ry="3" style="stroke: #038048; stroke-width: 1.0;"/><text fill="#000000" font-family="sans-serif" font-size="11" lengthAdjust="spacingAndGlyphs" textLength="140" x="26" y="238.4063">IsIn(double, double): boolean</text><ellipse cx="17" cy="249.8347" fill="#84BE84" rx="3" ry="3" style="stroke: #038048; stroke-width: 1.0;"/><text fill="#000000" font-family="sans-serif" font-size="11" lengthAdjust="spacingAndGlyphs" textLength="161" x="26" y="253.4292">Reflect(Ball, double, double): void</text><ellipse cx="17" cy="264.8577" fill="#84BE84" rx="3" ry="3" style="stroke: #038048; stroke-width: 1.0;"/><text fill="#000000" font-family="sans-serif" font-size="11" lengthAdjust="spacingAndGlyphs" textLength="103" x="26" y="268.4521">draw(Graphics): void</text></a><!--class edu.guyi.bbtan.geometryobject.GeometryObject--><a href="GeometryObject.html" target="_top" xlink:actuate="onRequest" xlink:show="new" xlink:title="GeometryObject.html" xlink:type="simple"><rect fill="#FEFECE" filter="url(#f1cocrkd1l5v1s)" height="95.8462" id="edu.guyi.bbtan.geometryobject.GeometryObject" style="stroke: #A80036; stroke-width: 1.5;" width="187" x="6" y="8"/><ellipse cx="25.95" cy="29.3887" fill="#A9DCDF" rx="11" ry="11" style="stroke: #A80036; stroke-width: 1.0;"/><path d="M26.3875,29.873 L23.95,29.873 L23.4344,32.1074 Q23.3719,32.4199 23.3719,32.5762 Q23.3719,32.7793 23.4188,32.9043 Q23.4656,33.0293 23.6844,33.0293 L24.2313,33.0293 L24.2313,34.123 L21.0906,34.123 L21.0906,33.0293 L21.6219,33.0293 Q21.7625,33.0293 21.8719,32.9512 Q21.9813,32.8574 22.0125,32.5918 L24.6688,22.2168 L26.2,21.7168 L28.7938,32.5605 Q28.9031,32.8418 29.0125,32.9355 Q29.1219,33.0293 29.2625,33.0293 L29.8094,33.0293 L29.8094,34.123 L26.2625,34.123 L26.2625,33.0293 L26.8719,33.0293 Q27.0438,33.0293 27.0438,33.0137 Q27.0594,32.9824 27.0594,32.9199 Q27.0594,32.7012 27.0125,32.5449 L26.3875,29.873 Z M21.8094,33.7168 L21.8094,33.7168 Z M22.4813,33.7168 L22.4813,33.7168 Z M27.2,33.7168 L27.2,33.7168 Z M28.325,33.7168 L28.325,33.7168 Z M25.2156,23.7012 L25.2781,23.7012 L24.2625,28.7793 L26.1688,28.7793 L25.2156,23.7012 Z "/><text fill="#000000" font-family="sans-serif" font-size="14" font-style="italic" lengthAdjust="spacingAndGlyphs" textLength="104" x="61.05" y="29.0439">GeometryObject</text><text fill="#000000" font-family="sans-serif" font-size="10" font-style="italic" lengthAdjust="spacingAndGlyphs" textLength="144" x="41.05" y="43.5801">edu.guyi.bbtan.geometryobject</text><line style="stroke: #A80036; stroke-width: 1.5;" x1="7" x2="192" y1="50.7773" y2="50.7773"/><ellipse cx="17" cy="63.7888" fill="#84BE84" rx="3" ry="3" style="stroke: #038048; stroke-width: 1.0;"/><text fill="#000000" font-family="sans-serif" font-size="11" font-style="italic" lengthAdjust="spacingAndGlyphs" textLength="161" x="26" y="67.3833">Reflect(Ball, double, double): void</text><ellipse cx="17" cy="78.8118" fill="#84BE84" rx="3" ry="3" style="stroke: #038048; stroke-width: 1.0;"/><text fill="#000000" font-family="sans-serif" font-size="11" font-style="italic" lengthAdjust="spacingAndGlyphs" textLength="140" x="26" y="82.4063">IsIn(double, double): boolean</text><ellipse cx="17" cy="93.8347" fill="#84BE84" rx="3" ry="3" style="stroke: #038048; stroke-width: 1.0;"/><text fill="#000000" font-family="sans-serif" font-size="11" font-style="italic" lengthAdjust="spacingAndGlyphs" textLength="103" x="26" y="97.4292">draw(Graphics): void</text></a><!--link edu.guyi.bbtan.geometryobject.GeometryObject to edu.guyi.bbtan.geometryobject.Circle--><path d="M99.5,124.27 C99.5,137.47 99.5,151.17 99.5,163.89 " fill="none" id="edu.guyi.bbtan.geometryobject.GeometryObject-edu.guyi.bbtan.geometryobject.Circle" style="stroke: #A80036; stroke-width: 1.0;"/><polygon fill="none" points="92.5,124.15,99.5,104.15,106.5,124.15,92.5,124.15" style="stroke: #A80036; stroke-width: 1.0;"/><text fill="#888888" font-family="sans-serif" font-size="10" lengthAdjust="spacingAndGlyphs" textLength="185" x="13" y="296.46">UMLDoclet 2.0.10, PlantUML 1.2019.08</text><!--
@startuml
    set namespaceSeparator none
    hide empty fields
    hide empty methods

    class "<size:14>Circle\n<size:10>edu.guyi.bbtan.geometryobject" as edu.guyi.bbtan.geometryobject.Circle [[Circle.html]] {
        +Circle(int, double, double, int, int)
        +IsIn(double, double): boolean
        +Reflect(Ball, double, double): void
        +draw(Graphics): void
    }

    abstract class "<size:14>GeometryObject\n<size:10>edu.guyi.bbtan.geometryobject" as edu.guyi.bbtan.geometryobject.GeometryObject [[GeometryObject.html]] {
        {abstract} +Reflect(Ball, double, double): void
        {abstract} +IsIn(double, double): boolean
        {abstract} +draw(Graphics): void
    }

    edu.guyi.bbtan.geometryobject.GeometryObject <|- - edu.guyi.bbtan.geometryobject.Circle

    center footer UMLDoclet 2.0.10, PlantUML 1.2019.08
@enduml

PlantUML version 1.2019.08(Sun Jul 14 03:25:14 CST 2019)
(APACHE source distribution)
Java Runtime: OpenJDK Runtime Environment
JVM: OpenJDK 64-Bit Server VM
Java Version: 9+181
Operating System: Windows 10
OS Version: 10.0
Default Encoding: GBK
Language: zh
Country: CN
--></g></svg>