<?xml version="1.0" encoding="UTF-8" standalone="no"?><svg xmlns="http://www.w3.org/2000/svg" xmlns:xlink="http://www.w3.org/1999/xlink" contentScriptType="application/ecmascript" contentStyleType="text/css" height="226px" preserveAspectRatio="none" style="width:240px;height:226px;" version="1.1" viewBox="0 0 240 226" width="240px" zoomAndPan="magnify"><defs><filter height="300%" id="f1m2d725lin0ta" width="300%" x="-1" y="-1"><feGaussianBlur result="blurOut" stdDeviation="2.0"/><feColorMatrix in="blurOut" result="blurOut2" type="matrix" values="0 0 0 0 0 0 0 0 0 0 0 0 0 0 0 0 0 0 .4 0"/><feOffset dx="4.0" dy="4.0" in="blurOut2" result="blurOut3"/><feBlend in="SourceGraphic" in2="blurOut3" mode="normal"/></filter></defs><g><!--class edu.guyi.bbtan.geometryobject.EnhanceBallTool--><a href="EnhanceBallTool.html" target="_top" xlink:actuate="onRequest" xlink:show="new" xlink:title="EnhanceBallTool.html" xlink:type="simple"><rect fill="#FEFECE" filter="url(#f1m2d725lin0ta)" height="80.8232" id="edu.guyi.bbtan.geometryobject.EnhanceBallTool" style="stroke: #A80036; stroke-width: 1.5;" width="223" x="6" y="111"/><ellipse cx="42.15" cy="132.3887" fill="#ADD1B2" rx="11" ry="11" style="stroke: #A80036; stroke-width: 1.0;"/><path d="M41.5719,138.248 Q39.5406,138.248 38.3531,136.748 Q37.1813,135.248 37.1813,132.1387 Q37.1813,129.498 38.4313,127.7324 Q39.6813,125.9512 41.8375,125.9512 Q42.3531,125.9512 42.8844,126.0918 Q43.3219,126.2793 43.5719,126.2793 Q43.7594,126.2793 43.8531,126.248 Q43.9469,126.2012 44.4938,125.4824 L45.3063,129.4512 L44.2594,129.7637 Q43.8063,128.2637 43.2125,127.6855 Q42.6344,127.0918 41.7125,127.0918 Q40.5406,127.0918 39.8375,128.498 Q39.1344,129.8887 39.1344,132.0605 Q39.1344,134.4512 39.7281,135.7168 Q40.3375,136.9668 41.65,136.9668 Q42.5719,136.9668 43.2438,136.2949 Q43.9156,135.6074 44.2438,134.0293 L45.2906,134.5293 Q44.8844,136.2949 43.9,137.2793 Q42.9156,138.248 41.5719,138.248 Z "/><text fill="#000000" font-family="sans-serif" font-size="14" lengthAdjust="spacingAndGlyphs" textLength="107" x="79.35" y="132.0439">EnhanceBallTool</text><text fill="#000000" font-family="sans-serif" font-size="10" lengthAdjust="spacingAndGlyphs" textLength="144" x="60.85" y="146.5801">edu.guyi.bbtan.geometryobject</text><line style="stroke: #A80036; stroke-width: 1.5;" x1="7" x2="228" y1="153.7773" y2="153.7773"/><ellipse cx="17" cy="166.7888" fill="#84BE84" rx="3" ry="3" style="stroke: #038048; stroke-width: 1.0;"/><text fill="#000000" font-family="sans-serif" font-size="11" lengthAdjust="spacingAndGlyphs" textLength="197" x="26" y="170.3833">EnhanceBallTool(double, double, double)</text><ellipse cx="17" cy="181.8118" fill="#84BE84" rx="3" ry="3" style="stroke: #038048; stroke-width: 1.0;"/><text fill="#000000" font-family="sans-serif" font-size="11" lengthAdjust="spacingAndGlyphs" textLength="103" x="26" y="185.4063">draw(Graphics): void</text></a><!--class edu.guyi.bbtan.geometryobject.ToolBox--><a href="ToolBox.html" target="_top" xlink:actuate="onRequest" xlink:show="new" xlink:title="ToolBox.html" xlink:type="simple"><rect fill="#FEFECE" filter="url(#f1m2d725lin0ta)" height="42.7773" id="edu.guyi.bbtan.geometryobject.ToolBox" style="stroke: #A80036; stroke-width: 1.5;" width="176" x="29.5" y="8"/><ellipse cx="44.5" cy="29.3887" fill="#A9DCDF" rx="11" ry="11" style="stroke: #A80036; stroke-width: 1.0;"/><path d="M44.9375,29.873 L42.5,29.873 L41.9844,32.1074 Q41.9219,32.4199 41.9219,32.5762 Q41.9219,32.7793 41.9688,32.9043 Q42.0156,33.0293 42.2344,33.0293 L42.7813,33.0293 L42.7813,34.123 L39.6406,34.123 L39.6406,33.0293 L40.1719,33.0293 Q40.3125,33.0293 40.4219,32.9512 Q40.5313,32.8574 40.5625,32.5918 L43.2188,22.2168 L44.75,21.7168 L47.3438,32.5605 Q47.4531,32.8418 47.5625,32.9355 Q47.6719,33.0293 47.8125,33.0293 L48.3594,33.0293 L48.3594,34.123 L44.8125,34.123 L44.8125,33.0293 L45.4219,33.0293 Q45.5938,33.0293 45.5938,33.0137 Q45.6094,32.9824 45.6094,32.9199 Q45.6094,32.7012 45.5625,32.5449 L44.9375,29.873 Z M40.3594,33.7168 L40.3594,33.7168 Z M41.0313,33.7168 L41.0313,33.7168 Z M45.75,33.7168 L45.75,33.7168 Z M46.875,33.7168 L46.875,33.7168 Z M43.7656,23.7012 L43.8281,23.7012 L42.8125,28.7793 L44.7188,28.7793 L43.7656,23.7012 Z "/><text fill="#000000" font-family="sans-serif" font-size="14" font-style="italic" lengthAdjust="spacingAndGlyphs" textLength="52" x="104.5" y="29.0439">ToolBox</text><text fill="#000000" font-family="sans-serif" font-size="10" font-style="italic" lengthAdjust="spacingAndGlyphs" textLength="144" x="58.5" y="43.5801">edu.guyi.bbtan.geometryobject</text></a><!--link edu.guyi.bbtan.geometryobject.ToolBox to edu.guyi.bbtan.geometryobject.EnhanceBallTool--><path d="M117.5,71.45 C117.5,84.16 117.5,98.14 117.5,110.76 " fill="none" id="edu.guyi.bbtan.geometryobject.ToolBox-edu.guyi.bbtan.geometryobject.EnhanceBallTool" style="stroke: #A80036; stroke-width: 1.0;"/><polygon fill="none" points="110.5,71.13,117.5,51.13,124.5,71.13,110.5,71.13" style="stroke: #A80036; stroke-width: 1.0;"/><text fill="#888888" font-family="sans-serif" font-size="10" lengthAdjust="spacingAndGlyphs" textLength="185" x="31" y="213.46">UMLDoclet 2.0.10, PlantUML 1.2019.08</text><!--
@startuml
    set namespaceSeparator none
    hide empty fields
    hide empty methods

    class "<size:14>EnhanceBallTool\n<size:10>edu.guyi.bbtan.geometryobject" as edu.guyi.bbtan.geometryobject.EnhanceBallTool [[EnhanceBallTool.html]] {
        +EnhanceBallTool(double, double, double)
        +draw(Graphics): void
    }

    abstract class "<size:14>ToolBox\n<size:10>edu.guyi.bbtan.geometryobject" as edu.guyi.bbtan.geometryobject.ToolBox [[ToolBox.html]]

    edu.guyi.bbtan.geometryobject.ToolBox <|- - edu.guyi.bbtan.geometryobject.EnhanceBallTool

    center footer UMLDoclet 2.0.10, PlantUML 1.2019.08
@enduml

PlantUML version 1.2019.08(Sun Jul 14 03:25:14 CST 2019)
(APACHE source distribution)
Java Runtime: OpenJDK Runtime Environment
JVM: OpenJDK 64-Bit Server VM
Java Version: 9+181
Operating System: Windows 10
OS Version: 10.0
Default Encoding: GBK
Language: zh
Country: CN
--></g></svg>