<?xml version="1.0" encoding="UTF-8" standalone="no"?><svg xmlns="http://www.w3.org/2000/svg" xmlns:xlink="http://www.w3.org/1999/xlink" contentScriptType="application/ecmascript" contentStyleType="text/css" height="311px" preserveAspectRatio="none" style="width:257px;height:311px;" version="1.1" viewBox="0 0 257 311" width="257px" zoomAndPan="magnify"><defs><filter height="300%" id="fostbly7zsalg" width="300%" x="-1" y="-1"><feGaussianBlur result="blurOut" stdDeviation="2.0"/><feColorMatrix in="blurOut" result="blurOut2" type="matrix" values="0 0 0 0 0 0 0 0 0 0 0 0 0 0 0 0 0 0 .4 0"/><feOffset dx="4.0" dy="4.0" in="blurOut2" result="blurOut3"/><feBlend in="SourceGraphic" in2="blurOut3" mode="normal"/></filter></defs><g><!--class edu.guyi.bbtan.geometryobject.GeometryObject--><a href="GeometryObject.html" target="_top" xlink:actuate="onRequest" xlink:show="new" xlink:title="GeometryObject.html" xlink:type="simple"><rect fill="#FEFECE" filter="url(#fostbly7zsalg)" height="269.0986" id="edu.guyi.bbtan.geometryobject.GeometryObject" style="stroke: #A80036; stroke-width: 1.5;" width="240" x="6" y="8"/><ellipse cx="49.8" cy="29.3887" fill="#A9DCDF" rx="11" ry="11" style="stroke: #A80036; stroke-width: 1.0;"/><path d="M50.2375,29.873 L47.8,29.873 L47.2844,32.1074 Q47.2219,32.4199 47.2219,32.5762 Q47.2219,32.7793 47.2688,32.9043 Q47.3156,33.0293 47.5344,33.0293 L48.0813,33.0293 L48.0813,34.123 L44.9406,34.123 L44.9406,33.0293 L45.4719,33.0293 Q45.6125,33.0293 45.7219,32.9512 Q45.8313,32.8574 45.8625,32.5918 L48.5188,22.2168 L50.05,21.7168 L52.6438,32.5605 Q52.7531,32.8418 52.8625,32.9355 Q52.9719,33.0293 53.1125,33.0293 L53.6594,33.0293 L53.6594,34.123 L50.1125,34.123 L50.1125,33.0293 L50.7219,33.0293 Q50.8938,33.0293 50.8938,33.0137 Q50.9094,32.9824 50.9094,32.9199 Q50.9094,32.7012 50.8625,32.5449 L50.2375,29.873 Z M45.6594,33.7168 L45.6594,33.7168 Z M46.3313,33.7168 L46.3313,33.7168 Z M51.05,33.7168 L51.05,33.7168 Z M52.175,33.7168 L52.175,33.7168 Z M49.0656,23.7012 L49.1281,23.7012 L48.1125,28.7793 L50.0188,28.7793 L49.0656,23.7012 Z "/><text fill="#000000" font-family="sans-serif" font-size="14" font-style="italic" lengthAdjust="spacingAndGlyphs" textLength="104" x="90.2" y="29.0439">GeometryObject</text><text fill="#000000" font-family="sans-serif" font-size="10" font-style="italic" lengthAdjust="spacingAndGlyphs" textLength="144" x="70.2" y="43.5801">edu.guyi.bbtan.geometryobject</text><line style="stroke: #A80036; stroke-width: 1.5;" x1="7" x2="245" y1="50.7773" y2="50.7773"/><ellipse cx="17" cy="63.7888" fill="none" rx="3" ry="3" style="stroke: #038048; stroke-width: 1.0;"/><text fill="#000000" font-family="sans-serif" font-size="11" lengthAdjust="spacingAndGlyphs" textLength="77" x="26" y="67.3833">RestHitTime: int</text><ellipse cx="17" cy="78.8118" fill="none" rx="3" ry="3" style="stroke: #038048; stroke-width: 1.0;"/><text fill="#000000" font-family="sans-serif" font-size="11" lengthAdjust="spacingAndGlyphs" textLength="44" x="26" y="82.4063">x: double</text><ellipse cx="17" cy="93.8347" fill="none" rx="3" ry="3" style="stroke: #038048; stroke-width: 1.0;"/><text fill="#000000" font-family="sans-serif" font-size="11" lengthAdjust="spacingAndGlyphs" textLength="44" x="26" y="97.4292">y: double</text><polygon fill="none" points="17,103.8577,21,107.8577,17,111.8577,13,107.8577" style="stroke: #B38D22; stroke-width: 1.0;"/><text fill="#000000" font-family="sans-serif" font-size="11" lengthAdjust="spacingAndGlyphs" textLength="90" x="26" y="112.4521">ball_radius: double</text><polygon fill="none" points="17,118.8806,21,122.8806,17,126.8806,13,122.8806" style="stroke: #B38D22; stroke-width: 1.0;"/><text fill="#000000" font-family="sans-serif" font-size="11" lengthAdjust="spacingAndGlyphs" textLength="58" x="26" y="127.4751">loss: double</text><ellipse cx="17" cy="138.9036" fill="none" rx="3" ry="3" style="stroke: #038048; stroke-width: 1.0;"/><text fill="#000000" font-family="sans-serif" font-size="11" lengthAdjust="spacingAndGlyphs" textLength="74" x="26" y="142.498">IsTool: boolean</text><ellipse cx="17" cy="153.9265" fill="none" rx="3" ry="3" style="stroke: #038048; stroke-width: 1.0;"/><text fill="#000000" font-family="sans-serif" font-size="11" lengthAdjust="spacingAndGlyphs" textLength="97" x="26" y="157.521">IsTimeMachined: int</text><line style="stroke: #A80036; stroke-width: 1.5;" x1="7" x2="245" y1="163.938" y2="163.938"/><ellipse cx="17" cy="176.9495" fill="#84BE84" rx="3" ry="3" style="stroke: #038048; stroke-width: 1.0;"/><text fill="#000000" font-family="sans-serif" font-size="11" lengthAdjust="spacingAndGlyphs" textLength="214" x="26" y="180.5439">GeometryObject(double, double, double, int)</text><ellipse cx="17" cy="191.9724" fill="#84BE84" rx="3" ry="3" style="stroke: #038048; stroke-width: 1.0;"/><text fill="#000000" font-family="sans-serif" font-size="11" lengthAdjust="spacingAndGlyphs" textLength="65" x="26" y="195.5669">Hit(): boolean</text><ellipse cx="17" cy="206.9954" fill="#84BE84" rx="3" ry="3" style="stroke: #038048; stroke-width: 1.0;"/><text fill="#000000" font-family="sans-serif" font-size="11" lengthAdjust="spacingAndGlyphs" textLength="99" x="26" y="210.5898">update(double): void</text><ellipse cx="17" cy="222.0183" fill="#84BE84" rx="3" ry="3" style="stroke: #038048; stroke-width: 1.0;"/><text fill="#000000" font-family="sans-serif" font-size="11" lengthAdjust="spacingAndGlyphs" textLength="84" x="26" y="225.6128">IsValid(): boolean</text><ellipse cx="17" cy="237.0413" fill="#84BE84" rx="3" ry="3" style="stroke: #038048; stroke-width: 1.0;"/><text fill="#000000" font-family="sans-serif" font-size="11" font-style="italic" lengthAdjust="spacingAndGlyphs" textLength="161" x="26" y="240.6357">Reflect(Ball, double, double): void</text><ellipse cx="17" cy="252.0642" fill="#84BE84" rx="3" ry="3" style="stroke: #038048; stroke-width: 1.0;"/><text fill="#000000" font-family="sans-serif" font-size="11" font-style="italic" lengthAdjust="spacingAndGlyphs" textLength="140" x="26" y="255.6587">IsIn(double, double): boolean</text><ellipse cx="17" cy="267.0872" fill="#84BE84" rx="3" ry="3" style="stroke: #038048; stroke-width: 1.0;"/><text fill="#000000" font-family="sans-serif" font-size="11" font-style="italic" lengthAdjust="spacingAndGlyphs" textLength="103" x="26" y="270.6816">draw(Graphics): void</text></a><text fill="#888888" font-family="sans-serif" font-size="10" lengthAdjust="spacingAndGlyphs" textLength="185" x="39.5" y="298.46">UMLDoclet 2.0.10, PlantUML 1.2019.08</text><!--
@startuml
    set namespaceSeparator none
    hide empty fields
    hide empty methods

    abstract class "<size:14>GeometryObject\n<size:10>edu.guyi.bbtan.geometryobject" as edu.guyi.bbtan.geometryobject.GeometryObject [[GeometryObject.html]] {
        +RestHitTime: int
        +x: double
        +y: double
        #ball_radius: double
        #loss: double
        +IsTool: boolean
        +IsTimeMachined: int
        +GeometryObject(double, double, double, int)
        +Hit(): boolean
        +update(double): void
        +IsValid(): boolean
        {abstract} +Reflect(Ball, double, double): void
        {abstract} +IsIn(double, double): boolean
        {abstract} +draw(Graphics): void
    }

    center footer UMLDoclet 2.0.10, PlantUML 1.2019.08
@enduml

PlantUML version 1.2019.08(Sun Jul 14 03:25:14 CST 2019)
(APACHE source distribution)
Java Runtime: OpenJDK Runtime Environment
JVM: OpenJDK 64-Bit Server VM
Java Version: 9+181
Operating System: Windows 10
OS Version: 10.0
Default Encoding: GBK
Language: zh
Country: CN
--></g></svg>