<?xml version="1.0" encoding="UTF-8" standalone="no"?><svg xmlns="http://www.w3.org/2000/svg" xmlns:xlink="http://www.w3.org/1999/xlink" contentScriptType="application/ecmascript" contentStyleType="text/css" height="236px" preserveAspectRatio="none" style="width:269px;height:236px;" version="1.1" viewBox="0 0 269 236" width="269px" zoomAndPan="magnify"><defs><filter height="300%" id="fx0l95qv887v7" width="300%" x="-1" y="-1"><feGaussianBlur result="blurOut" stdDeviation="2.0"/><feColorMatrix in="blurOut" result="blurOut2" type="matrix" values="0 0 0 0 0 0 0 0 0 0 0 0 0 0 0 0 0 0 .4 0"/><feOffset dx="4.0" dy="4.0" in="blurOut2" result="blurOut3"/><feBlend in="SourceGraphic" in2="blurOut3" mode="normal"/></filter></defs><g><!--class edu.guyi.bbtan.geometryobject.Line--><a href="Line.html" target="_top" xlink:actuate="onRequest" xlink:show="new" xlink:title="Line.html" xlink:type="simple"><rect fill="#FEFECE" filter="url(#fx0l95qv887v7)" height="193.9839" id="edu.guyi.bbtan.geometryobject.Line" style="stroke: #A80036; stroke-width: 1.5;" width="252" x="6" y="8"/><ellipse cx="55.75" cy="29.3887" fill="#ADD1B2" rx="11" ry="11" style="stroke: #A80036; stroke-width: 1.0;"/><path d="M55.1719,35.248 Q53.1406,35.248 51.9531,33.748 Q50.7813,32.248 50.7813,29.1387 Q50.7813,26.498 52.0313,24.7324 Q53.2813,22.9512 55.4375,22.9512 Q55.9531,22.9512 56.4844,23.0918 Q56.9219,23.2793 57.1719,23.2793 Q57.3594,23.2793 57.4531,23.248 Q57.5469,23.2012 58.0938,22.4824 L58.9063,26.4512 L57.8594,26.7637 Q57.4063,25.2637 56.8125,24.6855 Q56.2344,24.0918 55.3125,24.0918 Q54.1406,24.0918 53.4375,25.498 Q52.7344,26.8887 52.7344,29.0605 Q52.7344,31.4512 53.3281,32.7168 Q53.9375,33.9668 55.25,33.9668 Q56.1719,33.9668 56.8438,33.2949 Q57.5156,32.6074 57.8438,31.0293 L58.8906,31.5293 Q58.4844,33.2949 57.5,34.2793 Q56.5156,35.248 55.1719,35.248 Z "/><text fill="#000000" font-family="sans-serif" font-size="14" lengthAdjust="spacingAndGlyphs" textLength="27" x="134.75" y="29.0439">Line</text><text fill="#000000" font-family="sans-serif" font-size="10" lengthAdjust="spacingAndGlyphs" textLength="144" x="76.25" y="43.5801">edu.guyi.bbtan.geometryobject</text><line style="stroke: #A80036; stroke-width: 1.5;" x1="7" x2="257" y1="50.7773" y2="50.7773"/><ellipse cx="17" cy="63.7888" fill="none" rx="3" ry="3" style="stroke: #038048; stroke-width: 1.0;"/><text fill="#000000" font-family="sans-serif" font-size="11" lengthAdjust="spacingAndGlyphs" textLength="50" x="26" y="67.3833">x1: double</text><ellipse cx="17" cy="78.8118" fill="none" rx="3" ry="3" style="stroke: #038048; stroke-width: 1.0;"/><text fill="#000000" font-family="sans-serif" font-size="11" lengthAdjust="spacingAndGlyphs" textLength="50" x="26" y="82.4063">y1: double</text><ellipse cx="17" cy="93.8347" fill="none" rx="3" ry="3" style="stroke: #038048; stroke-width: 1.0;"/><text fill="#000000" font-family="sans-serif" font-size="11" lengthAdjust="spacingAndGlyphs" textLength="50" x="26" y="97.4292">x2: double</text><ellipse cx="17" cy="108.8577" fill="none" rx="3" ry="3" style="stroke: #038048; stroke-width: 1.0;"/><text fill="#000000" font-family="sans-serif" font-size="11" lengthAdjust="spacingAndGlyphs" textLength="50" x="26" y="112.4521">y2: double</text><line style="stroke: #A80036; stroke-width: 1.5;" x1="7" x2="257" y1="118.8691" y2="118.8691"/><ellipse cx="17" cy="131.8806" fill="#84BE84" rx="3" ry="3" style="stroke: #038048; stroke-width: 1.0;"/><text fill="#000000" font-family="sans-serif" font-size="11" lengthAdjust="spacingAndGlyphs" textLength="174" x="26" y="135.4751">Line(double, double, double, double)</text><ellipse cx="17" cy="146.9036" fill="#84BE84" rx="3" ry="3" style="stroke: #038048; stroke-width: 1.0;"/><text fill="#000000" font-family="sans-serif" font-size="11" lengthAdjust="spacingAndGlyphs" textLength="50" x="26" y="150.498">slip(): void</text><ellipse cx="17" cy="161.9265" fill="#84BE84" rx="3" ry="3" style="stroke: #038048; stroke-width: 1.0;"/><text fill="#000000" font-family="sans-serif" font-size="11" lengthAdjust="spacingAndGlyphs" textLength="140" x="26" y="165.521">IsIn(double, double): boolean</text><ellipse cx="17" cy="176.9495" fill="#84BE84" rx="3" ry="3" style="stroke: #038048; stroke-width: 1.0;"/><text fill="#000000" font-family="sans-serif" font-size="11" lengthAdjust="spacingAndGlyphs" textLength="226" x="26" y="180.5439">IsSeg(double, double, double, double): boolean</text><ellipse cx="17" cy="191.9724" fill="#84BE84" rx="3" ry="3" style="stroke: #038048; stroke-width: 1.0;"/><text fill="#000000" font-family="sans-serif" font-size="11" lengthAdjust="spacingAndGlyphs" textLength="99" x="26" y="195.5669">update(double): void</text></a><text fill="#888888" font-family="sans-serif" font-size="10" lengthAdjust="spacingAndGlyphs" textLength="185" x="45.5" y="223.46">UMLDoclet 2.0.10, PlantUML 1.2019.08</text><!--
@startuml
    set namespaceSeparator none
    hide empty fields
    hide empty methods

    class "<size:14>Line\n<size:10>edu.guyi.bbtan.geometryobject" as edu.guyi.bbtan.geometryobject.Line [[Line.html]] {
        +x1: double
        +y1: double
        +x2: double
        +y2: double
        +Line(double, double, double, double)
        +slip(): void
        +IsIn(double, double): boolean
        +IsSeg(double, double, double, double): boolean
        +update(double): void
    }

    center footer UMLDoclet 2.0.10, PlantUML 1.2019.08
@enduml

PlantUML version 1.2019.08(Sun Jul 14 03:25:14 CST 2019)
(APACHE source distribution)
Java Runtime: OpenJDK Runtime Environment
JVM: OpenJDK 64-Bit Server VM
Java Version: 9+181
Operating System: Windows 10
OS Version: 10.0
Default Encoding: GBK
Language: zh
Country: CN
--></g></svg>