<?xml version="1.0" encoding="UTF-8" standalone="no"?><svg xmlns="http://www.w3.org/2000/svg" xmlns:xlink="http://www.w3.org/1999/xlink" contentScriptType="application/ecmascript" contentStyleType="text/css" height="737px" preserveAspectRatio="none" style="width:1318px;height:737px;" version="1.1" viewBox="0 0 1318 737" width="1318px" zoomAndPan="magnify"><defs><filter height="300%" id="f1uvina8frvqkn" width="300%" x="-1" y="-1"><feGaussianBlur result="blurOut" stdDeviation="2.0"/><feColorMatrix in="blurOut" result="blurOut2" type="matrix" values="0 0 0 0 0 0 0 0 0 0 0 0 0 0 0 0 0 0 .4 0"/><feOffset dx="4.0" dy="4.0" in="blurOut2" result="blurOut3"/><feBlend in="SourceGraphic" in2="blurOut3" mode="normal"/></filter></defs><g><!--cluster edu.guyi.bbtan.geometryobject--><polygon fill="#FFFFFF" filter="url(#f1uvina8frvqkn)" points="22,24,243,24,250,49.1201,1296,49.1201,1296,687,22,687,22,24" style="stroke: #000000; stroke-width: 1.5;"/><line style="stroke: #000000; stroke-width: 1.5;" x1="22" x2="250" y1="49.1201" y2="49.1201"/><text fill="#000000" font-family="sans-serif" font-size="14" font-weight="bold" lengthAdjust="spacingAndGlyphs" textLength="215" x="26" y="42.0439">edu.guyi.bbtan.geometryobject</text><!--class edu.guyi.bbtan.geometryobject.AddBallTool--><a href="AddBallTool.html" target="_top" xlink:actuate="onRequest" xlink:show="new" xlink:title="AddBallTool.html" xlink:type="simple"><rect fill="#FEFECE" filter="url(#f1uvina8frvqkn)" height="78.0459" id="edu.guyi.bbtan.geometryobject.AddBallTool" style="stroke: #A80036; stroke-width: 1.5;" width="199" x="360.5" y="593"/><ellipse cx="422.25" cy="609" fill="#ADD1B2" rx="11" ry="11" style="stroke: #A80036; stroke-width: 1.0;"/><path d="M421.6719,614.8594 Q419.6406,614.8594 418.4531,613.3594 Q417.2813,611.8594 417.2813,608.75 Q417.2813,606.1094 418.5313,604.3438 Q419.7813,602.5625 421.9375,602.5625 Q422.4531,602.5625 422.9844,602.7031 Q423.4219,602.8906 423.6719,602.8906 Q423.8594,602.8906 423.9531,602.8594 Q424.0469,602.8125 424.5938,602.0938 L425.4063,606.0625 L424.3594,606.375 Q423.9063,604.875 423.3125,604.2969 Q422.7344,603.7031 421.8125,603.7031 Q420.6406,603.7031 419.9375,605.1094 Q419.2344,606.5 419.2344,608.6719 Q419.2344,611.0625 419.8281,612.3281 Q420.4375,613.5781 421.75,613.5781 Q422.6719,613.5781 423.3438,612.9063 Q424.0156,612.2188 424.3438,610.6406 L425.3906,611.1406 Q424.9844,612.9063 424,613.8906 Q423.0156,614.8594 421.6719,614.8594 Z "/><text fill="#000000" font-family="sans-serif" font-size="12" lengthAdjust="spacingAndGlyphs" textLength="67" x="442.75" y="614.5576">AddBallTool</text><line style="stroke: #A80036; stroke-width: 1.5;" x1="361.5" x2="558.5" y1="625" y2="625"/><line style="stroke: #A80036; stroke-width: 1.5;" x1="361.5" x2="558.5" y1="633" y2="633"/><ellipse cx="371.5" cy="646.0115" fill="#84BE84" rx="3" ry="3" style="stroke: #038048; stroke-width: 1.0;"/><text fill="#000000" font-family="sans-serif" font-size="11" lengthAdjust="spacingAndGlyphs" textLength="173" x="380.5" y="649.606">AddBallTool(double, double, double)</text><ellipse cx="371.5" cy="661.0344" fill="#84BE84" rx="3" ry="3" style="stroke: #038048; stroke-width: 1.0;"/><text fill="#000000" font-family="sans-serif" font-size="11" lengthAdjust="spacingAndGlyphs" textLength="103" x="380.5" y="664.6289">draw(Graphics): void</text></a><!--class edu.guyi.bbtan.geometryobject.Ball--><a href="Ball.html" target="_top" xlink:actuate="onRequest" xlink:show="new" xlink:title="Ball.html" xlink:type="simple"><rect fill="#FEFECE" filter="url(#f1uvina8frvqkn)" height="198.2295" id="edu.guyi.bbtan.geometryobject.Ball" style="stroke: #A80036; stroke-width: 1.5;" width="247" x="916.5" y="92"/><ellipse cx="1025.25" cy="108" fill="#ADD1B2" rx="11" ry="11" style="stroke: #A80036; stroke-width: 1.0;"/><path d="M1024.6719,113.8594 Q1022.6406,113.8594 1021.4531,112.3594 Q1020.2813,110.8594 1020.2813,107.75 Q1020.2813,105.1094 1021.5313,103.3438 Q1022.7813,101.5625 1024.9375,101.5625 Q1025.4531,101.5625 1025.9844,101.7031 Q1026.4219,101.8906 1026.6719,101.8906 Q1026.8594,101.8906 1026.9531,101.8594 Q1027.0469,101.8125 1027.5938,101.0938 L1028.4063,105.0625 L1027.3594,105.375 Q1026.9063,103.875 1026.3125,103.2969 Q1025.7344,102.7031 1024.8125,102.7031 Q1023.6406,102.7031 1022.9375,104.1094 Q1022.2344,105.5 1022.2344,107.6719 Q1022.2344,110.0625 1022.8281,111.3281 Q1023.4375,112.5781 1024.75,112.5781 Q1025.6719,112.5781 1026.3438,111.9063 Q1027.0156,111.2188 1027.3438,109.6406 L1028.3906,110.1406 Q1027.9844,111.9063 1027,112.8906 Q1026.0156,113.8594 1024.6719,113.8594 Z "/><text fill="#000000" font-family="sans-serif" font-size="12" lengthAdjust="spacingAndGlyphs" textLength="21" x="1045.75" y="113.5576">Ball</text><line style="stroke: #A80036; stroke-width: 1.5;" x1="917.5" x2="1162.5" y1="124" y2="124"/><ellipse cx="927.5" cy="137.0115" fill="none" rx="3" ry="3" style="stroke: #038048; stroke-width: 1.0;"/><text fill="#000000" font-family="sans-serif" font-size="11" lengthAdjust="spacingAndGlyphs" textLength="44" x="936.5" y="140.606">x: double</text><ellipse cx="927.5" cy="152.0344" fill="none" rx="3" ry="3" style="stroke: #038048; stroke-width: 1.0;"/><text fill="#000000" font-family="sans-serif" font-size="11" lengthAdjust="spacingAndGlyphs" textLength="44" x="936.5" y="155.6289">y: double</text><ellipse cx="927.5" cy="167.0574" fill="none" rx="3" ry="3" style="stroke: #038048; stroke-width: 1.0;"/><text fill="#000000" font-family="sans-serif" font-size="11" lengthAdjust="spacingAndGlyphs" textLength="80" x="936.5" y="170.6519">speed_x: double</text><ellipse cx="927.5" cy="182.0803" fill="none" rx="3" ry="3" style="stroke: #038048; stroke-width: 1.0;"/><text fill="#000000" font-family="sans-serif" font-size="11" lengthAdjust="spacingAndGlyphs" textLength="80" x="936.5" y="185.6748">speed_y: double</text><line style="stroke: #A80036; stroke-width: 1.5;" x1="917.5" x2="1162.5" y1="192.0918" y2="192.0918"/><ellipse cx="927.5" cy="205.1033" fill="#84BE84" rx="3" ry="3" style="stroke: #038048; stroke-width: 1.0;"/><text fill="#000000" font-family="sans-serif" font-size="11" lengthAdjust="spacingAndGlyphs" textLength="188" x="936.5" y="208.6978">Ball(double, double, int, double, double)</text><ellipse cx="927.5" cy="220.1262" fill="#84BE84" rx="3" ry="3" style="stroke: #038048; stroke-width: 1.0;"/><text fill="#000000" font-family="sans-serif" font-size="11" lengthAdjust="spacingAndGlyphs" textLength="221" x="936.5" y="223.7207">update(ArrayList&lt;GeometryObject&gt;, long): int</text><ellipse cx="927.5" cy="235.1492" fill="#84BE84" rx="3" ry="3" style="stroke: #038048; stroke-width: 1.0;"/><text fill="#000000" font-family="sans-serif" font-size="11" lengthAdjust="spacingAndGlyphs" textLength="103" x="936.5" y="238.7437">draw(Graphics): void</text><ellipse cx="927.5" cy="250.1721" fill="#84BE84" rx="3" ry="3" style="stroke: #038048; stroke-width: 1.0;"/><text fill="#000000" font-family="sans-serif" font-size="11" lengthAdjust="spacingAndGlyphs" textLength="84" x="936.5" y="253.7666">IsValid(): boolean</text><ellipse cx="927.5" cy="265.1951" fill="#84BE84" rx="3" ry="3" style="stroke: #038048; stroke-width: 1.0;"/><text fill="#000000" font-family="sans-serif" font-size="11" lengthAdjust="spacingAndGlyphs" textLength="110" x="936.5" y="268.7896">setValid(boolean): void</text><ellipse cx="927.5" cy="280.218" fill="#84BE84" rx="3" ry="3" style="stroke: #038048; stroke-width: 1.0;"/><text fill="#000000" font-family="sans-serif" font-size="11" lengthAdjust="spacingAndGlyphs" textLength="125" x="936.5" y="283.8125">setHanced(boolean): void</text></a><!--class edu.guyi.bbtan.geometryobject.Boom--><a href="Boom.html" target="_top" xlink:actuate="onRequest" xlink:show="new" xlink:title="Boom.html" xlink:type="simple"><rect fill="#FEFECE" filter="url(#f1uvina8frvqkn)" height="78.0459" id="edu.guyi.bbtan.geometryobject.Boom" style="stroke: #A80036; stroke-width: 1.5;" width="170" x="595" y="593"/><ellipse cx="659.75" cy="609" fill="#ADD1B2" rx="11" ry="11" style="stroke: #A80036; stroke-width: 1.0;"/><path d="M659.1719,614.8594 Q657.1406,614.8594 655.9531,613.3594 Q654.7813,611.8594 654.7813,608.75 Q654.7813,606.1094 656.0313,604.3438 Q657.2813,602.5625 659.4375,602.5625 Q659.9531,602.5625 660.4844,602.7031 Q660.9219,602.8906 661.1719,602.8906 Q661.3594,602.8906 661.4531,602.8594 Q661.5469,602.8125 662.0938,602.0938 L662.9063,606.0625 L661.8594,606.375 Q661.4063,604.875 660.8125,604.2969 Q660.2344,603.7031 659.3125,603.7031 Q658.1406,603.7031 657.4375,605.1094 Q656.7344,606.5 656.7344,608.6719 Q656.7344,611.0625 657.3281,612.3281 Q657.9375,613.5781 659.25,613.5781 Q660.1719,613.5781 660.8438,612.9063 Q661.5156,612.2188 661.8438,610.6406 L662.8906,611.1406 Q662.4844,612.9063 661.5,613.8906 Q660.5156,614.8594 659.1719,614.8594 Z "/><text fill="#000000" font-family="sans-serif" font-size="12" lengthAdjust="spacingAndGlyphs" textLength="32" x="680.25" y="614.5576">Boom</text><line style="stroke: #A80036; stroke-width: 1.5;" x1="596" x2="764" y1="625" y2="625"/><line style="stroke: #A80036; stroke-width: 1.5;" x1="596" x2="764" y1="633" y2="633"/><ellipse cx="606" cy="646.0115" fill="#84BE84" rx="3" ry="3" style="stroke: #038048; stroke-width: 1.0;"/><text fill="#000000" font-family="sans-serif" font-size="11" lengthAdjust="spacingAndGlyphs" textLength="144" x="615" y="649.606">Boom(double, double, double)</text><ellipse cx="606" cy="661.0344" fill="#84BE84" rx="3" ry="3" style="stroke: #038048; stroke-width: 1.0;"/><text fill="#000000" font-family="sans-serif" font-size="11" lengthAdjust="spacingAndGlyphs" textLength="103" x="615" y="664.6289">draw(Graphics): void</text></a><!--class edu.guyi.bbtan.geometryobject.Border--><a href="Border.html" target="_top" xlink:actuate="onRequest" xlink:show="new" xlink:title="Border.html" xlink:type="simple"><rect fill="#FEFECE" filter="url(#f1uvina8frvqkn)" height="153.1606" id="edu.guyi.bbtan.geometryobject.Border" style="stroke: #A80036; stroke-width: 1.5;" width="225" x="38.5" y="380"/><ellipse cx="128.25" cy="396" fill="#ADD1B2" rx="11" ry="11" style="stroke: #A80036; stroke-width: 1.0;"/><path d="M127.6719,401.8594 Q125.6406,401.8594 124.4531,400.3594 Q123.2813,398.8594 123.2813,395.75 Q123.2813,393.1094 124.5313,391.3438 Q125.7813,389.5625 127.9375,389.5625 Q128.4531,389.5625 128.9844,389.7031 Q129.4219,389.8906 129.6719,389.8906 Q129.8594,389.8906 129.9531,389.8594 Q130.0469,389.8125 130.5938,389.0938 L131.4063,393.0625 L130.3594,393.375 Q129.9063,391.875 129.3125,391.2969 Q128.7344,390.7031 127.8125,390.7031 Q126.6406,390.7031 125.9375,392.1094 Q125.2344,393.5 125.2344,395.6719 Q125.2344,398.0625 125.8281,399.3281 Q126.4375,400.5781 127.75,400.5781 Q128.6719,400.5781 129.3438,399.9063 Q130.0156,399.2188 130.3438,397.6406 L131.3906,398.1406 Q130.9844,399.9063 130,400.8906 Q129.0156,401.8594 127.6719,401.8594 Z "/><text fill="#000000" font-family="sans-serif" font-size="12" lengthAdjust="spacingAndGlyphs" textLength="37" x="148.75" y="401.5576">Border</text><line style="stroke: #A80036; stroke-width: 1.5;" x1="39.5" x2="262.5" y1="412" y2="412"/><line style="stroke: #A80036; stroke-width: 1.5;" x1="39.5" x2="262.5" y1="420" y2="420"/><ellipse cx="49.5" cy="433.0115" fill="#84BE84" rx="3" ry="3" style="stroke: #038048; stroke-width: 1.0;"/><text fill="#000000" font-family="sans-serif" font-size="11" lengthAdjust="spacingAndGlyphs" textLength="199" x="58.5" y="436.606">Border(boolean, boolean, double, double)</text><ellipse cx="49.5" cy="448.0344" fill="#84BE84" rx="3" ry="3" style="stroke: #038048; stroke-width: 1.0;"/><text fill="#000000" font-family="sans-serif" font-size="11" lengthAdjust="spacingAndGlyphs" textLength="65" x="58.5" y="451.6289">Hit(): boolean</text><ellipse cx="49.5" cy="463.0574" fill="#84BE84" rx="3" ry="3" style="stroke: #038048; stroke-width: 1.0;"/><text fill="#000000" font-family="sans-serif" font-size="11" lengthAdjust="spacingAndGlyphs" textLength="99" x="58.5" y="466.6519">update(double): void</text><ellipse cx="49.5" cy="478.0803" fill="#84BE84" rx="3" ry="3" style="stroke: #038048; stroke-width: 1.0;"/><text fill="#000000" font-family="sans-serif" font-size="11" lengthAdjust="spacingAndGlyphs" textLength="84" x="58.5" y="481.6748">IsValid(): boolean</text><ellipse cx="49.5" cy="493.1033" fill="#84BE84" rx="3" ry="3" style="stroke: #038048; stroke-width: 1.0;"/><text fill="#000000" font-family="sans-serif" font-size="11" lengthAdjust="spacingAndGlyphs" textLength="161" x="58.5" y="496.6978">Reflect(Ball, double, double): void</text><ellipse cx="49.5" cy="508.1262" fill="#84BE84" rx="3" ry="3" style="stroke: #038048; stroke-width: 1.0;"/><text fill="#000000" font-family="sans-serif" font-size="11" lengthAdjust="spacingAndGlyphs" textLength="140" x="58.5" y="511.7207">IsIn(double, double): boolean</text><ellipse cx="49.5" cy="523.1492" fill="#84BE84" rx="3" ry="3" style="stroke: #038048; stroke-width: 1.0;"/><text fill="#000000" font-family="sans-serif" font-size="11" lengthAdjust="spacingAndGlyphs" textLength="103" x="58.5" y="526.7437">draw(Graphics): void</text></a><!--class edu.guyi.bbtan.geometryobject.Circle--><a href="Circle.html" target="_top" xlink:actuate="onRequest" xlink:show="new" xlink:title="Circle.html" xlink:type="simple"><rect fill="#FEFECE" filter="url(#f1uvina8frvqkn)" height="108.0918" id="edu.guyi.bbtan.geometryobject.Circle" style="stroke: #A80036; stroke-width: 1.5;" width="187" x="298.5" y="402.5"/><ellipse cx="371.75" cy="418.5" fill="#ADD1B2" rx="11" ry="11" style="stroke: #A80036; stroke-width: 1.0;"/><path d="M371.1719,424.3594 Q369.1406,424.3594 367.9531,422.8594 Q366.7813,421.3594 366.7813,418.25 Q366.7813,415.6094 368.0313,413.8438 Q369.2813,412.0625 371.4375,412.0625 Q371.9531,412.0625 372.4844,412.2031 Q372.9219,412.3906 373.1719,412.3906 Q373.3594,412.3906 373.4531,412.3594 Q373.5469,412.3125 374.0938,411.5938 L374.9063,415.5625 L373.8594,415.875 Q373.4063,414.375 372.8125,413.7969 Q372.2344,413.2031 371.3125,413.2031 Q370.1406,413.2031 369.4375,414.6094 Q368.7344,416 368.7344,418.1719 Q368.7344,420.5625 369.3281,421.8281 Q369.9375,423.0781 371.25,423.0781 Q372.1719,423.0781 372.8438,422.4063 Q373.5156,421.7188 373.8438,420.1406 L374.8906,420.6406 Q374.4844,422.4063 373.5,423.3906 Q372.5156,424.3594 371.1719,424.3594 Z "/><text fill="#000000" font-family="sans-serif" font-size="12" lengthAdjust="spacingAndGlyphs" textLength="32" x="392.25" y="424.0576">Circle</text><line style="stroke: #A80036; stroke-width: 1.5;" x1="299.5" x2="484.5" y1="434.5" y2="434.5"/><line style="stroke: #A80036; stroke-width: 1.5;" x1="299.5" x2="484.5" y1="442.5" y2="442.5"/><ellipse cx="309.5" cy="455.5115" fill="#84BE84" rx="3" ry="3" style="stroke: #038048; stroke-width: 1.0;"/><text fill="#000000" font-family="sans-serif" font-size="11" lengthAdjust="spacingAndGlyphs" textLength="157" x="318.5" y="459.106">Circle(int, double, double, int, int)</text><ellipse cx="309.5" cy="470.5344" fill="#84BE84" rx="3" ry="3" style="stroke: #038048; stroke-width: 1.0;"/><text fill="#000000" font-family="sans-serif" font-size="11" lengthAdjust="spacingAndGlyphs" textLength="140" x="318.5" y="474.1289">IsIn(double, double): boolean</text><ellipse cx="309.5" cy="485.5574" fill="#84BE84" rx="3" ry="3" style="stroke: #038048; stroke-width: 1.0;"/><text fill="#000000" font-family="sans-serif" font-size="11" lengthAdjust="spacingAndGlyphs" textLength="161" x="318.5" y="489.1519">Reflect(Ball, double, double): void</text><ellipse cx="309.5" cy="500.5803" fill="#84BE84" rx="3" ry="3" style="stroke: #038048; stroke-width: 1.0;"/><text fill="#000000" font-family="sans-serif" font-size="11" lengthAdjust="spacingAndGlyphs" textLength="103" x="318.5" y="504.1748">draw(Graphics): void</text></a><!--class edu.guyi.bbtan.geometryobject.EnhanceBallTool--><a href="EnhanceBallTool.html" target="_top" xlink:actuate="onRequest" xlink:show="new" xlink:title="EnhanceBallTool.html" xlink:type="simple"><rect fill="#FEFECE" filter="url(#f1uvina8frvqkn)" height="78.0459" id="edu.guyi.bbtan.geometryobject.EnhanceBallTool" style="stroke: #A80036; stroke-width: 1.5;" width="223" x="800.5" y="593"/><ellipse cx="860.75" cy="609" fill="#ADD1B2" rx="11" ry="11" style="stroke: #A80036; stroke-width: 1.0;"/><path d="M860.1719,614.8594 Q858.1406,614.8594 856.9531,613.3594 Q855.7813,611.8594 855.7813,608.75 Q855.7813,606.1094 857.0313,604.3438 Q858.2813,602.5625 860.4375,602.5625 Q860.9531,602.5625 861.4844,602.7031 Q861.9219,602.8906 862.1719,602.8906 Q862.3594,602.8906 862.4531,602.8594 Q862.5469,602.8125 863.0938,602.0938 L863.9063,606.0625 L862.8594,606.375 Q862.4063,604.875 861.8125,604.2969 Q861.2344,603.7031 860.3125,603.7031 Q859.1406,603.7031 858.4375,605.1094 Q857.7344,606.5 857.7344,608.6719 Q857.7344,611.0625 858.3281,612.3281 Q858.9375,613.5781 860.25,613.5781 Q861.1719,613.5781 861.8438,612.9063 Q862.5156,612.2188 862.8438,610.6406 L863.8906,611.1406 Q863.4844,612.9063 862.5,613.8906 Q861.5156,614.8594 860.1719,614.8594 Z "/><text fill="#000000" font-family="sans-serif" font-size="12" lengthAdjust="spacingAndGlyphs" textLength="94" x="881.25" y="614.5576">EnhanceBallTool</text><line style="stroke: #A80036; stroke-width: 1.5;" x1="801.5" x2="1022.5" y1="625" y2="625"/><line style="stroke: #A80036; stroke-width: 1.5;" x1="801.5" x2="1022.5" y1="633" y2="633"/><ellipse cx="811.5" cy="646.0115" fill="#84BE84" rx="3" ry="3" style="stroke: #038048; stroke-width: 1.0;"/><text fill="#000000" font-family="sans-serif" font-size="11" lengthAdjust="spacingAndGlyphs" textLength="197" x="820.5" y="649.606">EnhanceBallTool(double, double, double)</text><ellipse cx="811.5" cy="661.0344" fill="#84BE84" rx="3" ry="3" style="stroke: #038048; stroke-width: 1.0;"/><text fill="#000000" font-family="sans-serif" font-size="11" lengthAdjust="spacingAndGlyphs" textLength="103" x="820.5" y="664.6289">draw(Graphics): void</text></a><!--class edu.guyi.bbtan.geometryobject.GeometryObject--><a href="GeometryObject.html" target="_top" xlink:actuate="onRequest" xlink:show="new" xlink:title="GeometryObject.html" xlink:type="simple"><rect fill="#FEFECE" filter="url(#f1uvina8frvqkn)" height="258.3213" id="edu.guyi.bbtan.geometryobject.GeometryObject" style="stroke: #A80036; stroke-width: 1.5;" width="240" x="525" y="62"/><ellipse cx="596.75" cy="78" fill="#A9DCDF" rx="11" ry="11" style="stroke: #A80036; stroke-width: 1.0;"/><path d="M597.1875,78.4844 L594.75,78.4844 L594.2344,80.7188 Q594.1719,81.0313 594.1719,81.1875 Q594.1719,81.3906 594.2188,81.5156 Q594.2656,81.6406 594.4844,81.6406 L595.0313,81.6406 L595.0313,82.7344 L591.8906,82.7344 L591.8906,81.6406 L592.4219,81.6406 Q592.5625,81.6406 592.6719,81.5625 Q592.7813,81.4688 592.8125,81.2031 L595.4688,70.8281 L597,70.3281 L599.5938,81.1719 Q599.7031,81.4531 599.8125,81.5469 Q599.9219,81.6406 600.0625,81.6406 L600.6094,81.6406 L600.6094,82.7344 L597.0625,82.7344 L597.0625,81.6406 L597.6719,81.6406 Q597.8438,81.6406 597.8438,81.625 Q597.8594,81.5938 597.8594,81.5313 Q597.8594,81.3125 597.8125,81.1563 L597.1875,78.4844 Z M592.6094,82.3281 L592.6094,82.3281 Z M593.2813,82.3281 L593.2813,82.3281 Z M598,82.3281 L598,82.3281 Z M599.125,82.3281 L599.125,82.3281 Z M596.0156,72.3125 L596.0781,72.3125 L595.0625,77.3906 L596.9688,77.3906 L596.0156,72.3125 Z "/><text fill="#000000" font-family="sans-serif" font-size="12" font-style="italic" lengthAdjust="spacingAndGlyphs" textLength="88" x="617.25" y="83.5576">GeometryObject</text><line style="stroke: #A80036; stroke-width: 1.5;" x1="526" x2="764" y1="94" y2="94"/><ellipse cx="536" cy="107.0115" fill="none" rx="3" ry="3" style="stroke: #038048; stroke-width: 1.0;"/><text fill="#000000" font-family="sans-serif" font-size="11" lengthAdjust="spacingAndGlyphs" textLength="77" x="545" y="110.606">RestHitTime: int</text><ellipse cx="536" cy="122.0344" fill="none" rx="3" ry="3" style="stroke: #038048; stroke-width: 1.0;"/><text fill="#000000" font-family="sans-serif" font-size="11" lengthAdjust="spacingAndGlyphs" textLength="44" x="545" y="125.6289">x: double</text><ellipse cx="536" cy="137.0574" fill="none" rx="3" ry="3" style="stroke: #038048; stroke-width: 1.0;"/><text fill="#000000" font-family="sans-serif" font-size="11" lengthAdjust="spacingAndGlyphs" textLength="44" x="545" y="140.6519">y: double</text><polygon fill="none" points="536,147.0803,540,151.0803,536,155.0803,532,151.0803" style="stroke: #B38D22; stroke-width: 1.0;"/><text fill="#000000" font-family="sans-serif" font-size="11" lengthAdjust="spacingAndGlyphs" textLength="90" x="545" y="155.6748">ball_radius: double</text><polygon fill="none" points="536,162.1033,540,166.1033,536,170.1033,532,166.1033" style="stroke: #B38D22; stroke-width: 1.0;"/><text fill="#000000" font-family="sans-serif" font-size="11" lengthAdjust="spacingAndGlyphs" textLength="58" x="545" y="170.6978">loss: double</text><ellipse cx="536" cy="182.1262" fill="none" rx="3" ry="3" style="stroke: #038048; stroke-width: 1.0;"/><text fill="#000000" font-family="sans-serif" font-size="11" lengthAdjust="spacingAndGlyphs" textLength="74" x="545" y="185.7207">IsTool: boolean</text><ellipse cx="536" cy="197.1492" fill="none" rx="3" ry="3" style="stroke: #038048; stroke-width: 1.0;"/><text fill="#000000" font-family="sans-serif" font-size="11" lengthAdjust="spacingAndGlyphs" textLength="97" x="545" y="200.7437">IsTimeMachined: int</text><line style="stroke: #A80036; stroke-width: 1.5;" x1="526" x2="764" y1="207.1606" y2="207.1606"/><ellipse cx="536" cy="220.1721" fill="#84BE84" rx="3" ry="3" style="stroke: #038048; stroke-width: 1.0;"/><text fill="#000000" font-family="sans-serif" font-size="11" lengthAdjust="spacingAndGlyphs" textLength="214" x="545" y="223.7666">GeometryObject(double, double, double, int)</text><ellipse cx="536" cy="235.1951" fill="#84BE84" rx="3" ry="3" style="stroke: #038048; stroke-width: 1.0;"/><text fill="#000000" font-family="sans-serif" font-size="11" lengthAdjust="spacingAndGlyphs" textLength="65" x="545" y="238.7896">Hit(): boolean</text><ellipse cx="536" cy="250.218" fill="#84BE84" rx="3" ry="3" style="stroke: #038048; stroke-width: 1.0;"/><text fill="#000000" font-family="sans-serif" font-size="11" lengthAdjust="spacingAndGlyphs" textLength="99" x="545" y="253.8125">update(double): void</text><ellipse cx="536" cy="265.241" fill="#84BE84" rx="3" ry="3" style="stroke: #038048; stroke-width: 1.0;"/><text fill="#000000" font-family="sans-serif" font-size="11" lengthAdjust="spacingAndGlyphs" textLength="84" x="545" y="268.8354">IsValid(): boolean</text><ellipse cx="536" cy="280.2639" fill="#84BE84" rx="3" ry="3" style="stroke: #038048; stroke-width: 1.0;"/><text fill="#000000" font-family="sans-serif" font-size="11" font-style="italic" lengthAdjust="spacingAndGlyphs" textLength="161" x="545" y="283.8584">Reflect(Ball, double, double): void</text><ellipse cx="536" cy="295.2869" fill="#84BE84" rx="3" ry="3" style="stroke: #038048; stroke-width: 1.0;"/><text fill="#000000" font-family="sans-serif" font-size="11" font-style="italic" lengthAdjust="spacingAndGlyphs" textLength="140" x="545" y="298.8813">IsIn(double, double): boolean</text><ellipse cx="536" cy="310.3098" fill="#84BE84" rx="3" ry="3" style="stroke: #038048; stroke-width: 1.0;"/><text fill="#000000" font-family="sans-serif" font-size="11" font-style="italic" lengthAdjust="spacingAndGlyphs" textLength="103" x="545" y="313.9043">draw(Graphics): void</text></a><!--class edu.guyi.bbtan.geometryobject.Line--><a href="Line.html" target="_top" xlink:actuate="onRequest" xlink:show="new" xlink:title="Line.html" xlink:type="simple"><rect fill="#FEFECE" filter="url(#f1uvina8frvqkn)" height="183.2065" id="edu.guyi.bbtan.geometryobject.Line" style="stroke: #A80036; stroke-width: 1.5;" width="252" x="138" y="99.5"/><ellipse cx="247.75" cy="115.5" fill="#ADD1B2" rx="11" ry="11" style="stroke: #A80036; stroke-width: 1.0;"/><path d="M247.1719,121.3594 Q245.1406,121.3594 243.9531,119.8594 Q242.7813,118.3594 242.7813,115.25 Q242.7813,112.6094 244.0313,110.8438 Q245.2813,109.0625 247.4375,109.0625 Q247.9531,109.0625 248.4844,109.2031 Q248.9219,109.3906 249.1719,109.3906 Q249.3594,109.3906 249.4531,109.3594 Q249.5469,109.3125 250.0938,108.5938 L250.9063,112.5625 L249.8594,112.875 Q249.4063,111.375 248.8125,110.7969 Q248.2344,110.2031 247.3125,110.2031 Q246.1406,110.2031 245.4375,111.6094 Q244.7344,113 244.7344,115.1719 Q244.7344,117.5625 245.3281,118.8281 Q245.9375,120.0781 247.25,120.0781 Q248.1719,120.0781 248.8438,119.4063 Q249.5156,118.7188 249.8438,117.1406 L250.8906,117.6406 Q250.4844,119.4063 249.5,120.3906 Q248.5156,121.3594 247.1719,121.3594 Z "/><text fill="#000000" font-family="sans-serif" font-size="12" lengthAdjust="spacingAndGlyphs" textLength="24" x="268.25" y="121.0576">Line</text><line style="stroke: #A80036; stroke-width: 1.5;" x1="139" x2="389" y1="131.5" y2="131.5"/><ellipse cx="149" cy="144.5115" fill="none" rx="3" ry="3" style="stroke: #038048; stroke-width: 1.0;"/><text fill="#000000" font-family="sans-serif" font-size="11" lengthAdjust="spacingAndGlyphs" textLength="50" x="158" y="148.106">x1: double</text><ellipse cx="149" cy="159.5344" fill="none" rx="3" ry="3" style="stroke: #038048; stroke-width: 1.0;"/><text fill="#000000" font-family="sans-serif" font-size="11" lengthAdjust="spacingAndGlyphs" textLength="50" x="158" y="163.1289">y1: double</text><ellipse cx="149" cy="174.5574" fill="none" rx="3" ry="3" style="stroke: #038048; stroke-width: 1.0;"/><text fill="#000000" font-family="sans-serif" font-size="11" lengthAdjust="spacingAndGlyphs" textLength="50" x="158" y="178.1519">x2: double</text><ellipse cx="149" cy="189.5803" fill="none" rx="3" ry="3" style="stroke: #038048; stroke-width: 1.0;"/><text fill="#000000" font-family="sans-serif" font-size="11" lengthAdjust="spacingAndGlyphs" textLength="50" x="158" y="193.1748">y2: double</text><line style="stroke: #A80036; stroke-width: 1.5;" x1="139" x2="389" y1="199.5918" y2="199.5918"/><ellipse cx="149" cy="212.6033" fill="#84BE84" rx="3" ry="3" style="stroke: #038048; stroke-width: 1.0;"/><text fill="#000000" font-family="sans-serif" font-size="11" lengthAdjust="spacingAndGlyphs" textLength="174" x="158" y="216.1978">Line(double, double, double, double)</text><ellipse cx="149" cy="227.6262" fill="#84BE84" rx="3" ry="3" style="stroke: #038048; stroke-width: 1.0;"/><text fill="#000000" font-family="sans-serif" font-size="11" lengthAdjust="spacingAndGlyphs" textLength="50" x="158" y="231.2207">slip(): void</text><ellipse cx="149" cy="242.6492" fill="#84BE84" rx="3" ry="3" style="stroke: #038048; stroke-width: 1.0;"/><text fill="#000000" font-family="sans-serif" font-size="11" lengthAdjust="spacingAndGlyphs" textLength="140" x="158" y="246.2437">IsIn(double, double): boolean</text><ellipse cx="149" cy="257.6721" fill="#84BE84" rx="3" ry="3" style="stroke: #038048; stroke-width: 1.0;"/><text fill="#000000" font-family="sans-serif" font-size="11" lengthAdjust="spacingAndGlyphs" textLength="226" x="158" y="261.2666">IsSeg(double, double, double, double): boolean</text><ellipse cx="149" cy="272.6951" fill="#84BE84" rx="3" ry="3" style="stroke: #038048; stroke-width: 1.0;"/><text fill="#000000" font-family="sans-serif" font-size="11" lengthAdjust="spacingAndGlyphs" textLength="99" x="158" y="276.2896">update(double): void</text></a><!--class edu.guyi.bbtan.geometryobject.Square--><a href="Square.html" target="_top" xlink:actuate="onRequest" xlink:show="new" xlink:title="Square.html" xlink:type="simple"><rect fill="#FEFECE" filter="url(#f1uvina8frvqkn)" height="123.1147" id="edu.guyi.bbtan.geometryobject.Square" style="stroke: #A80036; stroke-width: 1.5;" width="249" x="520.5" y="395"/><ellipse cx="620.75" cy="411" fill="#ADD1B2" rx="11" ry="11" style="stroke: #A80036; stroke-width: 1.0;"/><path d="M620.1719,416.8594 Q618.1406,416.8594 616.9531,415.3594 Q615.7813,413.8594 615.7813,410.75 Q615.7813,408.1094 617.0313,406.3438 Q618.2813,404.5625 620.4375,404.5625 Q620.9531,404.5625 621.4844,404.7031 Q621.9219,404.8906 622.1719,404.8906 Q622.3594,404.8906 622.4531,404.8594 Q622.5469,404.8125 623.0938,404.0938 L623.9063,408.0625 L622.8594,408.375 Q622.4063,406.875 621.8125,406.2969 Q621.2344,405.7031 620.3125,405.7031 Q619.1406,405.7031 618.4375,407.1094 Q617.7344,408.5 617.7344,410.6719 Q617.7344,413.0625 618.3281,414.3281 Q618.9375,415.5781 620.25,415.5781 Q621.1719,415.5781 621.8438,414.9063 Q622.5156,414.2188 622.8438,412.6406 L623.8906,413.1406 Q623.4844,414.9063 622.5,415.8906 Q621.5156,416.8594 620.1719,416.8594 Z "/><text fill="#000000" font-family="sans-serif" font-size="12" lengthAdjust="spacingAndGlyphs" textLength="40" x="641.25" y="416.5576">Square</text><line style="stroke: #A80036; stroke-width: 1.5;" x1="521.5" x2="768.5" y1="427" y2="427"/><line style="stroke: #A80036; stroke-width: 1.5;" x1="521.5" x2="768.5" y1="435" y2="435"/><ellipse cx="531.5" cy="448.0115" fill="#84BE84" rx="3" ry="3" style="stroke: #038048; stroke-width: 1.0;"/><text fill="#000000" font-family="sans-serif" font-size="11" lengthAdjust="spacingAndGlyphs" textLength="223" x="540.5" y="451.606">Square(double, double, double, double, int, int)</text><ellipse cx="531.5" cy="463.0344" fill="#84BE84" rx="3" ry="3" style="stroke: #038048; stroke-width: 1.0;"/><text fill="#000000" font-family="sans-serif" font-size="11" lengthAdjust="spacingAndGlyphs" textLength="140" x="540.5" y="466.6289">IsIn(double, double): boolean</text><ellipse cx="531.5" cy="478.0574" fill="#84BE84" rx="3" ry="3" style="stroke: #038048; stroke-width: 1.0;"/><text fill="#000000" font-family="sans-serif" font-size="11" lengthAdjust="spacingAndGlyphs" textLength="161" x="540.5" y="481.6519">Reflect(Ball, double, double): void</text><ellipse cx="531.5" cy="493.0803" fill="#84BE84" rx="3" ry="3" style="stroke: #038048; stroke-width: 1.0;"/><text fill="#000000" font-family="sans-serif" font-size="11" lengthAdjust="spacingAndGlyphs" textLength="99" x="540.5" y="496.6748">update(double): void</text><ellipse cx="531.5" cy="508.1033" fill="#84BE84" rx="3" ry="3" style="stroke: #038048; stroke-width: 1.0;"/><text fill="#000000" font-family="sans-serif" font-size="11" lengthAdjust="spacingAndGlyphs" textLength="103" x="540.5" y="511.6978">draw(Graphics): void</text></a><!--class edu.guyi.bbtan.geometryobject.TimeMachine--><a href="TimeMachine.html" target="_top" xlink:actuate="onRequest" xlink:show="new" xlink:title="TimeMachine.html" xlink:type="simple"><rect fill="#FEFECE" filter="url(#f1uvina8frvqkn)" height="78.0459" id="edu.guyi.bbtan.geometryobject.TimeMachine" style="stroke: #A80036; stroke-width: 1.5;" width="207" x="1058.5" y="593"/><ellipse cx="1120.75" cy="609" fill="#ADD1B2" rx="11" ry="11" style="stroke: #A80036; stroke-width: 1.0;"/><path d="M1120.1719,614.8594 Q1118.1406,614.8594 1116.9531,613.3594 Q1115.7813,611.8594 1115.7813,608.75 Q1115.7813,606.1094 1117.0313,604.3438 Q1118.2813,602.5625 1120.4375,602.5625 Q1120.9531,602.5625 1121.4844,602.7031 Q1121.9219,602.8906 1122.1719,602.8906 Q1122.3594,602.8906 1122.4531,602.8594 Q1122.5469,602.8125 1123.0938,602.0938 L1123.9063,606.0625 L1122.8594,606.375 Q1122.4063,604.875 1121.8125,604.2969 Q1121.2344,603.7031 1120.3125,603.7031 Q1119.1406,603.7031 1118.4375,605.1094 Q1117.7344,606.5 1117.7344,608.6719 Q1117.7344,611.0625 1118.3281,612.3281 Q1118.9375,613.5781 1120.25,613.5781 Q1121.1719,613.5781 1121.8438,612.9063 Q1122.5156,612.2188 1122.8438,610.6406 L1123.8906,611.1406 Q1123.4844,612.9063 1122.5,613.8906 Q1121.5156,614.8594 1120.1719,614.8594 Z "/><text fill="#000000" font-family="sans-serif" font-size="12" lengthAdjust="spacingAndGlyphs" textLength="74" x="1141.25" y="614.5576">TimeMachine</text><line style="stroke: #A80036; stroke-width: 1.5;" x1="1059.5" x2="1264.5" y1="625" y2="625"/><line style="stroke: #A80036; stroke-width: 1.5;" x1="1059.5" x2="1264.5" y1="633" y2="633"/><ellipse cx="1069.5" cy="646.0115" fill="#84BE84" rx="3" ry="3" style="stroke: #038048; stroke-width: 1.0;"/><text fill="#000000" font-family="sans-serif" font-size="11" lengthAdjust="spacingAndGlyphs" textLength="181" x="1078.5" y="649.606">TimeMachine(double, double, double)</text><ellipse cx="1069.5" cy="661.0344" fill="#84BE84" rx="3" ry="3" style="stroke: #038048; stroke-width: 1.0;"/><text fill="#000000" font-family="sans-serif" font-size="11" lengthAdjust="spacingAndGlyphs" textLength="103" x="1078.5" y="664.6289">draw(Graphics): void</text></a><!--class edu.guyi.bbtan.geometryobject.ToolBox--><a href="ToolBox.html" target="_top" xlink:actuate="onRequest" xlink:show="new" xlink:title="ToolBox.html" xlink:type="simple"><rect fill="#FEFECE" filter="url(#f1uvina8frvqkn)" height="123.1147" id="edu.guyi.bbtan.geometryobject.ToolBox" style="stroke: #A80036; stroke-width: 1.5;" width="187" x="804.5" y="395"/><ellipse cx="871.25" cy="411" fill="#A9DCDF" rx="11" ry="11" style="stroke: #A80036; stroke-width: 1.0;"/><path d="M871.6875,411.4844 L869.25,411.4844 L868.7344,413.7188 Q868.6719,414.0313 868.6719,414.1875 Q868.6719,414.3906 868.7188,414.5156 Q868.7656,414.6406 868.9844,414.6406 L869.5313,414.6406 L869.5313,415.7344 L866.3906,415.7344 L866.3906,414.6406 L866.9219,414.6406 Q867.0625,414.6406 867.1719,414.5625 Q867.2813,414.4688 867.3125,414.2031 L869.9688,403.8281 L871.5,403.3281 L874.0938,414.1719 Q874.2031,414.4531 874.3125,414.5469 Q874.4219,414.6406 874.5625,414.6406 L875.1094,414.6406 L875.1094,415.7344 L871.5625,415.7344 L871.5625,414.6406 L872.1719,414.6406 Q872.3438,414.6406 872.3438,414.625 Q872.3594,414.5938 872.3594,414.5313 Q872.3594,414.3125 872.3125,414.1563 L871.6875,411.4844 Z M867.1094,415.3281 L867.1094,415.3281 Z M867.7813,415.3281 L867.7813,415.3281 Z M872.5,415.3281 L872.5,415.3281 Z M873.625,415.3281 L873.625,415.3281 Z M870.5156,405.3125 L870.5781,405.3125 L869.5625,410.3906 L871.4688,410.3906 L870.5156,405.3125 Z "/><text fill="#000000" font-family="sans-serif" font-size="12" font-style="italic" lengthAdjust="spacingAndGlyphs" textLength="45" x="891.75" y="416.5576">ToolBox</text><line style="stroke: #A80036; stroke-width: 1.5;" x1="805.5" x2="990.5" y1="427" y2="427"/><polygon fill="none" points="815.5,435.0115,819.5,439.0115,815.5,443.0115,811.5,439.0115" style="stroke: #B38D22; stroke-width: 1.0;"/><text fill="#000000" font-family="sans-serif" font-size="11" lengthAdjust="spacingAndGlyphs" textLength="62" x="824.5" y="443.606">cond: double</text><line style="stroke: #A80036; stroke-width: 1.5;" x1="805.5" x2="990.5" y1="450.0229" y2="450.0229"/><ellipse cx="815.5" cy="463.0344" fill="#84BE84" rx="3" ry="3" style="stroke: #038048; stroke-width: 1.0;"/><text fill="#000000" font-family="sans-serif" font-size="11" lengthAdjust="spacingAndGlyphs" textLength="156" x="824.5" y="466.6289">ToolBox(double, double, double)</text><ellipse cx="815.5" cy="478.0574" fill="#84BE84" rx="3" ry="3" style="stroke: #038048; stroke-width: 1.0;"/><text fill="#000000" font-family="sans-serif" font-size="11" lengthAdjust="spacingAndGlyphs" textLength="161" x="824.5" y="481.6519">Reflect(Ball, double, double): void</text><ellipse cx="815.5" cy="493.0803" fill="#84BE84" rx="3" ry="3" style="stroke: #038048; stroke-width: 1.0;"/><text fill="#000000" font-family="sans-serif" font-size="11" lengthAdjust="spacingAndGlyphs" textLength="140" x="824.5" y="496.6748">IsIn(double, double): boolean</text><ellipse cx="815.5" cy="508.1033" fill="#84BE84" rx="3" ry="3" style="stroke: #038048; stroke-width: 1.0;"/><text fill="#000000" font-family="sans-serif" font-size="11" lengthAdjust="spacingAndGlyphs" textLength="103" x="824.5" y="511.6978">draw(Graphics): void</text></a><!--class edu.guyi.bbtan.geometryobject.Triangle--><a href="Triangle.html" target="_top" xlink:actuate="onRequest" xlink:show="new" xlink:title="Triangle.html" xlink:type="simple"><rect fill="#FEFECE" filter="url(#f1uvina8frvqkn)" height="123.1147" id="edu.guyi.bbtan.geometryobject.Triangle" style="stroke: #A80036; stroke-width: 1.5;" width="253" x="1026.5" y="395"/><ellipse cx="1126.25" cy="411" fill="#ADD1B2" rx="11" ry="11" style="stroke: #A80036; stroke-width: 1.0;"/><path d="M1125.6719,416.8594 Q1123.6406,416.8594 1122.4531,415.3594 Q1121.2813,413.8594 1121.2813,410.75 Q1121.2813,408.1094 1122.5313,406.3438 Q1123.7813,404.5625 1125.9375,404.5625 Q1126.4531,404.5625 1126.9844,404.7031 Q1127.4219,404.8906 1127.6719,404.8906 Q1127.8594,404.8906 1127.9531,404.8594 Q1128.0469,404.8125 1128.5938,404.0938 L1129.4063,408.0625 L1128.3594,408.375 Q1127.9063,406.875 1127.3125,406.2969 Q1126.7344,405.7031 1125.8125,405.7031 Q1124.6406,405.7031 1123.9375,407.1094 Q1123.2344,408.5 1123.2344,410.6719 Q1123.2344,413.0625 1123.8281,414.3281 Q1124.4375,415.5781 1125.75,415.5781 Q1126.6719,415.5781 1127.3438,414.9063 Q1128.0156,414.2188 1128.3438,412.6406 L1129.3906,413.1406 Q1128.9844,414.9063 1128,415.8906 Q1127.0156,416.8594 1125.6719,416.8594 Z "/><text fill="#000000" font-family="sans-serif" font-size="12" lengthAdjust="spacingAndGlyphs" textLength="45" x="1146.75" y="416.5576">Triangle</text><line style="stroke: #A80036; stroke-width: 1.5;" x1="1027.5" x2="1278.5" y1="427" y2="427"/><line style="stroke: #A80036; stroke-width: 1.5;" x1="1027.5" x2="1278.5" y1="435" y2="435"/><ellipse cx="1037.5" cy="448.0115" fill="#84BE84" rx="3" ry="3" style="stroke: #038048; stroke-width: 1.0;"/><text fill="#000000" font-family="sans-serif" font-size="11" lengthAdjust="spacingAndGlyphs" textLength="227" x="1046.5" y="451.606">Triangle(double, double, double, double, int, int)</text><ellipse cx="1037.5" cy="463.0344" fill="#84BE84" rx="3" ry="3" style="stroke: #038048; stroke-width: 1.0;"/><text fill="#000000" font-family="sans-serif" font-size="11" lengthAdjust="spacingAndGlyphs" textLength="140" x="1046.5" y="466.6289">IsIn(double, double): boolean</text><ellipse cx="1037.5" cy="478.0574" fill="#84BE84" rx="3" ry="3" style="stroke: #038048; stroke-width: 1.0;"/><text fill="#000000" font-family="sans-serif" font-size="11" lengthAdjust="spacingAndGlyphs" textLength="161" x="1046.5" y="481.6519">Reflect(Ball, double, double): void</text><ellipse cx="1037.5" cy="493.0803" fill="#84BE84" rx="3" ry="3" style="stroke: #038048; stroke-width: 1.0;"/><text fill="#000000" font-family="sans-serif" font-size="11" lengthAdjust="spacingAndGlyphs" textLength="99" x="1046.5" y="496.6748">update(double): void</text><ellipse cx="1037.5" cy="508.1033" fill="#84BE84" rx="3" ry="3" style="stroke: #038048; stroke-width: 1.0;"/><text fill="#000000" font-family="sans-serif" font-size="11" lengthAdjust="spacingAndGlyphs" textLength="103" x="1046.5" y="511.6978">draw(Graphics): void</text></a><!--link edu.guyi.bbtan.geometryobject.ToolBox to edu.guyi.bbtan.geometryobject.AddBallTool--><path d="M797.03,528.04 C793.68,529.78 790.34,531.44 787,533 C699.5,574.03 670.45,564.85 578,593 C572.03,594.82 565.9,596.71 559.72,598.64 " fill="none" id="edu.guyi.bbtan.geometryobject.ToolBox-edu.guyi.bbtan.geometryobject.AddBallTool" style="stroke: #A80036; stroke-width: 1.0;"/><polygon fill="none" points="793.94,521.75,814.81,518.12,800.76,533.98,793.94,521.75" style="stroke: #A80036; stroke-width: 1.0;"/><!--link edu.guyi.bbtan.geometryobject.ToolBox to edu.guyi.bbtan.geometryobject.Boom--><path d="M805.76,530.91 C778.98,552.22 750.82,574.64 727.95,592.84 " fill="none" id="edu.guyi.bbtan.geometryobject.ToolBox-edu.guyi.bbtan.geometryobject.Boom" style="stroke: #A80036; stroke-width: 1.0;"/><polygon fill="none" points="801.75,525.16,821.75,518.18,810.46,536.11,801.75,525.16" style="stroke: #A80036; stroke-width: 1.0;"/><!--link edu.guyi.bbtan.geometryobject.GeometryObject to edu.guyi.bbtan.geometryobject.Border--><path d="M506.96,267.72 C474.34,285.2 439.58,303.5 407,320 C351.67,348.03 335.86,351.07 281,380 C275.34,382.98 269.58,386.09 263.78,389.26 " fill="none" id="edu.guyi.bbtan.geometryobject.GeometryObject-edu.guyi.bbtan.geometryobject.Border" style="stroke: #A80036; stroke-width: 1.0;"/><polygon fill="none" points="503.9,261.41,524.83,258.11,510.53,273.74,503.9,261.41" style="stroke: #A80036; stroke-width: 1.0;"/><!--link edu.guyi.bbtan.geometryobject.GeometryObject to edu.guyi.bbtan.geometryobject.Circle--><path d="M510.94,331.62 C486.76,356.81 462.94,381.62 443.04,402.34 " fill="none" id="edu.guyi.bbtan.geometryobject.GeometryObject-edu.guyi.bbtan.geometryobject.Circle" style="stroke: #A80036; stroke-width: 1.0;"/><polygon fill="none" points="505.9,326.77,524.8,317.19,516,336.47,505.9,326.77" style="stroke: #A80036; stroke-width: 1.0;"/><!--link edu.guyi.bbtan.geometryobject.ToolBox to edu.guyi.bbtan.geometryobject.EnhanceBallTool--><path d="M904.51,538.15 C906.05,557.22 907.62,576.69 908.92,592.84 " fill="none" id="edu.guyi.bbtan.geometryobject.ToolBox-edu.guyi.bbtan.geometryobject.EnhanceBallTool" style="stroke: #A80036; stroke-width: 1.0;"/><polygon fill="none" points="897.53,538.68,902.9,518.18,911.48,537.55,897.53,538.68" style="stroke: #A80036; stroke-width: 1.0;"/><!--link edu.guyi.bbtan.geometryobject.GeometryObject to edu.guyi.bbtan.geometryobject.Square--><path d="M645,340.39 C645,359.59 645,378.31 645,394.88 " fill="none" id="edu.guyi.bbtan.geometryobject.GeometryObject-edu.guyi.bbtan.geometryobject.Square" style="stroke: #A80036; stroke-width: 1.0;"/><polygon fill="none" points="638,340.28,645,320.28,652,340.28,638,340.28" style="stroke: #A80036; stroke-width: 1.0;"/><!--link edu.guyi.bbtan.geometryobject.ToolBox to edu.guyi.bbtan.geometryobject.TimeMachine--><path d="M1003.49,529.35 C1005.34,530.58 1007.18,531.8 1009,533 C1039.41,553.07 1073.52,574.98 1101.81,592.98 " fill="none" id="edu.guyi.bbtan.geometryobject.ToolBox-edu.guyi.bbtan.geometryobject.TimeMachine" style="stroke: #A80036; stroke-width: 1.0;"/><polygon fill="none" points="999.36,535.02,986.61,518.09,1007.13,523.37,999.36,535.02" style="stroke: #A80036; stroke-width: 1.0;"/><!--link edu.guyi.bbtan.geometryobject.GeometryObject to edu.guyi.bbtan.geometryobject.ToolBox--><path d="M779.23,331.8 C800.56,354.01 821.58,375.91 839.88,394.97 " fill="none" id="edu.guyi.bbtan.geometryobject.GeometryObject-edu.guyi.bbtan.geometryobject.ToolBox" style="stroke: #A80036; stroke-width: 1.0;"/><polygon fill="none" points="774,336.47,765.2,317.19,784.1,326.77,774,336.47" style="stroke: #A80036; stroke-width: 1.0;"/><!--link edu.guyi.bbtan.geometryobject.GeometryObject to edu.guyi.bbtan.geometryobject.Triangle--><path d="M783.06,263.05 C851.13,298.15 934.43,341.19 1009,380 C1018.26,384.82 1027.86,389.83 1037.5,394.86 " fill="none" id="edu.guyi.bbtan.geometryobject.GeometryObject-edu.guyi.bbtan.geometryobject.Triangle" style="stroke: #A80036; stroke-width: 1.0;"/><polygon fill="none" points="779.76,269.23,765.19,253.84,786.17,256.78,779.76,269.23" style="stroke: #A80036; stroke-width: 1.0;"/><text fill="#888888" font-family="sans-serif" font-size="10" lengthAdjust="spacingAndGlyphs" textLength="185" x="572.5" y="724.46">UMLDoclet 2.0.10, PlantUML 1.2019.08</text><!--
@startuml
    namespace edu.guyi.bbtan.geometryobject {

        class AddBallTool [[AddBallTool.html]] {
            +AddBallTool(double, double, double)
            +draw(Graphics): void
        }

        class Ball [[Ball.html]] {
            +x: double
            +y: double
            +speed_x: double
            +speed_y: double
            +Ball(double, double, int, double, double)
            +update(ArrayList<GeometryObject>, long): int
            +draw(Graphics): void
            +IsValid(): boolean
            +setValid(boolean): void
            +setHanced(boolean): void
        }

        class Boom [[Boom.html]] {
            +Boom(double, double, double)
            +draw(Graphics): void
        }

        class Border [[Border.html]] {
            +Border(boolean, boolean, double, double)
            +Hit(): boolean
            +update(double): void
            +IsValid(): boolean
            +Reflect(Ball, double, double): void
            +IsIn(double, double): boolean
            +draw(Graphics): void
        }

        class Circle [[Circle.html]] {
            +Circle(int, double, double, int, int)
            +IsIn(double, double): boolean
            +Reflect(Ball, double, double): void
            +draw(Graphics): void
        }

        class EnhanceBallTool [[EnhanceBallTool.html]] {
            +EnhanceBallTool(double, double, double)
            +draw(Graphics): void
        }

        abstract class GeometryObject [[GeometryObject.html]] {
            +RestHitTime: int
            +x: double
            +y: double
            #ball_radius: double
            #loss: double
            +IsTool: boolean
            +IsTimeMachined: int
            +GeometryObject(double, double, double, int)
            +Hit(): boolean
            +update(double): void
            +IsValid(): boolean
            {abstract} +Reflect(Ball, double, double): void
            {abstract} +IsIn(double, double): boolean
            {abstract} +draw(Graphics): void
        }

        class Line [[Line.html]] {
            +x1: double
            +y1: double
            +x2: double
            +y2: double
            +Line(double, double, double, double)
            +slip(): void
            +IsIn(double, double): boolean
            +IsSeg(double, double, double, double): boolean
            +update(double): void
        }

        class Square [[Square.html]] {
            +Square(double, double, double, double, int, int)
            +IsIn(double, double): boolean
            +Reflect(Ball, double, double): void
            +update(double): void
            +draw(Graphics): void
        }

        class TimeMachine [[TimeMachine.html]] {
            +TimeMachine(double, double, double)
            +draw(Graphics): void
        }

        abstract class ToolBox [[ToolBox.html]] {
            #cond: double
            +ToolBox(double, double, double)
            +Reflect(Ball, double, double): void
            +IsIn(double, double): boolean
            +draw(Graphics): void
        }

        class Triangle [[Triangle.html]] {
            +Triangle(double, double, double, double, int, int)
            +IsIn(double, double): boolean
            +Reflect(Ball, double, double): void
            +update(double): void
            +draw(Graphics): void
        }

        ToolBox <|- - AddBallTool
        ToolBox <|- - Boom
        GeometryObject <|- - Border
        GeometryObject <|- - Circle
        ToolBox <|- - EnhanceBallTool
        GeometryObject <|- - Square
        ToolBox <|- - TimeMachine
        GeometryObject <|- - ToolBox
        GeometryObject <|- - Triangle
    }

    center footer UMLDoclet 2.0.10, PlantUML 1.2019.08
@enduml

PlantUML version 1.2019.08(Sun Jul 14 03:25:14 CST 2019)
(APACHE source distribution)
Java Runtime: OpenJDK Runtime Environment
JVM: OpenJDK 64-Bit Server VM
Java Version: 9+181
Operating System: Windows 10
OS Version: 10.0
Default Encoding: GBK
Language: zh
Country: CN
--></g></svg>