<?xml version="1.0" encoding="UTF-8" standalone="no"?><svg xmlns="http://www.w3.org/2000/svg" xmlns:xlink="http://www.w3.org/1999/xlink" contentScriptType="application/ecmascript" contentStyleType="text/css" height="324px" preserveAspectRatio="none" style="width:266px;height:324px;" version="1.1" viewBox="0 0 266 324" width="266px" zoomAndPan="magnify"><defs><filter height="300%" id="f2ynbiflbt8wr" width="300%" x="-1" y="-1"><feGaussianBlur result="blurOut" stdDeviation="2.0"/><feColorMatrix in="blurOut" result="blurOut2" type="matrix" values="0 0 0 0 0 0 0 0 0 0 0 0 0 0 0 0 0 0 .4 0"/><feOffset dx="4.0" dy="4.0" in="blurOut2" result="blurOut3"/><feBlend in="SourceGraphic" in2="blurOut3" mode="normal"/></filter></defs><g><!--class edu.guyi.bbtan.geometryobject.Square--><a href="Square.html" target="_top" xlink:actuate="onRequest" xlink:show="new" xlink:title="Square.html" xlink:type="simple"><rect fill="#FEFECE" filter="url(#f2ynbiflbt8wr)" height="125.8921" id="edu.guyi.bbtan.geometryobject.Square" style="stroke: #A80036; stroke-width: 1.5;" width="249" x="6" y="164"/><ellipse cx="54.25" cy="185.3887" fill="#ADD1B2" rx="11" ry="11" style="stroke: #A80036; stroke-width: 1.0;"/><path d="M53.6719,191.248 Q51.6406,191.248 50.4531,189.748 Q49.2813,188.248 49.2813,185.1387 Q49.2813,182.498 50.5313,180.7324 Q51.7813,178.9512 53.9375,178.9512 Q54.4531,178.9512 54.9844,179.0918 Q55.4219,179.2793 55.6719,179.2793 Q55.8594,179.2793 55.9531,179.248 Q56.0469,179.2012 56.5938,178.4824 L57.4063,182.4512 L56.3594,182.7637 Q55.9063,181.2637 55.3125,180.6855 Q54.7344,180.0918 53.8125,180.0918 Q52.6406,180.0918 51.9375,181.498 Q51.2344,182.8887 51.2344,185.0605 Q51.2344,187.4512 51.8281,188.7168 Q52.4375,189.9668 53.75,189.9668 Q54.6719,189.9668 55.3438,189.2949 Q56.0156,188.6074 56.3438,187.0293 L57.3906,187.5293 Q56.9844,189.2949 56,190.2793 Q55.0156,191.248 53.6719,191.248 Z "/><text fill="#000000" font-family="sans-serif" font-size="14" lengthAdjust="spacingAndGlyphs" textLength="46" x="123.75" y="185.0439">Square</text><text fill="#000000" font-family="sans-serif" font-size="10" lengthAdjust="spacingAndGlyphs" textLength="144" x="74.75" y="199.5801">edu.guyi.bbtan.geometryobject</text><line style="stroke: #A80036; stroke-width: 1.5;" x1="7" x2="254" y1="206.7773" y2="206.7773"/><ellipse cx="17" cy="219.7888" fill="#84BE84" rx="3" ry="3" style="stroke: #038048; stroke-width: 1.0;"/><text fill="#000000" font-family="sans-serif" font-size="11" lengthAdjust="spacingAndGlyphs" textLength="223" x="26" y="223.3833">Square(double, double, double, double, int, int)</text><ellipse cx="17" cy="234.8118" fill="#84BE84" rx="3" ry="3" style="stroke: #038048; stroke-width: 1.0;"/><text fill="#000000" font-family="sans-serif" font-size="11" lengthAdjust="spacingAndGlyphs" textLength="140" x="26" y="238.4063">IsIn(double, double): boolean</text><ellipse cx="17" cy="249.8347" fill="#84BE84" rx="3" ry="3" style="stroke: #038048; stroke-width: 1.0;"/><text fill="#000000" font-family="sans-serif" font-size="11" lengthAdjust="spacingAndGlyphs" textLength="161" x="26" y="253.4292">Reflect(Ball, double, double): void</text><ellipse cx="17" cy="264.8577" fill="#84BE84" rx="3" ry="3" style="stroke: #038048; stroke-width: 1.0;"/><text fill="#000000" font-family="sans-serif" font-size="11" lengthAdjust="spacingAndGlyphs" textLength="99" x="26" y="268.4521">update(double): void</text><ellipse cx="17" cy="279.8806" fill="#84BE84" rx="3" ry="3" style="stroke: #038048; stroke-width: 1.0;"/><text fill="#000000" font-family="sans-serif" font-size="11" lengthAdjust="spacingAndGlyphs" textLength="103" x="26" y="283.4751">draw(Graphics): void</text></a><!--class edu.guyi.bbtan.geometryobject.GeometryObject--><a href="GeometryObject.html" target="_top" xlink:actuate="onRequest" xlink:show="new" xlink:title="GeometryObject.html" xlink:type="simple"><rect fill="#FEFECE" filter="url(#f2ynbiflbt8wr)" height="95.8462" id="edu.guyi.bbtan.geometryobject.GeometryObject" style="stroke: #A80036; stroke-width: 1.5;" width="187" x="37" y="8"/><ellipse cx="56.95" cy="29.3887" fill="#A9DCDF" rx="11" ry="11" style="stroke: #A80036; stroke-width: 1.0;"/><path d="M57.3875,29.873 L54.95,29.873 L54.4344,32.1074 Q54.3719,32.4199 54.3719,32.5762 Q54.3719,32.7793 54.4188,32.9043 Q54.4656,33.0293 54.6844,33.0293 L55.2313,33.0293 L55.2313,34.123 L52.0906,34.123 L52.0906,33.0293 L52.6219,33.0293 Q52.7625,33.0293 52.8719,32.9512 Q52.9813,32.8574 53.0125,32.5918 L55.6688,22.2168 L57.2,21.7168 L59.7938,32.5605 Q59.9031,32.8418 60.0125,32.9355 Q60.1219,33.0293 60.2625,33.0293 L60.8094,33.0293 L60.8094,34.123 L57.2625,34.123 L57.2625,33.0293 L57.8719,33.0293 Q58.0438,33.0293 58.0438,33.0137 Q58.0594,32.9824 58.0594,32.9199 Q58.0594,32.7012 58.0125,32.5449 L57.3875,29.873 Z M52.8094,33.7168 L52.8094,33.7168 Z M53.4813,33.7168 L53.4813,33.7168 Z M58.2,33.7168 L58.2,33.7168 Z M59.325,33.7168 L59.325,33.7168 Z M56.2156,23.7012 L56.2781,23.7012 L55.2625,28.7793 L57.1688,28.7793 L56.2156,23.7012 Z "/><text fill="#000000" font-family="sans-serif" font-size="14" font-style="italic" lengthAdjust="spacingAndGlyphs" textLength="104" x="92.05" y="29.0439">GeometryObject</text><text fill="#000000" font-family="sans-serif" font-size="10" font-style="italic" lengthAdjust="spacingAndGlyphs" textLength="144" x="72.05" y="43.5801">edu.guyi.bbtan.geometryobject</text><line style="stroke: #A80036; stroke-width: 1.5;" x1="38" x2="223" y1="50.7773" y2="50.7773"/><ellipse cx="48" cy="63.7888" fill="#84BE84" rx="3" ry="3" style="stroke: #038048; stroke-width: 1.0;"/><text fill="#000000" font-family="sans-serif" font-size="11" font-style="italic" lengthAdjust="spacingAndGlyphs" textLength="161" x="57" y="67.3833">Reflect(Ball, double, double): void</text><ellipse cx="48" cy="78.8118" fill="#84BE84" rx="3" ry="3" style="stroke: #038048; stroke-width: 1.0;"/><text fill="#000000" font-family="sans-serif" font-size="11" font-style="italic" lengthAdjust="spacingAndGlyphs" textLength="140" x="57" y="82.4063">IsIn(double, double): boolean</text><ellipse cx="48" cy="93.8347" fill="#84BE84" rx="3" ry="3" style="stroke: #038048; stroke-width: 1.0;"/><text fill="#000000" font-family="sans-serif" font-size="11" font-style="italic" lengthAdjust="spacingAndGlyphs" textLength="103" x="57" y="97.4292">draw(Graphics): void</text></a><!--link edu.guyi.bbtan.geometryobject.GeometryObject to edu.guyi.bbtan.geometryobject.Square--><path d="M130.5,124.45 C130.5,137.4 130.5,150.91 130.5,163.69 " fill="none" id="edu.guyi.bbtan.geometryobject.GeometryObject-edu.guyi.bbtan.geometryobject.Square" style="stroke: #A80036; stroke-width: 1.0;"/><polygon fill="none" points="123.5,124.08,130.5,104.08,137.5,124.08,123.5,124.08" style="stroke: #A80036; stroke-width: 1.0;"/><text fill="#888888" font-family="sans-serif" font-size="10" lengthAdjust="spacingAndGlyphs" textLength="185" x="44" y="311.46">UMLDoclet 2.0.10, PlantUML 1.2019.08</text><!--
@startuml
    set namespaceSeparator none
    hide empty fields
    hide empty methods

    class "<size:14>Square\n<size:10>edu.guyi.bbtan.geometryobject" as edu.guyi.bbtan.geometryobject.Square [[Square.html]] {
        +Square(double, double, double, double, int, int)
        +IsIn(double, double): boolean
        +Reflect(Ball, double, double): void
        +update(double): void
        +draw(Graphics): void
    }

    abstract class "<size:14>GeometryObject\n<size:10>edu.guyi.bbtan.geometryobject" as edu.guyi.bbtan.geometryobject.GeometryObject [[GeometryObject.html]] {
        {abstract} +Reflect(Ball, double, double): void
        {abstract} +IsIn(double, double): boolean
        {abstract} +draw(Graphics): void
    }

    edu.guyi.bbtan.geometryobject.GeometryObject <|- - edu.guyi.bbtan.geometryobject.Square

    center footer UMLDoclet 2.0.10, PlantUML 1.2019.08
@enduml

PlantUML version 1.2019.08(Sun Jul 14 03:25:14 CST 2019)
(APACHE source distribution)
Java Runtime: OpenJDK Runtime Environment
JVM: OpenJDK 64-Bit Server VM
Java Version: 9+181
Operating System: Windows 10
OS Version: 10.0
Default Encoding: GBK
Language: zh
Country: CN
--></g></svg>