<?xml version="1.0" encoding="UTF-8" standalone="no"?><svg xmlns="http://www.w3.org/2000/svg" xmlns:xlink="http://www.w3.org/1999/xlink" contentScriptType="application/ecmascript" contentStyleType="text/css" height="226px" preserveAspectRatio="none" style="width:224px;height:226px;" version="1.1" viewBox="0 0 224 226" width="224px" zoomAndPan="magnify"><defs><filter height="300%" id="f1s0pknh00nmrn" width="300%" x="-1" y="-1"><feGaussianBlur result="blurOut" stdDeviation="2.0"/><feColorMatrix in="blurOut" result="blurOut2" type="matrix" values="0 0 0 0 0 0 0 0 0 0 0 0 0 0 0 0 0 0 .4 0"/><feOffset dx="4.0" dy="4.0" in="blurOut2" result="blurOut3"/><feBlend in="SourceGraphic" in2="blurOut3" mode="normal"/></filter></defs><g><!--class edu.guyi.bbtan.geometryobject.TimeMachine--><a href="TimeMachine.html" target="_top" xlink:actuate="onRequest" xlink:show="new" xlink:title="TimeMachine.html" xlink:type="simple"><rect fill="#FEFECE" filter="url(#f1s0pknh00nmrn)" height="80.8232" id="edu.guyi.bbtan.geometryobject.TimeMachine" style="stroke: #A80036; stroke-width: 1.5;" width="207" x="6" y="111"/><ellipse cx="34.95" cy="132.3887" fill="#ADD1B2" rx="11" ry="11" style="stroke: #A80036; stroke-width: 1.0;"/><path d="M34.3719,138.248 Q32.3406,138.248 31.1531,136.748 Q29.9813,135.248 29.9813,132.1387 Q29.9813,129.498 31.2313,127.7324 Q32.4813,125.9512 34.6375,125.9512 Q35.1531,125.9512 35.6844,126.0918 Q36.1219,126.2793 36.3719,126.2793 Q36.5594,126.2793 36.6531,126.248 Q36.7469,126.2012 37.2938,125.4824 L38.1063,129.4512 L37.0594,129.7637 Q36.6063,128.2637 36.0125,127.6855 Q35.4344,127.0918 34.5125,127.0918 Q33.3406,127.0918 32.6375,128.498 Q31.9344,129.8887 31.9344,132.0605 Q31.9344,134.4512 32.5281,135.7168 Q33.1375,136.9668 34.45,136.9668 Q35.3719,136.9668 36.0438,136.2949 Q36.7156,135.6074 37.0438,134.0293 L38.0906,134.5293 Q37.6844,136.2949 36.7,137.2793 Q35.7156,138.248 34.3719,138.248 Z "/><text fill="#000000" font-family="sans-serif" font-size="14" lengthAdjust="spacingAndGlyphs" textLength="86" x="81.05" y="132.0439">TimeMachine</text><text fill="#000000" font-family="sans-serif" font-size="10" lengthAdjust="spacingAndGlyphs" textLength="144" x="52.05" y="146.5801">edu.guyi.bbtan.geometryobject</text><line style="stroke: #A80036; stroke-width: 1.5;" x1="7" x2="212" y1="153.7773" y2="153.7773"/><ellipse cx="17" cy="166.7888" fill="#84BE84" rx="3" ry="3" style="stroke: #038048; stroke-width: 1.0;"/><text fill="#000000" font-family="sans-serif" font-size="11" lengthAdjust="spacingAndGlyphs" textLength="181" x="26" y="170.3833">TimeMachine(double, double, double)</text><ellipse cx="17" cy="181.8118" fill="#84BE84" rx="3" ry="3" style="stroke: #038048; stroke-width: 1.0;"/><text fill="#000000" font-family="sans-serif" font-size="11" lengthAdjust="spacingAndGlyphs" textLength="103" x="26" y="185.4063">draw(Graphics): void</text></a><!--class edu.guyi.bbtan.geometryobject.ToolBox--><a href="ToolBox.html" target="_top" xlink:actuate="onRequest" xlink:show="new" xlink:title="ToolBox.html" xlink:type="simple"><rect fill="#FEFECE" filter="url(#f1s0pknh00nmrn)" height="42.7773" id="edu.guyi.bbtan.geometryobject.ToolBox" style="stroke: #A80036; stroke-width: 1.5;" width="176" x="21.5" y="8"/><ellipse cx="36.5" cy="29.3887" fill="#A9DCDF" rx="11" ry="11" style="stroke: #A80036; stroke-width: 1.0;"/><path d="M36.9375,29.873 L34.5,29.873 L33.9844,32.1074 Q33.9219,32.4199 33.9219,32.5762 Q33.9219,32.7793 33.9688,32.9043 Q34.0156,33.0293 34.2344,33.0293 L34.7813,33.0293 L34.7813,34.123 L31.6406,34.123 L31.6406,33.0293 L32.1719,33.0293 Q32.3125,33.0293 32.4219,32.9512 Q32.5313,32.8574 32.5625,32.5918 L35.2188,22.2168 L36.75,21.7168 L39.3438,32.5605 Q39.4531,32.8418 39.5625,32.9355 Q39.6719,33.0293 39.8125,33.0293 L40.3594,33.0293 L40.3594,34.123 L36.8125,34.123 L36.8125,33.0293 L37.4219,33.0293 Q37.5938,33.0293 37.5938,33.0137 Q37.6094,32.9824 37.6094,32.9199 Q37.6094,32.7012 37.5625,32.5449 L36.9375,29.873 Z M32.3594,33.7168 L32.3594,33.7168 Z M33.0313,33.7168 L33.0313,33.7168 Z M37.75,33.7168 L37.75,33.7168 Z M38.875,33.7168 L38.875,33.7168 Z M35.7656,23.7012 L35.8281,23.7012 L34.8125,28.7793 L36.7188,28.7793 L35.7656,23.7012 Z "/><text fill="#000000" font-family="sans-serif" font-size="14" font-style="italic" lengthAdjust="spacingAndGlyphs" textLength="52" x="96.5" y="29.0439">ToolBox</text><text fill="#000000" font-family="sans-serif" font-size="10" font-style="italic" lengthAdjust="spacingAndGlyphs" textLength="144" x="50.5" y="43.5801">edu.guyi.bbtan.geometryobject</text></a><!--link edu.guyi.bbtan.geometryobject.ToolBox to edu.guyi.bbtan.geometryobject.TimeMachine--><path d="M109.5,71.45 C109.5,84.16 109.5,98.14 109.5,110.76 " fill="none" id="edu.guyi.bbtan.geometryobject.ToolBox-edu.guyi.bbtan.geometryobject.TimeMachine" style="stroke: #A80036; stroke-width: 1.0;"/><polygon fill="none" points="102.5,71.13,109.5,51.13,116.5,71.13,102.5,71.13" style="stroke: #A80036; stroke-width: 1.0;"/><text fill="#888888" font-family="sans-serif" font-size="10" lengthAdjust="spacingAndGlyphs" textLength="185" x="23" y="213.46">UMLDoclet 2.0.10, PlantUML 1.2019.08</text><!--
@startuml
    set namespaceSeparator none
    hide empty fields
    hide empty methods

    class "<size:14>TimeMachine\n<size:10>edu.guyi.bbtan.geometryobject" as edu.guyi.bbtan.geometryobject.TimeMachine [[TimeMachine.html]] {
        +TimeMachine(double, double, double)
        +draw(Graphics): void
    }

    abstract class "<size:14>ToolBox\n<size:10>edu.guyi.bbtan.geometryobject" as edu.guyi.bbtan.geometryobject.ToolBox [[ToolBox.html]]

    edu.guyi.bbtan.geometryobject.ToolBox <|- - edu.guyi.bbtan.geometryobject.TimeMachine

    center footer UMLDoclet 2.0.10, PlantUML 1.2019.08
@enduml

PlantUML version 1.2019.08(Sun Jul 14 03:25:14 CST 2019)
(APACHE source distribution)
Java Runtime: OpenJDK Runtime Environment
JVM: OpenJDK 64-Bit Server VM
Java Version: 9+181
Operating System: Windows 10
OS Version: 10.0
Default Encoding: GBK
Language: zh
Country: CN
--></g></svg>