<?xml version="1.0" encoding="UTF-8" standalone="no"?><svg xmlns="http://www.w3.org/2000/svg" xmlns:xlink="http://www.w3.org/1999/xlink" contentScriptType="application/ecmascript" contentStyleType="text/css" height="332px" preserveAspectRatio="none" style="width:210px;height:332px;" version="1.1" viewBox="0 0 210 332" width="210px" zoomAndPan="magnify"><defs><filter height="300%" id="f1akwasbzzaoje" width="300%" x="-1" y="-1"><feGaussianBlur result="blurOut" stdDeviation="2.0"/><feColorMatrix in="blurOut" result="blurOut2" type="matrix" values="0 0 0 0 0 0 0 0 0 0 0 0 0 0 0 0 0 0 .4 0"/><feOffset dx="4.0" dy="4.0" in="blurOut2" result="blurOut3"/><feBlend in="SourceGraphic" in2="blurOut3" mode="normal"/></filter></defs><g><!--class edu.guyi.bbtan.geometryobject.ToolBox--><a href="ToolBox.html" target="_top" xlink:actuate="onRequest" xlink:show="new" xlink:title="ToolBox.html" xlink:type="simple"><rect fill="#FEFECE" filter="url(#f1akwasbzzaoje)" height="133.8921" id="edu.guyi.bbtan.geometryobject.ToolBox" style="stroke: #A80036; stroke-width: 1.5;" width="187" x="6" y="164"/><ellipse cx="25.95" cy="185.3887" fill="#A9DCDF" rx="11" ry="11" style="stroke: #A80036; stroke-width: 1.0;"/><path d="M26.3875,185.873 L23.95,185.873 L23.4344,188.1074 Q23.3719,188.4199 23.3719,188.5762 Q23.3719,188.7793 23.4188,188.9043 Q23.4656,189.0293 23.6844,189.0293 L24.2313,189.0293 L24.2313,190.123 L21.0906,190.123 L21.0906,189.0293 L21.6219,189.0293 Q21.7625,189.0293 21.8719,188.9512 Q21.9813,188.8574 22.0125,188.5918 L24.6688,178.2168 L26.2,177.7168 L28.7938,188.5605 Q28.9031,188.8418 29.0125,188.9355 Q29.1219,189.0293 29.2625,189.0293 L29.8094,189.0293 L29.8094,190.123 L26.2625,190.123 L26.2625,189.0293 L26.8719,189.0293 Q27.0438,189.0293 27.0438,189.0137 Q27.0594,188.9824 27.0594,188.9199 Q27.0594,188.7012 27.0125,188.5449 L26.3875,185.873 Z M21.8094,189.7168 L21.8094,189.7168 Z M22.4813,189.7168 L22.4813,189.7168 Z M27.2,189.7168 L27.2,189.7168 Z M28.325,189.7168 L28.325,189.7168 Z M25.2156,179.7012 L25.2781,179.7012 L24.2625,184.7793 L26.1688,184.7793 L25.2156,179.7012 Z "/><text fill="#000000" font-family="sans-serif" font-size="14" font-style="italic" lengthAdjust="spacingAndGlyphs" textLength="52" x="87.05" y="185.0439">ToolBox</text><text fill="#000000" font-family="sans-serif" font-size="10" font-style="italic" lengthAdjust="spacingAndGlyphs" textLength="144" x="41.05" y="199.5801">edu.guyi.bbtan.geometryobject</text><line style="stroke: #A80036; stroke-width: 1.5;" x1="7" x2="192" y1="206.7773" y2="206.7773"/><polygon fill="none" points="17,214.7888,21,218.7888,17,222.7888,13,218.7888" style="stroke: #B38D22; stroke-width: 1.0;"/><text fill="#000000" font-family="sans-serif" font-size="11" lengthAdjust="spacingAndGlyphs" textLength="62" x="26" y="223.3833">cond: double</text><line style="stroke: #A80036; stroke-width: 1.5;" x1="7" x2="192" y1="229.8003" y2="229.8003"/><ellipse cx="17" cy="242.8118" fill="#84BE84" rx="3" ry="3" style="stroke: #038048; stroke-width: 1.0;"/><text fill="#000000" font-family="sans-serif" font-size="11" lengthAdjust="spacingAndGlyphs" textLength="156" x="26" y="246.4063">ToolBox(double, double, double)</text><ellipse cx="17" cy="257.8347" fill="#84BE84" rx="3" ry="3" style="stroke: #038048; stroke-width: 1.0;"/><text fill="#000000" font-family="sans-serif" font-size="11" lengthAdjust="spacingAndGlyphs" textLength="161" x="26" y="261.4292">Reflect(Ball, double, double): void</text><ellipse cx="17" cy="272.8577" fill="#84BE84" rx="3" ry="3" style="stroke: #038048; stroke-width: 1.0;"/><text fill="#000000" font-family="sans-serif" font-size="11" lengthAdjust="spacingAndGlyphs" textLength="140" x="26" y="276.4521">IsIn(double, double): boolean</text><ellipse cx="17" cy="287.8806" fill="#84BE84" rx="3" ry="3" style="stroke: #038048; stroke-width: 1.0;"/><text fill="#000000" font-family="sans-serif" font-size="11" lengthAdjust="spacingAndGlyphs" textLength="103" x="26" y="291.4751">draw(Graphics): void</text></a><!--class edu.guyi.bbtan.geometryobject.GeometryObject--><a href="GeometryObject.html" target="_top" xlink:actuate="onRequest" xlink:show="new" xlink:title="GeometryObject.html" xlink:type="simple"><rect fill="#FEFECE" filter="url(#f1akwasbzzaoje)" height="95.8462" id="edu.guyi.bbtan.geometryobject.GeometryObject" style="stroke: #A80036; stroke-width: 1.5;" width="187" x="6" y="8"/><ellipse cx="25.95" cy="29.3887" fill="#A9DCDF" rx="11" ry="11" style="stroke: #A80036; stroke-width: 1.0;"/><path d="M26.3875,29.873 L23.95,29.873 L23.4344,32.1074 Q23.3719,32.4199 23.3719,32.5762 Q23.3719,32.7793 23.4188,32.9043 Q23.4656,33.0293 23.6844,33.0293 L24.2313,33.0293 L24.2313,34.123 L21.0906,34.123 L21.0906,33.0293 L21.6219,33.0293 Q21.7625,33.0293 21.8719,32.9512 Q21.9813,32.8574 22.0125,32.5918 L24.6688,22.2168 L26.2,21.7168 L28.7938,32.5605 Q28.9031,32.8418 29.0125,32.9355 Q29.1219,33.0293 29.2625,33.0293 L29.8094,33.0293 L29.8094,34.123 L26.2625,34.123 L26.2625,33.0293 L26.8719,33.0293 Q27.0438,33.0293 27.0438,33.0137 Q27.0594,32.9824 27.0594,32.9199 Q27.0594,32.7012 27.0125,32.5449 L26.3875,29.873 Z M21.8094,33.7168 L21.8094,33.7168 Z M22.4813,33.7168 L22.4813,33.7168 Z M27.2,33.7168 L27.2,33.7168 Z M28.325,33.7168 L28.325,33.7168 Z M25.2156,23.7012 L25.2781,23.7012 L24.2625,28.7793 L26.1688,28.7793 L25.2156,23.7012 Z "/><text fill="#000000" font-family="sans-serif" font-size="14" font-style="italic" lengthAdjust="spacingAndGlyphs" textLength="104" x="61.05" y="29.0439">GeometryObject</text><text fill="#000000" font-family="sans-serif" font-size="10" font-style="italic" lengthAdjust="spacingAndGlyphs" textLength="144" x="41.05" y="43.5801">edu.guyi.bbtan.geometryobject</text><line style="stroke: #A80036; stroke-width: 1.5;" x1="7" x2="192" y1="50.7773" y2="50.7773"/><ellipse cx="17" cy="63.7888" fill="#84BE84" rx="3" ry="3" style="stroke: #038048; stroke-width: 1.0;"/><text fill="#000000" font-family="sans-serif" font-size="11" font-style="italic" lengthAdjust="spacingAndGlyphs" textLength="161" x="26" y="67.3833">Reflect(Ball, double, double): void</text><ellipse cx="17" cy="78.8118" fill="#84BE84" rx="3" ry="3" style="stroke: #038048; stroke-width: 1.0;"/><text fill="#000000" font-family="sans-serif" font-size="11" font-style="italic" lengthAdjust="spacingAndGlyphs" textLength="140" x="26" y="82.4063">IsIn(double, double): boolean</text><ellipse cx="17" cy="93.8347" fill="#84BE84" rx="3" ry="3" style="stroke: #038048; stroke-width: 1.0;"/><text fill="#000000" font-family="sans-serif" font-size="11" font-style="italic" lengthAdjust="spacingAndGlyphs" textLength="103" x="26" y="97.4292">draw(Graphics): void</text></a><!--link edu.guyi.bbtan.geometryobject.GeometryObject to edu.guyi.bbtan.geometryobject.ToolBox--><path d="M99.5,124.61 C99.5,137.55 99.5,151.09 99.5,163.98 " fill="none" id="edu.guyi.bbtan.geometryobject.GeometryObject-edu.guyi.bbtan.geometryobject.ToolBox" style="stroke: #A80036; stroke-width: 1.0;"/><polygon fill="none" points="92.5,124.27,99.5,104.27,106.5,124.27,92.5,124.27" style="stroke: #A80036; stroke-width: 1.0;"/><text fill="#888888" font-family="sans-serif" font-size="10" lengthAdjust="spacingAndGlyphs" textLength="185" x="13" y="319.46">UMLDoclet 2.0.10, PlantUML 1.2019.08</text><!--
@startuml
    set namespaceSeparator none
    hide empty fields
    hide empty methods

    abstract class "<size:14>ToolBox\n<size:10>edu.guyi.bbtan.geometryobject" as edu.guyi.bbtan.geometryobject.ToolBox [[ToolBox.html]] {
        #cond: double
        +ToolBox(double, double, double)
        +Reflect(Ball, double, double): void
        +IsIn(double, double): boolean
        +draw(Graphics): void
    }

    abstract class "<size:14>GeometryObject\n<size:10>edu.guyi.bbtan.geometryobject" as edu.guyi.bbtan.geometryobject.GeometryObject [[GeometryObject.html]] {
        {abstract} +Reflect(Ball, double, double): void
        {abstract} +IsIn(double, double): boolean
        {abstract} +draw(Graphics): void
    }

    edu.guyi.bbtan.geometryobject.GeometryObject <|- - edu.guyi.bbtan.geometryobject.ToolBox

    center footer UMLDoclet 2.0.10, PlantUML 1.2019.08
@enduml

PlantUML version 1.2019.08(Sun Jul 14 03:25:14 CST 2019)
(APACHE source distribution)
Java Runtime: OpenJDK Runtime Environment
JVM: OpenJDK 64-Bit Server VM
Java Version: 9+181
Operating System: Windows 10
OS Version: 10.0
Default Encoding: GBK
Language: zh
Country: CN
--></g></svg>