<?xml version="1.0" encoding="UTF-8" standalone="no"?><svg xmlns="http://www.w3.org/2000/svg" xmlns:xlink="http://www.w3.org/1999/xlink" contentScriptType="application/ecmascript" contentStyleType="text/css" height="324px" preserveAspectRatio="none" style="width:270px;height:324px;" version="1.1" viewBox="0 0 270 324" width="270px" zoomAndPan="magnify"><defs><filter height="300%" id="f1e1kigrn8uleu" width="300%" x="-1" y="-1"><feGaussianBlur result="blurOut" stdDeviation="2.0"/><feColorMatrix in="blurOut" result="blurOut2" type="matrix" values="0 0 0 0 0 0 0 0 0 0 0 0 0 0 0 0 0 0 .4 0"/><feOffset dx="4.0" dy="4.0" in="blurOut2" result="blurOut3"/><feBlend in="SourceGraphic" in2="blurOut3" mode="normal"/></filter></defs><g><!--class edu.guyi.bbtan.geometryobject.Triangle--><a href="Triangle.html" target="_top" xlink:actuate="onRequest" xlink:show="new" xlink:title="Triangle.html" xlink:type="simple"><rect fill="#FEFECE" filter="url(#f1e1kigrn8uleu)" height="125.8921" id="edu.guyi.bbtan.geometryobject.Triangle" style="stroke: #A80036; stroke-width: 1.5;" width="253" x="6" y="164"/><ellipse cx="56.25" cy="185.3887" fill="#ADD1B2" rx="11" ry="11" style="stroke: #A80036; stroke-width: 1.0;"/><path d="M55.6719,191.248 Q53.6406,191.248 52.4531,189.748 Q51.2813,188.248 51.2813,185.1387 Q51.2813,182.498 52.5313,180.7324 Q53.7813,178.9512 55.9375,178.9512 Q56.4531,178.9512 56.9844,179.0918 Q57.4219,179.2793 57.6719,179.2793 Q57.8594,179.2793 57.9531,179.248 Q58.0469,179.2012 58.5938,178.4824 L59.4063,182.4512 L58.3594,182.7637 Q57.9063,181.2637 57.3125,180.6855 Q56.7344,180.0918 55.8125,180.0918 Q54.6406,180.0918 53.9375,181.498 Q53.2344,182.8887 53.2344,185.0605 Q53.2344,187.4512 53.8281,188.7168 Q54.4375,189.9668 55.75,189.9668 Q56.6719,189.9668 57.3438,189.2949 Q58.0156,188.6074 58.3438,187.0293 L59.3906,187.5293 Q58.9844,189.2949 58,190.2793 Q57.0156,191.248 55.6719,191.248 Z "/><text fill="#000000" font-family="sans-serif" font-size="14" lengthAdjust="spacingAndGlyphs" textLength="52" x="122.75" y="185.0439">Triangle</text><text fill="#000000" font-family="sans-serif" font-size="10" lengthAdjust="spacingAndGlyphs" textLength="144" x="76.75" y="199.5801">edu.guyi.bbtan.geometryobject</text><line style="stroke: #A80036; stroke-width: 1.5;" x1="7" x2="258" y1="206.7773" y2="206.7773"/><ellipse cx="17" cy="219.7888" fill="#84BE84" rx="3" ry="3" style="stroke: #038048; stroke-width: 1.0;"/><text fill="#000000" font-family="sans-serif" font-size="11" lengthAdjust="spacingAndGlyphs" textLength="227" x="26" y="223.3833">Triangle(double, double, double, double, int, int)</text><ellipse cx="17" cy="234.8118" fill="#84BE84" rx="3" ry="3" style="stroke: #038048; stroke-width: 1.0;"/><text fill="#000000" font-family="sans-serif" font-size="11" lengthAdjust="spacingAndGlyphs" textLength="140" x="26" y="238.4063">IsIn(double, double): boolean</text><ellipse cx="17" cy="249.8347" fill="#84BE84" rx="3" ry="3" style="stroke: #038048; stroke-width: 1.0;"/><text fill="#000000" font-family="sans-serif" font-size="11" lengthAdjust="spacingAndGlyphs" textLength="161" x="26" y="253.4292">Reflect(Ball, double, double): void</text><ellipse cx="17" cy="264.8577" fill="#84BE84" rx="3" ry="3" style="stroke: #038048; stroke-width: 1.0;"/><text fill="#000000" font-family="sans-serif" font-size="11" lengthAdjust="spacingAndGlyphs" textLength="99" x="26" y="268.4521">update(double): void</text><ellipse cx="17" cy="279.8806" fill="#84BE84" rx="3" ry="3" style="stroke: #038048; stroke-width: 1.0;"/><text fill="#000000" font-family="sans-serif" font-size="11" lengthAdjust="spacingAndGlyphs" textLength="103" x="26" y="283.4751">draw(Graphics): void</text></a><!--class edu.guyi.bbtan.geometryobject.GeometryObject--><a href="GeometryObject.html" target="_top" xlink:actuate="onRequest" xlink:show="new" xlink:title="GeometryObject.html" xlink:type="simple"><rect fill="#FEFECE" filter="url(#f1e1kigrn8uleu)" height="95.8462" id="edu.guyi.bbtan.geometryobject.GeometryObject" style="stroke: #A80036; stroke-width: 1.5;" width="187" x="39" y="8"/><ellipse cx="58.95" cy="29.3887" fill="#A9DCDF" rx="11" ry="11" style="stroke: #A80036; stroke-width: 1.0;"/><path d="M59.3875,29.873 L56.95,29.873 L56.4344,32.1074 Q56.3719,32.4199 56.3719,32.5762 Q56.3719,32.7793 56.4188,32.9043 Q56.4656,33.0293 56.6844,33.0293 L57.2313,33.0293 L57.2313,34.123 L54.0906,34.123 L54.0906,33.0293 L54.6219,33.0293 Q54.7625,33.0293 54.8719,32.9512 Q54.9813,32.8574 55.0125,32.5918 L57.6688,22.2168 L59.2,21.7168 L61.7938,32.5605 Q61.9031,32.8418 62.0125,32.9355 Q62.1219,33.0293 62.2625,33.0293 L62.8094,33.0293 L62.8094,34.123 L59.2625,34.123 L59.2625,33.0293 L59.8719,33.0293 Q60.0438,33.0293 60.0438,33.0137 Q60.0594,32.9824 60.0594,32.9199 Q60.0594,32.7012 60.0125,32.5449 L59.3875,29.873 Z M54.8094,33.7168 L54.8094,33.7168 Z M55.4813,33.7168 L55.4813,33.7168 Z M60.2,33.7168 L60.2,33.7168 Z M61.325,33.7168 L61.325,33.7168 Z M58.2156,23.7012 L58.2781,23.7012 L57.2625,28.7793 L59.1688,28.7793 L58.2156,23.7012 Z "/><text fill="#000000" font-family="sans-serif" font-size="14" font-style="italic" lengthAdjust="spacingAndGlyphs" textLength="104" x="94.05" y="29.0439">GeometryObject</text><text fill="#000000" font-family="sans-serif" font-size="10" font-style="italic" lengthAdjust="spacingAndGlyphs" textLength="144" x="74.05" y="43.5801">edu.guyi.bbtan.geometryobject</text><line style="stroke: #A80036; stroke-width: 1.5;" x1="40" x2="225" y1="50.7773" y2="50.7773"/><ellipse cx="50" cy="63.7888" fill="#84BE84" rx="3" ry="3" style="stroke: #038048; stroke-width: 1.0;"/><text fill="#000000" font-family="sans-serif" font-size="11" font-style="italic" lengthAdjust="spacingAndGlyphs" textLength="161" x="59" y="67.3833">Reflect(Ball, double, double): void</text><ellipse cx="50" cy="78.8118" fill="#84BE84" rx="3" ry="3" style="stroke: #038048; stroke-width: 1.0;"/><text fill="#000000" font-family="sans-serif" font-size="11" font-style="italic" lengthAdjust="spacingAndGlyphs" textLength="140" x="59" y="82.4063">IsIn(double, double): boolean</text><ellipse cx="50" cy="93.8347" fill="#84BE84" rx="3" ry="3" style="stroke: #038048; stroke-width: 1.0;"/><text fill="#000000" font-family="sans-serif" font-size="11" font-style="italic" lengthAdjust="spacingAndGlyphs" textLength="103" x="59" y="97.4292">draw(Graphics): void</text></a><!--link edu.guyi.bbtan.geometryobject.GeometryObject to edu.guyi.bbtan.geometryobject.Triangle--><path d="M132.5,124.45 C132.5,137.4 132.5,150.91 132.5,163.69 " fill="none" id="edu.guyi.bbtan.geometryobject.GeometryObject-edu.guyi.bbtan.geometryobject.Triangle" style="stroke: #A80036; stroke-width: 1.0;"/><polygon fill="none" points="125.5,124.08,132.5,104.08,139.5,124.08,125.5,124.08" style="stroke: #A80036; stroke-width: 1.0;"/><text fill="#888888" font-family="sans-serif" font-size="10" lengthAdjust="spacingAndGlyphs" textLength="185" x="46" y="311.46">UMLDoclet 2.0.10, PlantUML 1.2019.08</text><!--
@startuml
    set namespaceSeparator none
    hide empty fields
    hide empty methods

    class "<size:14>Triangle\n<size:10>edu.guyi.bbtan.geometryobject" as edu.guyi.bbtan.geometryobject.Triangle [[Triangle.html]] {
        +Triangle(double, double, double, double, int, int)
        +IsIn(double, double): boolean
        +Reflect(Ball, double, double): void
        +update(double): void
        +draw(Graphics): void
    }

    abstract class "<size:14>GeometryObject\n<size:10>edu.guyi.bbtan.geometryobject" as edu.guyi.bbtan.geometryobject.GeometryObject [[GeometryObject.html]] {
        {abstract} +Reflect(Ball, double, double): void
        {abstract} +IsIn(double, double): boolean
        {abstract} +draw(Graphics): void
    }

    edu.guyi.bbtan.geometryobject.GeometryObject <|- - edu.guyi.bbtan.geometryobject.Triangle

    center footer UMLDoclet 2.0.10, PlantUML 1.2019.08
@enduml

PlantUML version 1.2019.08(Sun Jul 14 03:25:14 CST 2019)
(APACHE source distribution)
Java Runtime: OpenJDK Runtime Environment
JVM: OpenJDK 64-Bit Server VM
Java Version: 9+181
Operating System: Windows 10
OS Version: 10.0
Default Encoding: GBK
Language: zh
Country: CN
--></g></svg>